<svg xmlns="http://www.w3.org/2000/svg" viewBox="0 0 447 447"><defs><style>.cls-1{fill:#9ea8b7;}.cls-2{fill:#929495;}.cls-3{fill:#fcfcfd;}.cls-4{fill:none;stroke:#9ea8b7;stroke-miterlimit:10;stroke-width:7px;}</style></defs><title>Asset 34</title><g id="Layer_2" data-name="Layer 2"><g id="peanut"><path class="cls-1" d="M384.58,325.87c20.49-30.7,30.81-64.56,30.58-101.52A212,212,0,0,0,412,189.44c-.32-1.86-.68-3.71-1.06-5.55-17.1-83.18-91.31-146-177.88-149.05-51.41-1.8-95.72,12.56-131.36,43a203.3,203.3,0,0,0-33.16,36.49C28,171.08,22.41,232.91,48.22,297.46c1,2.57,2,3.15,5,2.62,5.48-.94,10.89-2.25,16.32-3.26,7-1.31,9.74-4.41,11.25-10.41C85.69,267.07,81.88,249,73,231.59c-1.38-2.7-1.33-4.11,1.48-5.23,4.13-2.36,3.87-2.64,6.25-2.7,15.63-.4,31.27-.6,46.9-1.11,79.71-2.62,159.45-.85,239.18-1.36,1.52,0,4.17-.71,3.93,2.65.08,2.41,0,4.84.28,7.22.64,5.62-.24,10.51-5.08,14.36a24.77,24.77,0,0,0-5.07,6.25c-11.32,17.84-20.52,36.81-30.21,55.52-2.12,4.1-1.29,8.07.87,11.9Q342.26,338,353,356.94c1.37,2.41,1.94,3.39,2.91,3.05a10.18,10.18,0,0,0,2.81-2.41q4.47-4.59,8.59-9.29A214.73,214.73,0,0,0,384.58,325.87ZM153.3,169.41c-5.45,5.43-11,10.76-16.5,16.13-1.45,1.41-2.94,2.79-4.33,4.25-1.75,1.85-3.33,1.88-5.18.06-7.11-7-14.3-13.94-21.43-20.93-1.13-1.1-2.62-2.28-.82-4s3-.36,4.13.77c4.95,4.79,9.86,9.61,14.82,14.38.93.89,1.61,2.14,3.55,2.58,0-18.67,0-37,0-55.34,0-1.74,0-3.48,0-5.22s0-3.89,2.42-3.8,2.35,2.13,2.35,4q0,27.92,0,55.83c0,1.43,0,2.86,0,5.36,2.66-2.57,4.65-4.48,6.61-6.39,3.68-3.58,7.31-7.2,11-10.72,1.25-1.18,2.46-3.44,4.66-1.43S154.49,168.22,153.3,169.41Zm85.64-.66c-7.22,7.09-14.5,14.13-21.72,21.22-1.7,1.67-3.2,1.64-4.89,0-7.22-7.09-14.5-14.13-21.73-21.21-1-1-2.28-2.13-.75-3.72s2.94-.64,4.13.57q8.62,8.75,17.18,17.55l1.29-.7q0-29.3,0-58.6c0-1.07,0-2.14,0-3.21a2.24,2.24,0,0,1,2.23-2.4,2.3,2.3,0,0,1,2.41,2.26,26.59,26.59,0,0,1,.07,3.21q0,29.31,0,58.59c1.59.44,2-.84,2.71-1.5,5.26-5,10.46-10.15,15.68-15.23,1.23-1.19,2.49-2.23,4.13-.51S240,167.74,238.94,168.75Zm86.84-.26q-11.13,10.92-22.31,21.78c-1.44,1.4-2.89,1.3-4.28-.06Q288,179.32,276.88,168.42c-1-1-1.76-2.09-.42-3.44s2.69-.78,3.85.34c5,4.88,10.1,9.75,15.06,14.71a18.49,18.49,0,0,1,2.17,3.35l1.51-1c0-19.54,0-39.08,0-58.62,0-2.05-1.15-5.41,2.26-5.45s2.41,3.27,2.42,5.38q.07,29.29,0,58.57c1.61.38,2-.88,2.73-1.54,5.36-5.14,10.65-10.34,16-15.51,1.2-1.17,2.44-1.67,3.84-.2S326.75,167.53,325.78,168.48Z"/><path class="cls-1" d="M343.74,365.83q-28.39-51.29-56.55-102.7c-1-1.75-2.36-3.68-2.31-5.49.18-5.5-3.1-8-7.46-10.2-5-2.55-9.44-5.86-15.65-6-27.75-.68-55.49-1.79-83.23-2.69-23.66-.77-47.34-1.35-71-2.29-4.62-.18-7.37,1.39-9.53,5.2-8.24,14.59-8,31.18-11.56,46.88-.76,3.42,1.68,5,5.36,4.53,2.16-.26,4.31-.62,6.46-.91,4.72-.64,9.43-1.31,14.15-1.87,1.35-.16,2.88-.15,3,1.77.13,1.64-.86,2.44-2.38,2.73-.67.13-1.34.21-2,.3-19.67,2.65-39,7.17-59.37,9.58.66,1.46,1,2.31,1.42,3.14,31.79,64.53,96.64,101.56,163.72,104.35,43.9,1.83,88.75-11,125.91-40.43a6.51,6.51,0,0,0,1.58-1.65C345.06,368.82,344.72,367.61,343.74,365.83Z"/><path class="cls-2" d="M127.49,227.08c24.07.71,48.16.72,72.24.91,46.54.37,93.08.56,139.61,1.08,9.35.1,18.41-.35,27.06-4.18a24.1,24.1,0,0,1,4.33-1c.24-3.5-2.41-2.66-3.93-2.65-79.73.51-159.47-1.26-239.18,1.36-15.63.51-31.27.71-46.9,1.11-2.38.06-3,.69-6.25,2.7,1.89.12,3.78.3,5.68.34C95.93,227.07,111.7,226.62,127.49,227.08Z"/><path class="cls-3" d="M149.92,166.31c-3.73,3.52-7.36,7.14-11,10.72-2,1.91-3.95,3.82-6.61,6.39,0-2.5,0-3.93,0-5.36q0-27.92,0-55.83c0-1.82,0-3.87-2.35-4s-2.43,2-2.42,3.8,0,3.48,0,5.22c0,18.33,0,36.67,0,55.34-1.94-.44-2.62-1.69-3.55-2.58-5-4.77-9.87-9.6-14.82-14.38-1.17-1.14-2.4-2.44-4.13-.77s-.3,2.9.82,4c7.13,7,14.32,13.92,21.43,20.93,1.85,1.83,3.43,1.79,5.18-.06,1.39-1.47,2.88-2.84,4.33-4.25,5.51-5.37,11.06-10.7,16.5-16.13,1.19-1.19,3.58-2.41,1.28-4.52S151.17,165.13,149.92,166.31Z"/><path class="cls-3" d="M235.6,165.55c-5.23,5.08-10.42,10.19-15.68,15.23-.69.66-1.12,1.94-2.71,1.5q0-29.27,0-58.59a26.59,26.59,0,0,0-.07-3.21,2.3,2.3,0,0,0-2.41-2.26,2.24,2.24,0,0,0-2.23,2.4c0,1.07,0,2.14,0,3.21q0,29.3,0,58.6l-1.29.7q-8.59-8.78-17.18-17.55c-1.19-1.2-2.48-2.28-4.13-.57s-.3,2.7.75,3.72c7.23,7.08,14.5,14.12,21.73,21.21,1.69,1.66,3.18,1.69,4.89,0,7.22-7.09,14.5-14.13,21.72-21.22,1-1,2.35-2.08.79-3.71S236.83,164.36,235.6,165.55Z"/><path class="cls-3" d="M322.5,165.25c-5.32,5.17-10.62,10.37-16,15.51-.69.66-1.12,1.92-2.73,1.54q0-29.27,0-58.57c0-2.1.95-5.42-2.42-5.38s-2.25,3.4-2.26,5.45c-.07,19.54,0,39.08,0,58.62l-1.51,1a18.49,18.49,0,0,0-2.17-3.35c-5-5-10-9.83-15.06-14.71-1.16-1.12-2.39-1.82-3.85-.34s-.59,2.45.42,3.44Q288,179.33,299.19,190.2c1.39,1.36,2.85,1.46,4.28.06q11.17-10.88,22.31-21.78c1-1,1.92-2,.56-3.43S323.7,164.08,322.5,165.25Z"/><path class="cls-1" d="M348,246.91c-8.44.11-16.55-.47-25-.36a111,111,0,0,0-24.86,2.88c-2.7.64-3.82,2.06-2,5,3.23,5.23,6.07,10.69,9.1,16q8.4,14.84,16.86,29.64c.48.84.71,2.26,2.11,2.14,1.15-.11,1.15-1.36,1.57-2.15q1.89-3.53,3.75-7.08,10.59-20.26,21.15-40.54C352.23,249.52,351.09,246.87,348,246.91Z"/><circle class="cls-4" cx="223.5" cy="223.5" r="220"/></g></g></svg>