<svg xmlns="http://www.w3.org/2000/svg" viewBox="0 0 447 447"><defs><style>.cls-1{fill:#9ea8b7;}.cls-2{fill:#959595;}.cls-3{fill:#fdfdfd;}.cls-4{fill:none;stroke:#9ea8b7;stroke-miterlimit:10;stroke-width:7px;}</style></defs><title>Asset 27</title><g id="Layer_2" data-name="Layer 2"><g id="peanut"><path class="cls-1" d="M413.92,223.42C413.94,327.5,328.66,412,223.58,412,118.26,412,33,327.51,33.08,223.18,33.15,119.2,118.58,34.93,223.83,35,328.66,35.07,413.9,119.56,413.92,223.42ZM361.41,266a9.11,9.11,0,0,1,5.13-5.26c6.42-3.13,12.75-6.46,19.09-9.73s12.21-7.39,15.89-13.84c1.3-2.28,1.77-4.72.29-6.77-3.53-4.88-7.13-9.79-12.21-13.3C348,188.35,306.15,159.8,265.4,129.78a40.86,40.86,0,0,0-26-8.38c-7.49.2-14.65,1.92-22,2.63-12.6,1.21-25.22,2.35-37.61,5.11-35.34,7.86-71.08,13.79-106.47,21.4-7.31,1.57-15,1.9-21.61,6.11-3.94,2.53-4.2,3.51-1.62,7.31,4.43,6.54,9.07,13,13.36,19.59,3.6,5.57,8.61,10.34,10.26,17.06a14.94,14.94,0,0,1-2.88,7c-3,4.58-6.18,9.11-8.92,13.86-3.13,5.41-1,8.74,5.32,8.86a28.43,28.43,0,0,0,2.84-.14l24.69-2a18.3,18.3,0,0,1,6.43,5.35c11.69,15,23.51,29.81,35.06,44.87,7.64,10,17.92,18.2,21.4,31,2.08,11.83,4.47,23.61,6.18,35.49,2.39,16.57,15,22.35,29.94,21,9.75-.9,17.42-6.3,25.22-11.31,15.77-10.13,31.62-20.08,48.53-28.33,22.68-11.05,46.66-18.44,70.85-25.35,11.66-3.33,18.59-11.37,22.24-22.49C361.93,274.26,361.3,270.12,361.41,266Z"/><path class="cls-2" d="M73.69,200.61C72,193.89,67,189.12,63.43,183.55c-4.28-6.63-8.92-13-13.36-19.59-2.58-3.8-2.31-4.78,1.62-7.31,6.57-4.22,14.3-4.54,21.61-6.11,35.39-7.61,71.13-13.54,106.47-21.4,12.39-2.76,25-3.9,37.61-5.11,7.35-.71,14.5-2.43,22-2.63a40.86,40.86,0,0,1,26,8.38c40.75,30,82.55,58.57,124.21,87.33,5.07,3.5,8.68,8.42,12.21,13.3,1.48,2,1,4.48-.29,6.77-3.68,6.45-9.44,10.51-15.89,13.84s-12.67,6.61-19.09,9.73a9.11,9.11,0,0,0-5.13,5.26l-7.63,1.62c-1.3-1.07-2.54-.35-3.77.14-5.7,2.29-11.37,4.63-17.08,6.87-38.74,15.19-77.4,30.55-115.23,47.87-16,7.33-31.8,7.55-46.76-3a17.24,17.24,0,0,0-2.9-1.34,6.31,6.31,0,0,1-3.46-2.48c-2.06-2.4-4.07-4.84-7-6.35-3.48-12.77-13.76-21-21.4-31-11.54-15.06-23.37-29.92-35.06-44.87a18.3,18.3,0,0,0-6.43-5.35c-2.32-3-4.24-6.27-7.18-8.75.82-1.17,1.11-2.26,0-3.54-2-2.31-3.8-4.73-5.63-7.14a2.67,2.67,0,0,0-3.09-1.15C77.7,204.84,76.37,202.23,73.69,200.61Zm140.06,48a20.89,20.89,0,0,0,3.61-.46c12.4-3.78,24.77-7.68,37.18-11.43,3.2-1,1.85-2,.34-3.29Q241.8,222,228.76,210.55c-2.91-2.55-6.29-3.88-10.11-2.87C206,211,193.36,214.53,180.73,218c-.62.17-1.46.47-1.67.94-.41.92.56,1.37,1.2,1.79,9.26,6.08,16.27,14.41,23.41,22.62C206.29,246.36,209.36,248.71,213.75,248.57Zm58.92-55.48c-3.7.39-7.64,1.86-11.68,3-8,2.17-15.95,4.21-23.87,6.48-1.09.31-4.41.44-1.47,3.09q13.77,12.47,28.11,24.3a6,6,0,0,0,6,1.18c11.75-3.65,23.52-7.22,35.28-10.83,1.13-.35,2.68-.44,2.92-1.8s-1.12-2-2-2.75c-7.81-6.2-15.76-12.21-23.18-18.88A14.28,14.28,0,0,0,272.67,193.09Zm-132-10.38c9.5,8.2,18.77,16.17,28,24.17,1.83,1.59,3.79,2.61,6.27,1.9,10.65-3,21.56-5.13,31.87-9.28,4.7-1.89,5-2.88,1.11-6.1-6.71-5.6-14.21-10.19-20.95-15.78-3.67-3-8.34-3.62-13.09-2.62-7.79,1.64-15.6,3.25-23.38,4.93C147.26,180.63,143.78,180.56,140.69,182.71Zm86.85,11.13c-.53,0,0,.08.54-.06,11.36-3,22.73-6,34.05-9.08,3.65-1,1.43-2.68,0-3.77q-10.07-7.76-20.3-15.34c-2.79-2.06-6.28-3.31-9.53-2.77-12.12,2-24.17,4.46-36.05,7.6-.86.23-2,.32-2.13,1.49-.08.94.9,1.25,1.53,1.7q12.78,9.22,25.57,18.41A8.74,8.74,0,0,0,227.54,193.84Z"/><path class="cls-3" d="M157.62,309.33c2.89,1.51,4.89,4,7,6.35a6.31,6.31,0,0,0,3.46,2.48c.37,2.08.72,4.16,1.1,6.23,1.34,7.36,2.46,14.76,4.1,22.05,2.12,9.39,10.16,13,19,8.89,1.1-.51,2.19-1.06,3.27-1.61,46.8-23.9,94.17-46.53,144.23-63.23,11.58-3.86,15.27-10.39,14-22.88l7.63-1.62c-.11,4.11.52,8.25-.81,12.3-3.66,11.12-10.59,19.16-22.24,22.49-24.19,6.9-48.18,14.3-70.85,25.35-16.92,8.24-32.77,18.2-48.53,28.33-7.81,5-15.48,10.41-25.22,11.31-15,1.38-27.55-4.4-29.94-21C162.09,332.94,159.7,321.16,157.62,309.33Z"/><path class="cls-3" d="M87.55,219.39c2.93,2.49,4.86,5.78,7.18,8.75l-24.69,2a28.43,28.43,0,0,1-2.84.14c-6.34-.13-8.45-3.45-5.32-8.86,2.75-4.75,5.88-9.28,8.92-13.86a14.94,14.94,0,0,0,2.88-7c2.68,1.63,4,4.23,5.17,7-2.57,5.67-7.22,10.07-10.31,16.12C75.56,223.7,81.41,220.85,87.55,219.39Z"/><path class="cls-1" d="M353.78,267.63c1.23,12.49-2.46,19-14,22.88-50.06,16.7-97.43,39.33-144.23,63.23-1.08.55-2.17,1.1-3.27,1.61-8.84,4.12-16.88.49-19-8.89-1.64-7.29-2.76-14.7-4.1-22.05-.38-2.08-.74-4.16-1.1-6.23a17.25,17.25,0,0,1,2.9,1.34c15,10.56,30.75,10.34,46.76,3,37.83-17.32,76.49-32.68,115.23-47.87,5.71-2.24,11.39-4.59,17.08-6.87C351.24,267.27,352.48,266.56,353.78,267.63Z"/><path class="cls-3" d="M213.75,248.57c-4.38.15-7.46-2.2-10.08-5.22-7.15-8.21-14.15-16.54-23.41-22.62-.64-.42-1.6-.87-1.2-1.79.21-.47,1.06-.77,1.67-.94,12.63-3.47,25.26-7,37.92-10.32,3.82-1,7.2.32,10.11,2.87q13,11.43,26.12,22.84c1.51,1.32,2.86,2.32-.34,3.29-12.41,3.75-24.78,7.64-37.18,11.43A20.89,20.89,0,0,1,213.75,248.57Z"/><path class="cls-3" d="M272.67,193.09a14.28,14.28,0,0,1,10.11,3.76c7.42,6.67,15.38,12.68,23.18,18.88.92.73,2.29,1.42,2,2.75s-1.79,1.45-2.92,1.8c-11.76,3.61-23.53,7.18-35.28,10.83a6,6,0,0,1-6-1.18q-14.38-11.79-28.11-24.3c-2.94-2.66.38-2.78,1.47-3.09,7.93-2.27,15.92-4.3,23.87-6.48C265,195,269,193.48,272.67,193.09Z"/><path class="cls-3" d="M140.69,182.71c3.09-2.14,6.58-2.08,9.82-2.78,7.79-1.68,15.59-3.29,23.38-4.93,4.75-1,9.42-.43,13.09,2.62,6.74,5.59,14.24,10.18,20.95,15.78,3.86,3.22,3.59,4.21-1.11,6.1-10.31,4.15-21.22,6.27-31.87,9.28-2.48.7-4.44-.31-6.27-1.9C159.45,198.87,150.19,190.91,140.69,182.71Z"/><path class="cls-3" d="M227.54,193.84a8.74,8.74,0,0,1-6.29-1.82q-12.78-9.21-25.57-18.41c-.63-.45-1.61-.77-1.53-1.7.11-1.17,1.27-1.26,2.13-1.49,11.89-3.14,23.93-5.6,36.05-7.6,3.25-.54,6.74.71,9.53,2.77q10.23,7.56,20.3,15.34c1.41,1.09,3.63,2.77,0,3.77-11.32,3.12-22.7,6.08-34.05,9.08C227.57,193.91,227,193.88,227.54,193.84Z"/><path class="cls-1" d="M87.55,219.39c-6.15,1.46-12,4.31-19,4.29,3.09-6,7.74-10.45,10.31-16.12a2.67,2.67,0,0,1,3.09,1.15c1.84,2.41,3.68,4.82,5.63,7.14C88.67,217.13,88.37,218.22,87.55,219.39Z"/><circle class="cls-4" cx="223.5" cy="223.5" r="220"/></g></g></svg>