<svg xmlns="http://www.w3.org/2000/svg" viewBox="0 0 447 447"><defs><style>.cls-1{fill:#9ea8b7;}.cls-2{fill:#fdfdfd;}.cls-3{fill:#949494;}.cls-4{fill:#334559;}.cls-5{fill:none;stroke:#9ea8b7;stroke-miterlimit:10;stroke-width:7px;}</style></defs><title>Asset 40</title><g id="Layer_2" data-name="Layer 2"><g id="peanut"><path class="cls-1" d="M413.5,223.38c0,104.85-85,190-189.88,190A190,190,0,0,1,33.5,223.21c.06-104.74,85.28-189.65,190.29-189.59C328.4,33.69,413.47,118.78,413.5,223.38ZM105.95,213.15c-1.47,2.85,1.93,3.28,3,5.42-4.44.46-7,3.53-5.08,6.67,1.67,2.73.9,4.29,0,6.26s-.55,3.81-.73,5.72c-.25,2.53,2.54,3.95,1.58,6.36-2,.69-3.79,3.21-5.77,2.52-3.21-1.11-5.17.71-7.38,2-1.68,1-4,1.4-3.39,4.64.56,3,1.84,4.14,4.72,4.79q75.9,17.35,151.76,34.88,43.75,10.09,87.46,20.33c3.93.92,7.73.27,9.89-2.74a5,5,0,0,1,5.27-2.38c4.34.47,7.56-.87,10.64-4.18,11.5-12.32,23.31-24.36,35-36.47a64.22,64.22,0,0,0,7.74-10.33c1.06-1.66,2.22-3.82.75-5.66a43.93,43.93,0,0,0-17.12-13c-16.18-6.76-31.89-14.55-47.67-22.14-24.2-11.64-48.57-23-74.68-29.6-34.38-8.74-69-16.64-103.45-25a18.22,18.22,0,0,0-12.18,1.12Q109,178.72,71.52,195c-1.48.65-3,1.16-4,2.58-2,5.81-1.13,7.28,4.37,8.15,5.31.84,10.63,1.66,15.87,2.85C93.84,210,100.37,209.72,105.95,213.15Z"/><path class="cls-2" d="M67.52,197.6c1-1.42,2.52-1.94,4-2.58q37.43-16.33,74.85-32.7a18.22,18.22,0,0,1,12.18-1.12c34.47,8.39,69.07,16.29,103.45,25,26.12,6.64,50.48,18,74.68,29.6,15.79,7.59,31.49,15.38,47.67,22.14.66,2.24-1.26,3.1-2.44,4.23q-25.67,24.7-51.42,49.33c-4.76,4.56-4.76,4.49-10.33.74-14.57-9.8-29.37-19.37-45.21-26.87-23.14-11-45.8-23.08-70.38-30.91-18.26-5.81-36.36-12.17-55-16.59C123.44,211.7,97.19,206,71,200.19,69.34,199.82,67.69,199.77,67.52,197.6Z"/><path class="cls-3" d="M67.52,197.6c.18,2.17,1.83,2.23,3.47,2.59,26.21,5.84,52.46,11.51,78.58,17.71,18.65,4.43,36.75,10.78,55,16.59,24.58,7.82,47.24,19.94,70.38,30.91,15.84,7.51,30.65,17.07,45.21,26.87,5.57,3.75,5.57,3.82,10.33-.74q25.74-24.64,51.42-49.33c1.18-1.13,3.1-2,2.44-4.23a43.93,43.93,0,0,1,17.12,13c1.46,1.84.31,4-.75,5.66A64.22,64.22,0,0,1,393,267c-11.73,12.11-23.54,24.14-35,36.47-3.09,3.31-6.31,4.65-10.64,4.18A5,5,0,0,0,342,310c-2.16,3-6,3.66-9.89,2.74q-43.71-10.24-87.46-20.33Q168.8,274.88,92.9,257.51c-2.88-.66-4.16-1.78-4.72-4.79-.6-3.23,1.71-3.68,3.39-4.64,2.21-1.25,4.17-3.07,7.38-2,2,.69,3.73-1.83,5.77-2.52a2.69,2.69,0,0,0,.33.73c2.72,3,15.92,3,18.6,0,.6-.67,1-1.56.33-2.13-2.83-2.32-1.72-5.14-1.21-7.91.65-1.55,2.27-1.77,3.51-2.47,5.78-3.27,11.6-6.45,17.41-9.67-11.55-2.86-22.23-7.93-34-8.48-1.14-1-2.46-.62-3.75-.5-5.58-3.43-12.1-3.18-18.2-4.56-5.24-1.19-10.56-2-15.87-2.85C66.39,204.88,65.54,203.41,67.52,197.6Zm240.67,95.72c0-1.78-1-1.87-1.66-2.24-5.71-3.28-11.58-6.25-17.07-10C273,270,254.9,261.81,236.87,253.52c-21-9.67-42.82-17.06-64.87-23.87a8.79,8.79,0,0,0-7.68.92c-6.72,4-13.62,7.71-20.42,11.56-5.57,3.15-11.11,6.35-17.45,10Z"/><path class="cls-2" d="M105.95,213.15c1.29-.12,2.61-.46,3.75.5-2.43,1.16-.29,1.44.41,1.76,3.28,1.51,6.92.8,10.33,1.5.82.17,1.71.39,1.69,1.37s-1,1.13-1.8,1.12c-2.69,0-5.39-.18-8.08-.14-1.9,0-4-.08-5.29,1.93,1.66,1,3.08.26,4.51.08,2.14-.27,4.28-.48,6.43-.63,1.15-.08,2.26.28,2.39,1.61.1,1-.71,1.67-1.63,2.07a10.86,10.86,0,0,1-7.13.33c-1.66-.41-3.17-.53-4.53.86,3.24,1.62,6.66.7,9.93.79,4,.11,5.75,1.38,4,4.82-1.69,3.26.27,2.7,1.89,3.12-.51,2.77-1.62,5.59,1.21,7.91.69.56.27,1.45-.33,2.13-2.68,3-15.88,3-18.6,0a2.69,2.69,0,0,1-.33-.73c1-2.41-1.82-3.83-1.58-6.36.19-1.91-.12-3.8.73-5.72s1.65-3.53,0-6.26c-1.92-3.15.63-6.22,5.08-6.67C107.87,216.43,104.48,216,105.95,213.15Zm6,25.44c-2-.54-4-1.17-6.29-.08C108,241.4,110,239.93,111.93,238.59Zm-7.78-3.87c3.39,0,5.63.22,7.55-1.23C109.46,233.06,107.2,232.45,104.16,234.71Z"/><path class="cls-1" d="M308.19,293.32,126.45,252.11c6.34-3.63,11.88-6.82,17.45-10,6.81-3.85,13.71-7.56,20.42-11.56a8.79,8.79,0,0,1,7.68-.92c22,6.81,43.86,14.2,64.87,23.87,18,8.3,36.11,16.46,52.59,27.6,5.5,3.71,11.36,6.69,17.07,10C307.18,291.45,308.16,291.53,308.19,293.32Z"/><path class="cls-1" d="M122.78,234.27c-1.62-.42-3.58.14-1.89-3.12,1.78-3.44,0-4.71-4-4.82-3.28-.09-6.7.83-9.93-.79,1.36-1.38,2.86-1.27,4.53-.86a10.86,10.86,0,0,0,7.13-.33c.92-.4,1.73-1,1.63-2.07-.13-1.33-1.24-1.69-2.39-1.61-2.15.15-4.29.36-6.43.63-1.43.18-2.84.91-4.51-.08,1.33-2,3.39-1.9,5.29-1.93,2.69,0,5.39.1,8.08.14.81,0,1.77-.06,1.8-1.12s-.87-1.2-1.69-1.37c-3.42-.7-7,0-10.33-1.5-.7-.32-2.84-.6-.41-1.76,11.77.55,22.45,5.62,34,8.48-5.81,3.21-11.63,6.4-17.41,9.67C125.05,232.5,123.42,232.72,122.78,234.27Z"/><path class="cls-3" d="M111.93,238.59c-1.95,1.34-3.93,2.82-6.29-.08C107.91,237.42,109.92,238,111.93,238.59Z"/><path class="cls-4" d="M104.16,234.71c3-2.26,5.3-1.65,7.55-1.23C109.78,234.94,107.54,234.74,104.16,234.71Z"/><circle class="cls-5" cx="223.5" cy="223.5" r="220"/></g></g></svg>