<svg xmlns="http://www.w3.org/2000/svg" viewBox="0 0 447 447"><defs><style>.cls-1{fill:#fff;}.cls-2{fill:#9ea8b7;}.cls-3{fill:#929495;}.cls-4{fill:#fcfdfd;}.cls-5{fill:none;stroke:#9ea8b7;stroke-miterlimit:10;stroke-width:7px;}</style></defs><title>Asset 26</title><g id="Layer_2" data-name="Layer 2"><g id="peanut"><path class="cls-1" d="M84.3,95.07a190.65,190.65,0,0,0-32.55,49.44,210.66,210.66,0,0,1,18.31-31.31A216.83,216.83,0,0,1,84.3,95.07Z"/><path class="cls-1" d="M409.9,192.28a215.73,215.73,0,0,1,2.53,28.95A192.77,192.77,0,0,0,409.9,192.28Z"/><path class="cls-1" d="M356.74,357.45c-3.33,3.47-3.4,3.4-5.65-.63q-10.62-19-21.23-38c-2.14-3.84-3-7.83-.86-11.95,9.58-18.78,18.64-37.85,29.84-55.76a24.88,24.88,0,0,1,5-6.28c4.78-3.86,5.65-8.78,5-14.42-.27-2.4-.19-4.84-.27-7.26a23.47,23.47,0,0,0-4.28,1c-8.54,3.84-17.5,4.3-26.73,4.2-46-.52-91.93-.71-137.9-1.08-23.79-.19-47.58-.21-71.36-.92-15.59-.46-31.17,0-46.76-.38-1.87,0-3.74-.23-5.61-.34-2.78,1.12-2.83,2.54-1.46,5.26,8.77,17.43,12.54,35.63,7.73,55-1.49,6-4.05,10-11.12,10.46-5.43.32-10.84,1.82-16.12,3.28-2.93.81-3.94,0-5-2.63q-12.94-32.9-15.09-64.77c4.54,101,87.26,181.52,188.66,181.52,80.91,0,149.93-51.27,176.82-123.31Q386.49,326.47,356.74,357.45ZM297,248.79a78.21,78.21,0,0,1,24.4-4.24c8.2-.12,16.24,1.85,24.44,1.73,3.34,0,4.53,2.54,2.93,5.67q-10.31,20.2-20.68,40.37c-1.16,2.26-2.34,4.51-3.59,6.71-.57,1-.47,2.78-1.92,2.78S320.71,300,320.1,299c-3.88-6.88-7.62-13.83-11.46-20.73-4.48-8.06-8.91-16.16-13.58-24.11C293.35,251.2,294,249.79,297,248.79ZM81.63,236.47c3.86,0,7.2.11,10.53,0,2.41-.1,3.37.84,2.46,3-2.33,5.66-3.72,11.68-6.9,17.85ZM339.81,372.58c-93.37,73.48-232.58,41.78-284.9-65-.41-.83-.77-1.69-1.49-3.27,20-2.45,39.08-6.92,58.5-9.63.67-.09,1.33-.16,2-.28,1.67-.3,2.8-1.18,2.48-3s-1.87-1.7-3.19-1.52c-6.53.86-13,1.8-19.57,2.68-4.62.62-6.8-1.24-5.78-5.91,2.79-12.71,3.67-25.8,7.76-38.24a25.73,25.73,0,0,1,1.07-2.61c4.46-9.78,5.14-10,15.78-9.69,22,.75,44.07,1.26,66.1,2,27.67.9,55.34,2,83,2.75,6,.16,10.17,3.68,15,6.13,4.17,2.11,7.32,4.57,7.14,9.95-.06,1.82,1.28,3.77,2.23,5.53q27.59,51.07,55.33,102C343.26,368.06,343.27,369.87,339.81,372.58Z"/><path class="cls-2" d="M55,299.71c5.28-1.46,10.7-3,16.12-3.28C78.17,296,80.73,292,82.22,286c4.81-19.42,1-37.61-7.73-55-1.37-2.72-1.32-4.13,1.46-5.26,1.22-2.82,3.82-2.65,6.17-2.71,15.44-.41,30.89-.6,46.32-1.12,78.74-2.64,157.5-.85,236.25-1.37,1.5,0,5.05-1.74,3.88,2.67.08,2.42,0,4.86.27,7.26.64,5.64-.24,10.56-5,14.42a24.88,24.88,0,0,0-5,6.28c-11.2,17.91-20.26,37-29.84,55.76-2.1,4.12-1.28,8.11.86,11.95q10.6,19,21.23,38c2.25,4,2.32,4.1,5.65.63q29.69-31,43.68-66.93a181,181,0,0,0,12-69.3,215.73,215.73,0,0,0-2.53-28.95c-.19-1.23-.37-2.46-.58-3.69C394.64,102.3,320,36.43,232.57,33.32,172.46,31.19,122.19,51.79,84.3,95.07a216.83,216.83,0,0,0-14.24,18.14,210.66,210.66,0,0,0-18.31,31.31,175.9,175.9,0,0,0-16.82,87.79Q37,264.13,50,297.07C51,299.66,52,300.52,55,299.71Zm256.59-130Q291,177.9,270.41,186c-1,.39-2,.8-3,1.11-2.24.67-5,2.32-6.15-1.07-1-3.09,1.94-3.65,4-4.4,5.94-2.15,11.9-4.22,17.85-6.34a23.45,23.45,0,0,0,7.17-3.59c-1.94,0-3.88,0-5.82,0L148.13,170.5c-1.48,0-3,0-4.43-.12-1.8-.14-3.23-.94-3.14-2.95s1.54-2.71,3.34-2.78c1.21,0,2.42,0,3.63,0l140.77,1h4.4l.08-1L265,154.12c-1.13-.43-2.27-.84-3.37-1.33-1.71-.76-3.25-1.87-2.37-4,1-2.28,2.7-1,4.11-.42q20.46,7.88,40.91,15.82l9.75,3.79C313.71,169.45,312.46,169.39,311.57,169.75Z"/><path class="cls-2" d="M286,262.46c-.95-1.76-2.3-3.71-2.23-5.53.18-5.37-3-7.84-7.14-9.95-4.84-2.44-9-6-15-6.13-27.68-.73-55.35-1.85-83-2.75-22-.71-44.07-1.23-66.1-2-10.64-.36-11.33-.09-15.78,9.69a25.73,25.73,0,0,0-1.07,2.61c-4.09,12.43-5,25.53-7.76,38.24-1,4.66,1.16,6.53,5.78,5.91,6.52-.88,13-1.82,19.57-2.68,1.32-.17,2.87-.31,3.19,1.52s-.8,2.71-2.48,3c-.66.12-1.33.19-2,.28-19.42,2.71-38.55,7.17-58.5,9.63.72,1.58,1.08,2.44,1.49,3.27,52.32,106.76,191.52,138.46,284.9,65,3.45-2.72,3.44-4.52,1.5-8.07Q313.47,313.58,286,262.46Z"/><path class="cls-3" d="M364.71,220.48c-78.75.52-157.51-1.28-236.25,1.37-15.44.52-30.88.71-46.32,1.12-2.35.06-5-.11-6.17,2.71,1.87.12,3.74.3,5.61.34,15.58.37,31.16-.08,46.76.38,23.77.71,47.57.72,71.36.92,46,.37,91.94.57,137.9,1.08,9.23.1,18.19-.36,26.73-4.2a23.47,23.47,0,0,1,4.28-1C369.76,218.74,366.21,220.47,364.71,220.48Z"/><path class="cls-2" d="M94.62,239.48c.91-2.21-.06-3.15-2.46-3-3.32.14-6.66,0-10.53,0l6.08,20.86C90.9,251.15,92.3,245.13,94.62,239.48Z"/><path class="cls-4" d="M263.39,148.39c-1.41-.54-3.15-1.86-4.11.42-.89,2.11.65,3.21,2.37,4,1.1.49,2.24.9,3.37,1.33l27.76,10.55-.08,1h-4.4l-140.77-1c-1.21,0-2.42,0-3.63,0-1.81.07-3.25.83-3.34,2.78s1.34,2.81,3.14,2.95c1.47.11,3,.11,4.43.12l136.33,1.18c1.94,0,3.88,0,5.82,0a23.45,23.45,0,0,1-7.17,3.59c-6,2.12-11.92,4.19-17.85,6.34-2.09.76-5.06,1.32-4,4.4,1.14,3.39,3.91,1.75,6.15,1.07,1-.31,2-.71,3-1.11q20.59-8.1,41.16-16.23c.89-.35,2.14-.3,2.48-1.75l-9.75-3.79Q283.85,156.29,263.39,148.39Z"/><path class="cls-2" d="M308.64,278.22c3.84,6.9,7.58,13.85,11.46,20.73.62,1.09.93,2.88,2.47,2.88s1.36-1.79,1.92-2.78c1.25-2.21,2.43-4.45,3.59-6.71q10.36-20.18,20.68-40.37c1.6-3.13.41-5.72-2.93-5.67-8.2.12-16.24-1.84-24.44-1.73a78.21,78.21,0,0,0-24.4,4.24c-3,1-3.64,2.41-1.93,5.32C299.73,262.07,304.16,270.16,308.64,278.22Z"/><circle class="cls-5" cx="223.5" cy="223.5" r="220"/></g></g></svg>