<svg xmlns="http://www.w3.org/2000/svg" viewBox="0 0 447 447"><defs><style>.cls-1{fill:#fdfdfd;}.cls-2{fill:#9ea8b7;}.cls-3{fill:#979898;}.cls-4{fill:none;stroke:#9ea8b7;stroke-miterlimit:10;stroke-width:7px;}</style></defs><title>Asset 28</title><g id="Layer_2" data-name="Layer 2"><g id="peanut"><path class="cls-1" d="M74.32,339.59l0,0c-.91,1.73.78,2.4,1.5,3.26,47.06,57,107.14,81.77,179.48,69.61C357.73,395.22,425.61,298,409.94,194.11,393.85,87.45,294.56,15.11,189.78,34.76,52.46,60.51-10.85,221.66,71.63,337.32,72.27,338.22,72.43,340.07,74.32,339.59Z"/><path class="cls-2" d="M74.32,339.59c-1.89.48-2-1.37-2.69-2.27C-10.85,221.66,52.46,60.51,189.78,34.76,294.56,15.11,393.85,87.45,409.94,194.11,425.61,298,357.73,395.22,255.27,412.44c-72.35,12.16-132.42-12.62-179.48-69.61-.71-.86-2.41-1.53-1.5-3.26,2.42,0,4.84.06,7.25.06l230.18-.06c16.93,0,33.86-.07,50.79,0,3.19,0,4.45-.54,3.89-4.38-1.94-13.42-3.41-26.91-5.07-40.38q-3-24-5.94-48.08c-2-16.16-4.1-32.3-6.11-48.46-1.48-11.85-2.88-23.71-4.34-35.56q-2.37-19.19-4.8-38.38c-.1-.78-.64-1.83.34-2.16,4.37-1.48,2.82-5.17,3.25-8.22.57-4.06-1.16-5.43-5-5.92-16.27-2.08-32.63-2.56-49-2.74-30.23-.32-60.47-.32-90.7-.24-31.54.09-63.11-1.33-94.57,2.29-2.12.24-4.54.29-4.84,2.63-.39,3.11-1.74,7,.87,9.33s2.16,4.65,1.82,7.27c-1,7.4-2,14.78-3,22.18-2.24,17.08-4.44,34.17-6.7,51.25q-3.87,29.25-7.82,58.48C82.79,274,80.6,289.4,78.71,304.89,77.3,316.46,75.11,327.94,74.32,339.59Z"/><path class="cls-3" d="M74.32,339.59c.79-11.65,3-23.13,4.39-34.7C80.6,289.4,82.79,274,84.86,258.5q3.91-29.24,7.82-58.48c2.26-17.08,4.46-34.17,6.7-51.25,1-7.4,2-14.78,3-22.18.34-2.62.78-4.94-1.82-7.27s-1.27-6.22-.87-9.33c.29-2.34,2.72-2.39,4.84-2.63,31.46-3.62,63-2.2,94.57-2.29,30.23-.08,60.47-.09,90.7.24,16.35.18,32.71.66,49,2.74,3.84.49,5.56,1.86,5,5.92-.43,3,1.12,6.74-3.25,8.22-1,.33-.44,1.37-.34,2.16q2.42,19.19,4.8,38.38c1.46,11.85,2.87,23.71,4.34,35.56,2,16.16,4.09,32.3,6.11,48.46s4,32.05,5.94,48.08c1.66,13.46,3.13,27,5.07,40.38.56,3.84-.7,4.39-3.89,4.38-16.93-.07-33.86,0-50.79,0l-230.18.06c-2.42,0-4.84,0-7.25-.06Zm146-43.37c-43.26,0-86.52.07-129.78-.12-3.88,0-5.13,1.24-5.44,4.81-.83,9.33-1.81,18.65-2.77,28-.5,4.9-.53,4.91,4.37,4.89,60.59-.22,121.17.2,181.76-.49,29-.33,58-.12,87.06-.15,4.66,0,4.79-.2,4.14-4.83-1.26-9-2.81-18-3.62-27-.37-4.05-1.52-5.16-5.52-5.14C307.09,296.28,263.69,296.23,220.3,296.23Zm0-5.74q64.89,0,129.78.06c3.24,0,4.64-.62,4.13-4.26q-2.12-15.34-3.75-30.74c-.3-2.85-1.37-3.5-4-3.5q-125.74.1-251.49,0c-3.17,0-4.14,1.09-4.44,4.13-1,10-2,20-3.58,29.94-.65,4.09.61,4.45,4,4.44Q155.61,290.41,220.3,290.49Zm.34-44.12q62.25,0,124.5.05c3.28,0,4.36-.48,3.76-4.3-1.53-9.65-2.69-19.38-3.42-29.13-.31-4.13-1.59-5.12-5.55-5.11q-80.58.2-161.17.09c-26.06,0-52.11.05-78.17-.06-3.2,0-4.35.86-4.69,4.23-1,10-2.32,20-3.72,29.91-.49,3.45.51,4.39,4,4.38Q158.39,246.27,220.64,246.37Zm-.24-44.12c39.76,0,79.53,0,119.29.08,3.48,0,4.43-1,4-4.41-1.33-9.83-2.66-19.66-3.54-29.53-.36-4-2-4.6-5.55-4.6q-95.51.16-191,.08c-12.76,0-25.52,0-38.29,0-2.38,0-3.52.44-3.81,3.23q-1.59,15.19-3.77,30.31c-.59,4.08.78,5,4.65,5C141.68,202.2,181,202.25,220.4,202.25Zm0-44.12H333.28c1.08,0,2.15,0,3.22,0,1.8.07,2.25-.68,2-2.5-1.16-9.17-2.49-18.33-3.15-27.54-.36-4.94-2-7-7-6.3-2.08.31-4.28-.22-6.42-.22q-50.19-.13-100.38-.23-55-.11-110.05-.29c-3.38,0-4.87.56-5.17,4.5-.7,9.2-2,18.36-3.23,27.53-.65,5.06-.74,5.05,4.38,5.05Z"/><path class="cls-1" d="M220.3,296.23c43.4,0,86.79.06,130.19-.09,4,0,5.16,1.09,5.52,5.14.82,9,2.36,18,3.62,27,.65,4.63.52,4.83-4.14,4.83-29,0-58-.18-87.06.15-60.59.69-121.17.27-181.76.49-4.9,0-4.87,0-4.37-4.89,1-9.32,1.94-18.64,2.77-28,.32-3.56,1.57-4.82,5.44-4.81C133.78,296.29,177,296.23,220.3,296.23Z"/><path class="cls-1" d="M220.3,290.49q-64.69,0-129.37.06c-3.39,0-4.66-.35-4-4.44,1.58-9.92,2.57-19.94,3.58-29.94.3-3,1.27-4.13,4.44-4.13q125.74.13,251.49,0c2.66,0,3.73.65,4,3.5q1.62,15.4,3.75,30.74c.5,3.64-.89,4.27-4.13,4.26Q285.19,290.41,220.3,290.49Z"/><path class="cls-1" d="M220.64,246.37q-62.25,0-124.5.07c-3.45,0-4.44-.93-4-4.38,1.4-9.95,2.74-19.92,3.72-29.91.33-3.37,1.49-4.24,4.69-4.23,26.06.12,52.11.06,78.17.06q80.59,0,161.17-.09c4,0,5.24,1,5.55,5.11.74,9.74,1.9,19.48,3.42,29.13.6,3.82-.48,4.3-3.76,4.3Q282.89,246.3,220.64,246.37Z"/><path class="cls-1" d="M220.4,202.25c-39.36,0-78.72-.05-118.08.08-3.87,0-5.23-.89-4.65-5q2.17-15.11,3.77-30.31c.29-2.79,1.43-3.24,3.81-3.23,12.76.09,25.52,0,38.29,0q95.51,0,191-.08c3.54,0,5.19.58,5.55,4.6.88,9.87,2.22,19.71,3.54,29.53.46,3.39-.49,4.42-4,4.41C299.93,202.21,260.17,202.25,220.4,202.25Z"/><path class="cls-1" d="M220.41,158.14H107.53c-5.12,0-5,0-4.38-5.05,1.18-9.16,2.52-18.32,3.23-27.53.3-3.94,1.79-4.51,5.17-4.5q55,.27,110.05.29,50.19.1,100.38.23c2.14,0,4.34.53,6.42.22,5-.74,6.61,1.36,7,6.3.67,9.21,2,18.37,3.15,27.54.23,1.81-.23,2.57-2,2.5-1.07,0-2.15,0-3.22,0Z"/><circle class="cls-4" cx="223.5" cy="223.5" r="220"/></g></g></svg>