<svg xmlns="http://www.w3.org/2000/svg" viewBox="0 0 447 447"><defs><style>.cls-1{fill:#9ea8b7;}.cls-2{fill:#949494;}.cls-3{fill:#fdfdfd;}.cls-4{fill:none;stroke:#9ea8b7;stroke-miterlimit:10;stroke-width:7px;}</style></defs><title>Asset 31</title><g id="Layer_2" data-name="Layer 2"><g id="peanut"><path class="cls-1" d="M414.24,202.36c5.41,50.62-7.07,96.69-39.11,136.71-40.4,50.46-94.24,74.9-159.72,73C127.07,409.46,50.18,343.56,34.8,258.44a189.89,189.89,0,0,1-2.2-54.73c4.45,1.46,6.81,5.56,10.52,8,13.76,9,27.39,18.11,41.3,26.85a26.44,26.44,0,0,1,11.3,14.21,71.7,71.7,0,0,0,6.35,13c3.25,5.4,9,7.5,14,10.73,12.43,8.06,23.48,17.88,35.1,27,5.44,4.25,10.75,8.67,16,13.12,7,6,18.62,4.28,26.94-.42s14-12.29,19-20.12c9.94-15.52,18.47-31.84,27.7-47.77,2.14-3.7,4.89-6.2,9.33-7.06,6.82-1.32,13.55-3,20.34-4.54,8.38-1.84,16.66-2.52,24.8,1.28,18.38,8.56,37.27,16,55.47,25,5.47,2.69,11.13,5.15,17.52,5,5.22-.12,7.9-3.37,6.23-8.15a116.38,116.38,0,0,0-5.15-12.21,8.76,8.76,0,0,1,.81-9.75c5.83-8.24,11.48-16.6,17.12-25a9.68,9.68,0,0,1,5-3.95C399.52,206.41,406.81,204.15,414.24,202.36Z"/><path class="cls-1" d="M34.22,192.22C50.92,112.94,98.52,60.6,178.75,40.59c105.5-26.31,209.79,40.57,232.32,143-1.73-.33-3.5-.55-5.2-1C380.3,175.36,354.79,168,329.15,161c-8.59-2.34-16.93-5.58-26.19-5.74-14.67-.25-29.06,2.23-43.58,3.28a493.85,493.85,0,0,0-49.87,6c-29.39,5.17-59.09,8.08-88.57,12.5-20.6,3.09-41.19,6.26-61.79,9.31A161.59,161.59,0,0,0,34.22,192.22Z"/><path class="cls-2" d="M34.22,192.22a161.59,161.59,0,0,1,24.93-5.83c20.61-3,41.19-6.22,61.79-9.31,29.48-4.42,59.18-7.33,88.57-12.5a493.85,493.85,0,0,1,49.87-6c14.53-1.05,28.91-3.53,43.58-3.28,9.27.16,17.6,3.4,26.19,5.74,25.63,7,51.15,14.35,76.72,21.53,1.69.48,3.46.69,5.2,1a148.83,148.83,0,0,1,3.16,18.79c-7.43,1.79-14.71,4-21.93,6.5a9.68,9.68,0,0,0-5,3.95c-5.63,8.37-11.29,16.73-17.12,25a8.76,8.76,0,0,0-.81,9.75,116.38,116.38,0,0,1,5.15,12.21c1.66,4.78-1,8-6.23,8.15-6.39.14-12.05-2.32-17.52-5-18.2-9-37.09-16.42-55.47-25-8.14-3.79-16.42-3.12-24.8-1.28-6.78,1.49-13.52,3.21-20.34,4.54-4.44.86-7.19,3.36-9.33,7.06-9.23,15.93-17.76,32.25-27.7,47.77-5,7.83-10.56,15.35-19,20.12s-19.9,6.38-26.94.42c-5.27-4.46-10.58-8.87-16-13.12-11.62-9.09-22.68-18.9-35.1-27-5-3.23-10.76-5.33-14-10.73a71.7,71.7,0,0,1-6.35-13,26.44,26.44,0,0,0-11.3-14.21c-13.91-8.73-27.54-17.88-41.3-26.85-3.7-2.41-6.07-6.51-10.52-8ZM149,235.68c2.8-.65,6.09-1.53,9.43-2.18q57.22-11.15,114.38-22.56c30.77-6.08,61.32-13.16,92.16-18.87,1.61-.3,4.21-.09,4.41-2.16.22-2.29-2.49-2-4-2.52-21.55-7.32-43.32-14-65.15-20.45a21.79,21.79,0,0,0-9.72-.78C266.7,170,242.88,173.86,219,177.62c-25.05,3.94-50.13,7.75-75.19,11.63-18.86,2.92-37.76,5.67-56.48,9.41-1.15.23-2.94,0-3.15,1.29-.24,1.5,1.5,2.06,2.7,2.63a443.21,443.21,0,0,1,51.51,29.76C141.46,234.35,144.89,235.12,149,235.68Zm18.81,32.49c-.43,2.87.29,6.17.73,9.46a87.4,87.4,0,0,0,12,33.42c2.61,4.38,5.94,4.86,10.35,2.06a49.38,49.38,0,0,0,8-6.24c6.87-6.67,11.45-14.95,16.62-22.8,2.41-3.66,5.74-6.93,6.34-11.54a34.22,34.22,0,0,1,4.28-12.43c2-3.63,3.88-7.37,5.76-11.08.65-1.29,1.78-2.85.78-4.07s-2.86-.63-4.3-.38q-24.33,4.36-48.64,8.82c-2,.36-3.71,1.06-3.72,3.5,0,2.6-1.79,3.4-3.86,2.78-4.09-1.21-4.17,1.35-4.33,4C167.75,265,167.82,266.33,167.82,268.16Zm2.34,38a10.42,10.42,0,0,0-.18-1.5c-3.53-13.7-6.94-27.44-10.69-41.08-1.51-5.5-2.28-5.8-8.2-5.37-8.58.62-17.15,1.55-25.61-.83-7.15-2-7.14-2-10.11,4.53-.17.37-.35.73-.52,1.09-2.61,5.39-2.28,6.48,3,9.65A296.14,296.14,0,0,1,145.16,291c7.09,5.44,14.09,11,21.16,16.47.82.64,1.74,1.5,2.92,1.15S170,307.11,170.16,306.14Zm126.45-74.26a20.77,20.77,0,0,0,2.26,1.72q23.75,11.25,47.52,22.45c2.6,1.22,4.41,0,5.86-2.12,2.44-3.54,4.78-7.15,7.43-10.54,2-2.6,2.15-5,.47-7.73-2.44-4-4.87-8-7-12.21-1.81-3.5-4.41-4.37-8.09-3.43q-14.83,3.8-29.69,7.46C309.46,228.93,303.53,230.26,296.61,231.88Zm84.48-18c0-2.67-1.41-1.85-2.52-1.58-5.8,1.38-11.6,2.79-17.4,4.17-2.65.63-3.61,2.07-2.67,4.7,1.53,4.26,3,8.57,4.44,12.85.43,1.23.51,2.9,2.06,3.19,1.81.33,2.52-1.38,3.28-2.55,3.8-5.83,7.52-11.71,11.22-17.6A31.56,31.56,0,0,0,381.09,213.86Zm-14.88,49.87c3.28.08,4.92-1.6,4-4.17a50.82,50.82,0,0,0-5.94-11.81c-1.32-1.95-3-2.22-4.55,0-1.71,2.41-3.52,4.75-5.13,7.21-1.17,1.78-1.15,3.84.83,4.91A49.07,49.07,0,0,0,366.21,263.73Zm-261-12.05c-1.85,0-3.17.68-3,2.8.14,2.41,4.23,7.87,5.62,7.27,2.36-1,3.54-3.33,4-5.65C112.19,254.23,108.08,251.66,105.25,251.68Z"/><path class="cls-3" d="M149,235.68c-4.12-.56-7.55-1.33-10.58-3.34a443.21,443.21,0,0,0-51.51-29.76c-1.2-.58-2.94-1.14-2.7-2.63.21-1.32,2-1.06,3.15-1.29,18.72-3.74,37.61-6.49,56.48-9.41,25.06-3.88,50.14-7.68,75.19-11.63,23.84-3.75,47.66-7.65,71.49-11.47a21.79,21.79,0,0,1,9.72.78c21.83,6.47,43.6,13.13,65.15,20.45,1.5.51,4.21.23,4,2.52-.2,2.07-2.81,1.86-4.41,2.16-30.84,5.72-61.39,12.79-92.16,18.87q-57.18,11.3-114.38,22.56C155.1,234.14,151.81,235,149,235.68Z"/><path class="cls-1" d="M167.82,268.16c0-1.84-.07-3.18,0-4.51.16-2.61.23-5.17,4.33-4,2.07.61,3.85-.19,3.86-2.78,0-2.44,1.73-3.14,3.72-3.5q24.31-4.44,48.64-8.82c1.44-.26,3.33-.81,4.3.38s-.13,2.78-.78,4.07c-1.88,3.71-3.73,7.45-5.76,11.08a34.22,34.22,0,0,0-4.28,12.43c-.59,4.61-3.93,7.88-6.34,11.54-5.17,7.85-9.74,16.13-16.62,22.8a49.38,49.38,0,0,1-8,6.24c-4.41,2.8-7.74,2.32-10.35-2.06a87.4,87.4,0,0,1-12-33.42C168.11,274.33,167.39,271,167.82,268.16Z"/><path class="cls-1" d="M170.16,306.14c-.12,1,.31,2.14-.92,2.5s-2.1-.52-2.92-1.15c-7.07-5.47-14.07-11-21.16-16.47a296.14,296.14,0,0,0-27.35-18.39c-5.25-3.17-5.59-4.26-3-9.65.18-.36.36-.72.52-1.09,3-6.57,3-6.54,10.11-4.53,8.46,2.37,17,1.44,25.61.83,5.92-.43,6.69-.13,8.2,5.37,3.75,13.65,7.16,27.38,10.69,41.08A10.42,10.42,0,0,1,170.16,306.14Z"/><path class="cls-1" d="M296.61,231.88c6.92-1.62,12.85-2.95,18.75-4.4Q330.22,223.82,345,220c3.68-.94,6.29-.07,8.09,3.43,2.15,4.17,4.57,8.2,7,12.21,1.68,2.75,1.56,5.13-.47,7.73-2.65,3.39-5,7-7.43,10.54-1.45,2.11-3.26,3.35-5.86,2.12q-23.78-11.18-47.52-22.45A20.77,20.77,0,0,1,296.61,231.88Z"/><path class="cls-1" d="M381.09,213.86A31.56,31.56,0,0,1,379.5,217c-3.7,5.89-7.42,11.77-11.22,17.6-.76,1.17-1.47,2.88-3.28,2.55-1.55-.28-1.63-2-2.06-3.19-1.48-4.28-2.91-8.58-4.44-12.85-.94-2.63,0-4.07,2.67-4.7,5.8-1.38,11.6-2.78,17.4-4.17C379.68,212,381.07,211.19,381.09,213.86Z"/><path class="cls-1" d="M366.21,263.73a49.07,49.07,0,0,1-10.77-3.9c-2-1.07-2-3.13-.83-4.91,1.62-2.46,3.42-4.81,5.13-7.21,1.55-2.18,3.23-1.9,4.55,0a50.82,50.82,0,0,1,5.94,11.81C371.13,262.13,369.49,263.81,366.21,263.73Z"/><path class="cls-1" d="M105.25,251.68c2.83,0,6.95,2.55,6.58,4.42-.46,2.33-1.64,4.65-4,5.65-1.39.59-5.48-4.86-5.62-7.27C102.08,252.36,103.4,251.73,105.25,251.68Z"/><circle class="cls-4" cx="223.5" cy="223.5" r="220"/></g></g></svg>