<svg xmlns="http://www.w3.org/2000/svg" viewBox="0 0 452.7 447"><defs><style>.cls-1{fill:none;stroke:#9ea8b7;stroke-width:7px;}.cls-1,.cls-5{stroke-miterlimit:10;}.cls-2{fill:#9ea8b7;}.cls-3{fill:#fdfdfd;}.cls-4{fill:#949494;}.cls-5{fill:#5c96f5;stroke:#fff;stroke-width:4px;}</style></defs><title>Asset 42</title><g id="Layer_2" data-name="Layer 2"><g id="peanut"><circle class="cls-1" cx="223.5" cy="223.5" r="220"/><path class="cls-2" d="M415.5,223.68c0,105.38-86.12,190.86-192.18,190.82S31.37,328.74,31.5,222.91c.13-105.3,86.35-190.54,192.59-190.41C329.73,32.63,415.54,118.34,415.5,223.68Zm-14.84-5.94.31-1.55a46.46,46.46,0,0,0,2-16.43c0-1.7-3-1.78-4.49-2.06q-121.2-22.29-242.42-44.43a10.63,10.63,0,0,0-5.2.28q-51.71,15.53-103.44,31c-.8.24-2.57.72-2,1.58l2.11,7.27L48,195c-.16,5.08,2,9.77,2.61,14.72.2,1.52,1.61,2,2.91,2.54q45.22,19.08,90.42,38.21c34.28,14.5,68.51,29.1,102.85,43.47,18.23,7.63,36.18,15.93,54.76,22.75,3.87,1.42,6.51.44,9.21-2q23.15-21.25,46.34-42.45c11.65-10.63,23.41-21.16,35-31.82,2.38-2.19,5.94-3.91,6.6-7C399.78,228.25,401.12,223.07,400.66,217.73Z"/><path class="cls-3" d="M45.42,187.78c-.28-1.71,1.23-1.34,2-1.58q51.71-15.54,103.44-31a10.63,10.63,0,0,1,5.2-.28q121.21,22.23,242.42,44.43c1.51.28,4-.64,4.49,2.06-.89.6-1.85,1.12-2.67,1.8q-42.92,35.21-85.78,70.5a5.2,5.2,0,0,1-5.79,1.07c-23.65-7.93-47.35-15.71-71-23.53q-50.5-16.68-101-33.37Q91.08,202.79,45.42,187.78Z"/><path class="cls-4" d="M44.88,187c30.53,10,60.79,20,91.32,30.07q50.68,16.66,101.34,33.37c23.76,7.82,47.54,15.6,71.27,23.53a5.23,5.23,0,0,0,5.81-1.07q43-35.34,86.06-70.5c.83-.68,2.23-1.23,3.13-1.82.2,3.89.61,7.67-2.15,16.46-1.13-.25-3,1.24-4,3.28,1.56-.79,3-1,3.87-1.5.46,5.33-1.36,10.29-2.45,15.38-.66,3.1-4.23,4.83-6.62,7C380.77,251.83,369,262.36,357.28,273q-23.29,21.18-46.5,42.45c-2.71,2.48-5.36,3.46-9.24,2-18.64-6.82-36.65-15.12-54.94-22.75-34.45-14.36-68.8-29-103.19-43.47q-45.36-19.12-90.72-38.21c-1.31-.55-2.72-1-2.92-2.54-.66-4.95-2.78-9.64-2.62-14.72,11.72,4.13,23.46,8.18,35.14,12.39Q143,230.12,203.74,252.14q52,18.83,104.09,37.67c2.75,1,5,1.43,6-2.14.3,0,.84.19.46-.47l-.4.53c-2.3,1.64-4.5,1.44-7.18.47Q218,256,129.28,224c-27.51-9.94-54.69-19.72-82.21-29.65C46.36,191.94,45.59,189.39,44.88,187ZM346,261.72c-1.3.34-2.41.88-2.45,2.45-.31,0-.84-.2-.47.47l.41-.53c1.32-.33,2.42-.87,2.45-2.45a1.31,1.31,0,0,0,1.67-.79c1.56-.63,3.09-1.29,3.26-3.27a1.26,1.26,0,0,0,1.67-.79c1.29-.35,2.41-.87,2.45-2.45.29,0,.82.2.46-.46l-.41.52c-1.32.33-2.42.87-2.45,2.46a1.29,1.29,0,0,0-1.67.79c-1.58.61-3.08,1.3-3.26,3.27A1.24,1.24,0,0,0,346,261.72Zm47.77-38.18a1.31,1.31,0,0,0-1.67.79m-3.27,3.27a1.25,1.25,0,0,0-1.67.79c-1.51.34-2.47,1.26-3.5,3.28,2-1.05,3.35-1.58,3.45-3.35a1.3,1.3,0,0,0,1.67-.79c1.58-.61,3.09-1.3,3.27-3.27a1.25,1.25,0,0,0,1.67-.79c1.3-.35,2.41-.87,2.45-2.45.31,0,.84.2.47-.47l-.41.54m-64.21,52c-1.35.3-2.44.85-2.45,2.45a1.27,1.27,0,0,0-1.67.79,3.68,3.68,0,0,0-2.87,2.78c1.19-.72,2.87-1,2.82-2.85a1.27,1.27,0,0,0,1.67-.79c1.29-.36,2.37-.92,2.45-2.45.3,0,.87.19.46-.49Zm32.11-26c-1.32.33-2.45.84-2.45,2.45a1.28,1.28,0,0,0-1.67.79c-1.47.44-2.52,1.29-3.71,3.58,2.2-1.38,3.66-1.87,3.66-3.64a1.27,1.27,0,0,0,1.67-.79c1.3-.34,2.4-.89,2.45-2.45.29,0,.84.19.46-.47Zm-41.16,33.32c-1.33.32-2.45.84-2.45,2.45a1.28,1.28,0,0,0-1.67.79c-1.49.44-2.52,1.29-3.72,3.58,2.21-1.37,3.65-1.88,3.67-3.65a1.27,1.27,0,0,0,1.67-.79c1.29-.36,2.39-.89,2.45-2.45.3,0,.85.19.46-.48Zm56.77-45.57c1.46-.45,2.53-1.27,3.66-3.55-2.15,1.36-3.61,1.84-3.61,3.62a1.25,1.25,0,0,0-1.67.79c-1.5.36-2.47,1.26-3.5,3.3,2-1.08,3.37-1.58,3.44-3.37A1.27,1.27,0,0,0,379.68,234.85Zm-9.05,7.32a3.65,3.65,0,0,0,2.85-2.77c-1.16.74-2.88,1-2.8,2.84A1.27,1.27,0,0,0,369,243a3.64,3.64,0,0,0-2.85,2.77c1.17-.73,2.86-1,2.79-2.83A1.28,1.28,0,0,0,370.62,242.17ZM336.89,269c-1.49.42-2.54,1.26-3.68,3.51,2.15-1.33,3.58-1.83,3.62-3.58a1.3,1.3,0,0,0,1.67-.79c1.48-.45,2.54-1.29,3.72-3.6-2.2,1.4-3.66,1.9-3.66,3.67A1.26,1.26,0,0,0,336.89,269Z"/><path class="cls-3" d="M47.77,194.61c27.43,9.92,54.86,19.46,82.28,29.4q88.42,32.05,176.81,64.19c2.67,1,4.86,1.17,7.15-.47l-.06-.06c-.94,3.58-3.2,3.14-5.95,2.14q-51.85-18.88-103.74-37.67-60.52-22-121-43.95c-11.64-4.22-23.35-8.27-35-12.39C48.05,195.28,47.91,195.13,47.77,194.61Z"/><path class="cls-3" d="M397.28,221.09c1-2-83.5,67.46,3.7-3.29"/><path class="cls-3" d="M338.36,269l.06.07c0-1.78,1.46-2.27,3.65-3.67"/><path class="cls-3" d="M347.38,261.68l.06.07c.18-2,1.68-2.66,3.25-3.27l-.06-.07"/><path class="cls-3" d="M333.08,273.37c1.13-2.25,2.18-3.09,3.66-3.51l-.06-.07"/><path class="cls-3" d="M368.69,243.77c.06,1.83-1.61,2.11-2.78,2.83a3.64,3.64,0,0,1,2.84-2.77Z"/><path class="cls-3" d="M324.86,279.94a3.68,3.68,0,0,1,2.86-2.78l-.06-.07"/><path class="cls-3" d="M370.41,243.05c-.08-1.85,1.63-2.1,2.79-2.84a3.64,3.64,0,0,1-2.84,2.77Z"/><path class="cls-3" d="M377.72,236.46c-.08,1.79-1.46,2.29-3.43,3.37,1-2,2-2.94,3.49-3.3Z"/><path class="cls-3" d="M379.44,235.74c0-1.78,1.45-2.26,3.59-3.62-1.13,2.28-2.19,3.1-3.65,3.55Z"/><path class="cls-3" d="M386.74,229.15c-.1,1.77-1.45,2.3-3.44,3.35,1-2,2-2.94,3.49-3.28Z"/><path class="cls-3" d="M391.66,225.08c-.18,2-1.68,2.66-3.25,3.27l.06.07c.17-2,1.69-2.65,3.25-3.27Z"/><path class="cls-3" d="M315,288.06c1.2-2.29,2.23-3.14,3.71-3.58l-.06-.07"/><path class="cls-3" d="M320.31,283.62l.05.07c0-1.61,1.12-2.13,2.44-2.45l-.06-.06"/><path class="cls-3" d="M361.33,250.3l.06.07c0-1.62,1.13-2.12,2.44-2.46l-.06-.06"/><path class="cls-3" d="M329.33,276.31l.05.07c0-1.61,1.09-2.16,2.44-2.46l-.06-.06"/><path class="cls-3" d="M352.31,257.61l.06.07c0-1.59,1.12-2.13,2.44-2.46l-.06-.06"/><path class="cls-3" d="M393.39,224.36c0-1.6,1.13-2.12,2.44-2.45l-.06-.06c0,1.58-1.15,2.1-2.44,2.45Z"/><path class="cls-3" d="M343.27,264.92l.06.06c0-1.57,1.14-2.11,2.44-2.45l-.05-.07"/><path class="cls-3" d="M318.69,284.48a1.27,1.27,0,0,1,1.67-.79l-.05-.07a1.26,1.26,0,0,1-1.67.79Z"/><path class="cls-3" d="M329.33,276.31a1.27,1.27,0,0,1-1.67.79l.06.07a1.26,1.26,0,0,1,1.67-.79Z"/><path class="cls-3" d="M338.36,269a1.29,1.29,0,0,1-1.67.79l.05.07a1.26,1.26,0,0,1,1.67-.79Z"/><path class="cls-3" d="M345.77,262.54a1.24,1.24,0,0,1,1.67-.79l-.06-.07a1.3,1.3,0,0,1-1.67.79Z"/><path class="cls-3" d="M350.69,258.47a1.29,1.29,0,0,1,1.67-.79l-.06-.07a1.26,1.26,0,0,1-1.67.79Z"/><path class="cls-3" d="M361.33,250.3a1.27,1.27,0,0,1-1.67.79l.06.07a1.28,1.28,0,0,1,1.67-.79Z"/><path class="cls-3" d="M368.74,243.84a1.27,1.27,0,0,1,1.67-.79l-.06-.07a1.28,1.28,0,0,1-1.67.79Z"/><path class="cls-3" d="M379.38,235.67a1.27,1.27,0,0,1-1.67.79l.06.07a1.25,1.25,0,0,1,1.67-.79Z"/><path class="cls-3" d="M388.41,228.35a1.29,1.29,0,0,1-1.67.79l.06.07a1.24,1.24,0,0,1,1.67-.79Z"/><path class="cls-3" d="M391.72,225.15a1.3,1.3,0,0,1,1.67-.79l-.05-.07a1.24,1.24,0,0,1-1.67.79Z"/><path class="cls-3" d="M343.27,264.92l-.41.53c-.37-.67.16-.46.47-.47Z"/><path class="cls-3" d="M354.8,255.22l.4-.52c.36.66-.17.44-.46.46Z"/><path class="cls-3" d="M331.83,273.92l.4-.55c.41.68-.16.46-.46.49Z"/><path class="cls-3" d="M363.83,247.91l.4-.53c.38.66-.17.44-.46.47Z"/><path class="cls-3" d="M322.8,281.23l.4-.54c.39.67-.16.45-.46.48Z"/><path class="cls-3" d="M313.78,288.55l.4-.53c.37.66-.16.45-.46.47Z"/><path class="cls-3" d="M395.83,221.9l.41-.54c.37.67-.16.47-.47.47Z"/><path class="cls-5" d="M309.49,59.07h52.59V6.33h35.74V59.07H450.7V94.81H397.82v52.44H362.08V94.81H309.49Z"/></g></g></svg>