<svg xmlns="http://www.w3.org/2000/svg" viewBox="0 0 447 447"><defs><style>.cls-1{fill:#9ea8b7;}.cls-2{fill:#979797;}.cls-3{fill:#fefefe;}.cls-4{fill:none;stroke:#9ea8b7;stroke-miterlimit:10;stroke-width:7px;}</style></defs><title>Asset 37</title><g id="Layer_2" data-name="Layer 2"><g id="peanut"><path class="cls-1" d="M414.17,223.82c-.07,104.25-85.6,188.75-191,188.68S32.66,327.56,32.83,222.77C33,118.61,118.68,34.34,224.24,34.5,329.12,34.66,414.24,119.52,414.17,223.82Zm-123,95.32c.31.8.95.89,1.69.76a1.6,1.6,0,0,0,.69.19c.09.25.12.64.29.71q14.66,6.62,29.36,13.17c1.28.57,2.17.32,1.74-1.38-.19-3.66.54-7.35-.34-11,.69-.94,1.12-1.88,0-2.81.86-3.5.53-7,.24-10.55a6.63,6.63,0,0,0,.26-3.71l-.28-10a7,7,0,0,0,.26-3.73c-.12-3.31.39-6.64-.31-9.93a6.8,6.8,0,0,0,.31-3.74l-.05-9.25c.12-1.3.59-2.65-.44-3.82a28,28,0,0,0,.06-10.87,3.84,3.84,0,0,0,.45-3.39l-.17-10,.15-3.67-.18-10,.17-3.7-.2-9.94a7.15,7.15,0,0,0,.2-3.73l-.22-9.93a6.93,6.93,0,0,0,.24-3.73l-.26-9.93a4.7,4.7,0,0,0,.11-3,47.25,47.25,0,0,0-.14-10.64,4.65,4.65,0,0,0,.19-3c.76-2.62-.36-3.84-3-4.42-5.37-1.2-10.69-2.62-16-4l-2.75-.9L279,152.88l-2.76-.76c-7.49-2.14-14.9-4.58-22.64-5.77-.59-.95-1.56-.83-2.48-.85A194.75,194.75,0,0,0,230,139.89a2.85,2.85,0,0,0-2.57-.7c-6.69-1.81-13.28-4.06-20.22-4.82a2.53,2.53,0,0,0-2.52-.9l-18.48-4.64-1.88-.21a113.85,113.85,0,0,0-18.59-4.76l-1.66-.15c-5.21-2.37-10.89-3-16.36-4.44l-2.44-.35c-.77-.94-1.94-.74-2.94-1-5.43-1.47-5.43-1.47-5,4.07-.1.74-.18,1.48.74,1.8l-.1,8.81c-1,.62-.93,1.56-.72,2.53l0,7.79.17,2.81,0,7.54-.24,2.73.16,7.78-.19,3.46c.13,2.57-.39,5.17.32,7.72l-.34,2.71.17,7.85-.14,2.65.15,7.8-.22,3.39c.15,2.59-.36,5.21.41,7.76l-.36,2.74c.12,2.56-.5,5.16.42,7.68l-.44,2.75.23,7.83-.16,2.69c0,2.82-.49,5.67.35,8.46l-.28,2.06a33.18,33.18,0,0,0,.13,8.47c-.83,2.38.93,3,2.57,3.68,12,5.25,23.89,10.56,35.86,15.78,7.64,3.33,15.32,6.56,23,9.83-2,7.74-4,15.5-6.19,23.21-.71,2.51-.14,3.8,2.32,4.86,5.57,2.39,11,5.15,16.52,7.63,14,6.27,28.09,12.46,42.14,18.69a1,1,0,0,0,1.69.3c5.39-4.27,11.55-7.93,11.93-15.94a12.5,12.5,0,0,1,1.6-6.1c1.74-2.63,4,1.31,6.06.17l2.25,1a25.29,25.29,0,0,0,12.37,5.45h0a1.28,1.28,0,0,0,1.65.79Zm53.33-162.94c.38-.52.59-1.09.09-1.61s-.87-.26-1.24.14a38.79,38.79,0,0,0-13.79,11c-.68.1-1.5.25-1.48,1,.22,6.3-.82,12.64.62,18.9l-.09,8.85a6.16,6.16,0,0,0,.43,3.5c-.75,3.33-.32,6.7-.32,10.06l.32,2.83c-.87,3.36-.32,6.76-.37,10.15-1.14,1.15,0,1.89.5,2.75-1.18,3.32-.3,6.75-.58,10.12a36.57,36.57,0,0,0-.86,6.45c.13,3.36-1.2,7,1.54,10-1.31,3.54-.49,7.18-.56,10.78-.48,5.19-1.62,10.38.08,15.56L328.62,287c-1.11,1.32.26,2.35.42,3.52l-.33,10.06a26.26,26.26,0,0,0-.57,4.25c.1,4.11-1.29,8.37,1.08,12.29-1.09,3.59-.67,7.23-.31,10.86-1.5,1.43-.29,2.32.66,3.26.18.93,1,.89,1.54.71,4.9-1.66,8.56-5.38,13-7.74.93-.48.79-1.58.62-2.51a58.67,58.67,0,0,0,.62-6.64c0-3.33,1.16-6.85-1.14-9.94,1.3-3.56.37-7.25.63-10.87a3.52,3.52,0,0,0-.64-3.24l.4-10.23.16-4.32,0-9.56c1.15-1.19-.07-1.92-.56-2.79,1.14-3.55.39-7.19.54-10.79l-.06-3.44.08-9.52c1.23-1.29-.2-2.33-.33-3.49.84-3.37.22-6.79.4-10.19a80.6,80.6,0,0,0,.05-8.89c-.25-2.53,1.47-5.28-.78-7.59,1.45-3.52.48-7.19.66-10.79a36.68,36.68,0,0,0,.49-4.66c-.06-3.72,1.32-7.61-1.14-11.09,1.36-3.51.58-7.13.55-10.7a2.62,2.62,0,0,0-.62-2.57l.48-10.22a3.28,3.28,0,0,0-.5-3Zm-202.8-43c1.46.51,1.95.72,2.45.85L253.86,142q35,8.9,70,17.82c1.91.48,3.78,1.19,5.72-.43,4.23-3.55,8.66-6.87,13-10.33,1.08-.87,2.85-1.5,2.2-3.41-.52-1.53-2.06-1.49-3.36-1.79L288,131.44q-62.44-14.5-124.87-29c-1.49-.35-2.92-.64-4.32.22Z"/><path class="cls-2" d="M324.93,182.2a4.7,4.7,0,0,1-.11,3c-5-1.26-10-2.54-14.94-3.78-1.43-.35-3.07-1.76-4.18.41-1.36,2.67-.82,8.46,1,8.87,6.15,1.39,11.92,4.34,18.39,4.43a6.94,6.94,0,0,1-.24,3.73c-1.86.29-3.91-2.5-5.49-.13-2.95,4.41.33,10,5.72,10.07a7.15,7.15,0,0,1-.2,3.73l-17.37-5.22c-.88-.27-1.75-.94-2.69-.32-1.22.8-.91,9.34.49,9.75,6.58,1.95,12.82,5.06,19.78,5.74l-.17,3.7c-1.53-.54-3.05-1.11-4.59-1.61-.78-.25-1.92-.44-2,.59-.22,2.92-.95,6.14,0,8.69.85,2.28,4.08,2.64,6.76,2.31l-.15,3.67c-6.38-2.14-12.76-4.27-19.14-6.45-1.41-.48-2.18-.38-2.52,1.35-1.3,6.71-.38,8.42,6.06,10.59,2.68.91,5.31,2,8,2.7,2.55.68,4.83,2.55,7.72,1.81a3.84,3.84,0,0,1-.45,3.39c-1.79-.57-3.6-1.07-5.36-1.72-1.23-.45-1.89-.48-2.23,1.1-1.63,7.52-1,8.71,6.37,11.11l1.15.37c1,1.17.56,2.52.44,3.82-5.76-3-12-4.85-18.07-7.12-4.31-1.61-4.12-1.49-5,3.16-.77,4.28.35,6.76,4.89,7.8a48.85,48.85,0,0,1,10.84,3.85c2.28,1.13,4.68,2.06,7.35,1.56a6.8,6.8,0,0,1-.31,3.74c-2.22-.82-4.44-1.66-6.67-2.46a1.78,1.78,0,0,0-1.89,0c-1,.85-.62,9.29.6,9.73,2.71,1,5.14,2.92,8.28,2.61a7,7,0,0,1-.26,3.73q-10.16-4.07-20.33-8.13c-1-.41-2.13-1.56-3.18,0-1.89,2.83.17,9.28,3.39,10.59,5.13,2.1,10.24,4.23,15.4,6.27,1.59.63,3.09,1.79,5,1.22a6.63,6.63,0,0,1-.26,3.71c-2.49-1-5-2.05-7.48-3.13-1.73-.76-2.34-.3-2.57,1.59-.93,7.68-.83,8,6.36,10.93,1.12.46,2.3.78,3.45,1.16,1.12.94.69,1.88,0,2.81-7-2.87-13.92-5.78-20.91-8.59-1-.4-2.11-1.6-3.29-.47s-.29,9.4,1.22,10.06c7.75,3.39,15.24,7.37,23.32,10,.43,1.7-.46,1.95-1.74,1.38q-14.7-6.54-29.36-13.17c-.17-.08-.19-.47-.29-.71.81-1.26,2.06.37,2.94-.43,1.32-1.18.37-9.49-1.33-10.26-6.39-2.9-12.83-5.7-19.27-8.48-1.15-.5-2.61-.84-2.66,1.09-.09,3.38-1.07,6.95,1.67,9.87-2.1,1.14-4.32-2.8-6.06-.17a12.5,12.5,0,0,0-1.6,6.1c-.38,8-6.54,11.67-11.93,15.94a1,1,0,0,1-1.69-.3c.14-.92.2-1.86.43-2.76q13.74-54.26,27.59-108.49c.74-2.89.26-4.07-2.62-4.88-5.6-1.57-11.12-3.42-16.66-5.18-13.59-4.33-27.17-8.68-41.68-13.31l8.42-2.36a53.18,53.18,0,0,0-11.3-4.36,1.66,1.66,0,0,0-1.34.57c-1.18,1.45-.15,7.55,1.5,8.58.87.55,1.82,1,1.18,2.1s-1.69.37-2.55.09c-3.09-1-6.19-2-9.25-3.05-1.81-.64-2.35,0-2.56,1.76-.7,6.06-.46,6.52,5.57,8.55s5.92,2,4.72,8c-1.42,7.06-1.43,7.1-8.51,5.16-2-.55-2.6,0-2.68,2-.15,3.63-.39,7.07,4.62,7.72.76.1,2.56.14,2.12,1.78s-1.87,1.09-3,.68c-3.94-1.42-7.87-2.89-11.81-4.31-.72-.26-1.78-1.19-2.18-.46-1.14,2.07-.41,4.44-.58,6.69-.11,1.4.59,2,2,2.39,3.74,1.14,7.38,2.65,11,4,.91.34,1.88.84,1.65,2-.27,1.32-1.22,1.11-2.21.67-1.8-.8-2.64,0-2.48,1.76.21,2.29-1.14,4.84,1.09,6.83a1.35,1.35,0,0,1,.39,1.79c-.6.93-1.46.35-2.15.08-2.51-1-5-2.1-7.49-3.12-.85-.35-1.74-.85-2.46.31-1.63,2.64.23,7.93,3.26,9.2,7.26,3,7.31,3.13,4.34,10.61a23.47,23.47,0,0,1-1.08,2.1c.22-2,.43-4,.67-5.94a3,3,0,0,0-2-3.51c-4.71-2-9.41-4-14.12-6-.68-.28-1.41-.94-2.15-.09s-.35,7.92.66,8.33c5.7,2.3,10.88,5.81,17,7.14l-.24,2.56c-7.66-3.27-15.35-6.5-23-9.83-12-5.22-23.9-10.53-35.86-15.78-1.64-.72-3.4-1.3-2.57-3.68.9,0,1.68,1.32,2.59.4,1.74-1.77-.19-7.91-2.73-8.87l.28-2.06,9.34,3.82c.86.35,1.77.92,2.67.28,1.14-.81.62-7.45-.76-8.07-3.78-1.69-7.36-3.93-11.6-4.49l.16-2.69c1.21-.07,2.37,1.89,3.54.3,2-2.71-.39-7.74-3.77-8.13l.44-2.75c3,1.13,6,2.41,9,3.3,1.26.36,3.36,2.5,4,.1.55-2.12,1.83-5.42-1-6.87-3.87-2-7.87-4-12.4-4.21l.36-2.74c1.44-.68,3,2.11,4.25,0,2.12-3.66-.35-7.64-4.65-7.78l.22-3.39c3.24,1.25,6.42,2.72,9.75,3.63,1.29.36,3.57,2.81,4.25,0,.55-2.25,1.86-5.82-1.22-7.18-4.12-1.83-8.31-3.78-12.94-4.25l.14-2.65c1.76-.37,3.84,2.84,5.23-.07,2.12-4.45-.25-7.66-5.4-7.79l.34-2.71c3.58,1.12,7.12,2.4,10.76,3.29,1.26.31,3.46,2.41,4,0s2-6-.9-7.25c-4.43-1.9-9-4-14.16-3.76l.19-3.46a20.6,20.6,0,0,1,2.62.92c2.95,1.49,3.64.33,3.62-2.55,0-5-.13-5.18-6.41-6.15l.24-2.73c4,1.16,8,2.33,12,3.48,1.3.37,3.33,1.72,3.65-.33s2-5.67-1-6.78c-4.69-1.77-9.45-3.76-14.64-3.91l-.17-2.81a14,14,0,0,1,3.17.55c2.83,1.2,3.94.46,4-2.65,0-4.91-.61-5.52-7.18-5.7-.21-1-.32-1.91.72-2.53,4,1.05,7.9,2.26,11.92,3.08,1.51.31,4.19,1.49,4.17-1.8,0-2.61,1.65-6-3.1-6.81-4.36-.78-8.6-2.16-12.89-3.28-.93-.33-.85-1.06-.74-1.8a10.7,10.7,0,0,1,3.1.3c3.54,1.46,5.23.57,4.86-3.36l2.44.35c-.87,3.58.41,5.5,4.25,6a43.72,43.72,0,0,1,7.44,1.78c4.36,1.34,4.34,1.4,4.66-3.31l1.66.15c-.57,4.08,1.07,6.09,5.4,6.36a25.3,25.3,0,0,1,8.17,1.86c4,1.69,5.34.52,5-3.46l1.88.21c-1,4.29,1.29,5.75,5.19,6.31a86,86,0,0,1,8.64,2.16c4.75,1.2,4.75,1.19,4.66-3.83a2.53,2.53,0,0,1,2.52.9c-.49,3.7,1,5.51,4.91,6,3.58.46,7,1.74,10.58,2.61,4.64,1.13,4.65,1.11,4.74-3.8a2.85,2.85,0,0,1,2.57.7c-1,3.81.53,5.56,4.46,6.17a70.42,70.42,0,0,1,12.14,3c3.84,1.32,4.93.06,4.56-3.51.92,0,1.89-.1,2.48.85-.52,3.58,1.06,5.09,4.7,5.68A93.89,93.89,0,0,1,272,155.48c3.56,1.14,4.71.06,4.3-3.36l2.76.76c-.33,2.52-.34,4.58,3.07,5.28a176,176,0,0,1,17.18,4.32c3.57,1.11,4.44.06,3.93-3.19l2.75.9c.25,1.7-.67,3.87,2.12,4.49,5.64,1.24,11.25,2.59,16.88,3.89a4.66,4.66,0,0,1-.19,3c-3.29-1.45-5.08-.83-4.51,3.15a6.39,6.39,0,0,1-.21,1.57C319.48,181.18,319.71,181.46,324.93,182.2ZM188.62,227.56c3.19-.46,5.33.88,7.69,1.84,1.39.57,4.18,2.19,4.7-.47.46-2.36,2.19-5.93-1.4-7.5-4.82-2.11-9.89-3.65-14.83-5.49-1.21-.45-2-.21-1.82,1.07.46,2.9-2.27,7,3,8.17a1.14,1.14,0,0,1,.88,1.55c-.36,1-1.17,0-1.64.19-1.27.58-2.16.07-3.29-.49a71.49,71.49,0,0,0-7.15-2.86c-.66-.24-1.39-1-2.14,0s-.37,7.28.87,7.88c5.26,2.56,11,4.14,16.47,7.61C189.55,234.75,191.11,231.11,188.62,227.56Zm98.28,69.92c-.18,2.67-1.36,5,1.5,6.19,6.69,2.88,13.36,5.81,20,8.7.85.37,1.8.89,2.64.09,1.8-1.71.11-9.88-2.21-10.86-6.35-2.65-12.73-5.23-19-8-2-.88-3.07-.8-2.94,1.69C286.95,296.25,286.9,297.19,286.9,297.48Zm5-128.88c-.11,5-.12,5.07,4.93,6.4,5.21,1.38,10.54,2.41,15.63,4.11,3.55,1.19,4.53,0,4.56-3.16a15.79,15.79,0,0,1,.11-2.4c.47-2.87-.5-4.33-3.63-4.94-5.43-1.05-10.75-2.61-16.12-4S292,163.32,291.88,168.6Zm21.88,86c.17-2.7.6-4.92-2.49-5.93-6.66-2.17-13.24-4.6-19.85-6.93-.76-.27-1.54-.72-2.26,0-1.76,1.64-.1,9.57,2.27,10.45,5.92,2.21,12,4.09,17.8,6.51,3.49,1.45,4.6.47,4.53-2.9C313.75,255.25,313.76,254.72,313.76,254.63Zm-1.26,26.23c-.42-1.71,1.22-4.32-2.37-5.54-6.73-2.28-13.3-5-19.95-7.54-.69-.26-1.39-1-2.13-.07-1.6,1.92.29,9.35,2.66,10.3,5.52,2.2,11.05,4.35,16.58,6.53C312.39,286.55,312.39,286.55,312.5,280.87ZM315.75,201c1.27-3.76-1-5.18-5-6-4.88-1-9.6-2.82-14.41-4.21-5.11-1.48-4.79-1.4-5.51,3.84-.52,3.77.66,5.2,4.28,6,5.26,1.2,10.4,3,15.57,4.54C315.64,206.7,315.64,206.72,315.75,201Zm-1,26.26c1.18-3.57-1-5-4.52-5.94-4-1-8-2.44-12-3.7-6.94-2.19-5.35-2.11-7.12,4.14a4.08,4.08,0,0,1-.15.78c-1.27,2.37,0,3.24,2.13,3.92,6.18,1.93,12.34,3.93,18.45,6.08,2.3.81,3.34.49,3.18-2.07C314.69,229.55,314.73,228.62,314.73,227.27ZM302.44,184c-.33-1.79,1.23-4.44-2.3-5.31-6.28-1.55-12.5-3.33-18.75-5-1-.26-2.12-.71-3,.43-1.87,2.56,0,8.65,3,9.55,5.16,1.53,10.36,3,15.55,4.39S302.3,189.5,302.44,184Zm-1.38,25.6c-.2-1.3,1.85-3.73-1.64-4.72C292.92,203,286.49,201,280,199c-.79-.24-1.6-.6-2.31,0-1.71,1.36-.33,9.18,1.76,9.85,6.18,2,12.42,3.79,18.55,5.89,2.46.84,3.25.25,3-2.17C301,211.72,301.06,210.91,301.06,209.56Zm-12.14-42.64c.36-4.44.37-4.45-4-5.6-4.58-1.19-9.18-2.36-13.76-3.54-5.22-1.34-4.9-1.31-5.45,3.95-.42,4,1.12,5.45,4.79,6.18,4.24.83,8.37,2.2,12.56,3.28C288.46,172.58,288.47,172.56,288.93,166.92ZM275.68,283.5c0,1.14,0,2,1.63,2.6,4.47,1.49,8.8,3.36,13.19,5.08,2,.78,4.18,2.69,5.7,2.52,2.69-.31.88-3.87,2.3-5.72s.72-3.46-1.56-4.36c-4.38-1.74-8.72-3.58-13.09-5.33-6.75-2.71-7.08-2.51-8.11,4.75ZM288,193.13c0-5.18.9-4.29-4-5.81-5.29-1.63-10.63-3.08-15.95-4.62-.92-.27-1.86-.64-2.65.14-1.84,1.81-.12,8.63,2.43,9.44,5,1.58,10.09,3,15.12,4.58S287.84,198.43,288,193.13Zm-13-17.26c1.64-3.54-1.3-4.52-4.61-5.37-4.56-1.17-9.08-2.49-13.63-3.67-1.1-.29-2.37-1-3.41,0-1.94,2,0,8.67,2.74,9.45q7,2,13.95,4C274.88,181.63,274.89,181.62,275,175.87Zm-23,20.24c-1,3.15,1,4.51,4.21,5.38,5,1.33,9.83,3,14.74,4.56.87.27,1.81.89,2.67.11,1.86-1.69.11-9.08-2.36-9.84q-7.17-2.22-14.38-4.3C252.11,190.63,252.1,190.66,252,196.11Zm10.7-36.32c1.59-3.73-1.4-4.69-4.94-5.44-3.82-.81-7.59-1.86-11.37-2.84-4.92-1.27-4.71-1.26-5.12,3.71-.29,3.47.41,5.42,4.34,6,4.1.65,8.07,2.06,12.1,3.17C262.61,165.78,262.61,165.79,262.71,159.79Zm-13.32,33.45c.74-2.57-.67-4-3.45-4.81-5.16-1.44-10.29-3-15.43-4.54-.64-.19-1.28-.44-1.88.1-2,1.84-.64,8.58,2,9.43,4.42,1.42,8.89,2.7,13.32,4.08C249.17,199.13,249.18,199.13,249.39,193.25Zm-10.56-39.47c.12-4.19.12-4.19-4.13-5.26l-13.78-3.46c-.89-.22-1.81-.77-2.63.11-1.72,1.83-.14,8.47,2.28,9.16,4.28,1.23,8.61,2.28,12.91,3.42C238.68,159.13,238.68,159.13,238.82,153.78Zm11.46,15.34c.86-3-.84-4.4-4-5.11-4.21-.95-8.34-2.27-12.55-3.25-1.53-.35-3.68-2.38-4.6.69-1.44,4.86-.56,7.16,2.78,8.13,4.4,1.27,8.79,2.58,13.21,3.8C250.17,174.78,250.18,174.75,250.28,169.12Zm11.51,16.07c.08-4.43.08-4.42-4.27-5.6-4.67-1.27-9.33-2.58-14-3.83-.85-.23-1.76-1-2.62-.09-1.67,1.68-.08,8.47,2.22,9.2q6.73,2.14,13.52,4.08C261.68,190.38,261.7,190.34,261.79,185.18ZM217,173.25c-.91,3,.95,4.36,4,5.13,4.05,1,8,2.39,12.05,3.47,1.56.42,4,2.32,4.36-.93.32-2.62,2.71-6.24-2.16-7.62-4.4-1.24-8.83-2.43-13.17-3.87C217,167.77,217.08,167.67,217,173.25Zm9.63-10.63c.84-3-.78-4.34-4-5-4.47-1-8.85-2.34-13.27-3.54-.75-.2-1.84-.92-2.23-.17-1.1,2.07-.4,4.42-.57,6.65-.11,1.48.8,2.09,2.12,2.46q6.42,1.77,12.8,3.64C226.51,168.11,226.5,168.14,226.61,162.62Zm-21,19.31c-1.06,2.71.8,3.92,3.68,4.73,4,1.13,7.94,2.69,12,3.69,1.11.27,2.94,2.47,4-.34,1.34-3.69.5-7.47-1.88-8.2-4.25-1.29-8.55-2.44-12.79-3.77C205.73,176.5,205.75,176.44,205.65,181.93Zm7.23,36.68c.09-4.11.14-4.24-1.84-5-4.81-1.77-9.66-3.42-14.5-5.1-.73-.26-1.49-.69-2.22.08-2,2.1-.58,8,2.18,9.06,3.78,1.39,7.6,2.68,11.38,4.07C212.78,223.55,212.77,223.57,212.88,218.61Zm-18-28.45c-.13,1.61-1,3.35,1.63,4.12,4.81,1.4,9.5,3.16,14.25,4.76.87.29,1.81.81,2.62-.07,1.68-1.82,0-8.36-2.33-9.15-4.48-1.5-9-2.92-13.45-4.45-2-.68-2.81-.06-2.72,2C194.89,188.28,194.85,189.22,194.85,190.16Zm20.61-42.37c-.08-1.87.85-4-2.21-4.73-4.73-1.06-9.4-2.39-14.09-3.59-1-.26-2-.77-2.56.85-1.43,4.21.27,7.51,4.68,8.78,3,.86,5.92,1.75,8.89,2.56C215.31,153.06,215.32,153,215.46,147.79Zm-13.24,54.4c1.28-3.18-1.13-4.24-4.21-5.1-3.88-1.08-7.68-2.45-11.52-3.66-.73-.23-1.49-.81-2.28-.25-1.54,1.1-.34,8.29,1.56,9,3.78,1.39,7.61,2.66,11.41,4C202.11,207.87,202.11,207.88,202.23,202.19Zm97,60.79c.1-4.86.1-4.88-4.37-6.62-2.26-.88-4.55-1.66-6.82-2.51-4.61-1.73-4.36-1.66-5.87,3-1.17,3.61-.17,5.24,3.43,6.2a80.7,80.7,0,0,1,8.63,3.35C299.11,268.32,299.11,268.31,299.22,263Zm-84.6-91.91c1-2.89-.86-4.11-4-4.79s-5.91-1.77-8.87-2.65c-6.35-1.89-6.29-1.82-6.21,4.8,0,2.18,1.14,2.69,2.77,3.17,3.86,1.14,7.71,2.31,11.56,3.48C214.47,176.46,214.47,176.47,214.62,171.06ZM182,242.82c-1.19,3.05,1,4.34,4.06,5.4,3.81,1.31,7.47,3,11.22,4.53.79.32,1.66,1.1,2.52,0,1.87-2.3.46-8-2.33-9.05-3.73-1.47-7.54-2.73-11.25-4.26C182.08,237.76,182.12,237.67,182,242.82ZM204,156c1.46-3.17-1.14-4-4-4.7-3.4-.84-6.76-1.83-10.18-2.58-1.38-.3-3.69-2.29-4,.9-.22,2.52-2.49,6,2.09,7.28,3.74,1.06,7.47,2.16,11.23,3.16C203.83,161.34,203.84,161.31,204,156ZM175.6,138.66c-.77,2.92.7,4.4,4.07,4.87a56.7,56.7,0,0,1,7.75,2.08c6,1.75,5.95,1.76,6.48-4.22.21-2.37-.3-3.64-3-4.09-3.57-.59-7-1.75-10.56-2.64C176.05,133.59,175.77,133.81,175.6,138.66Zm27.46,40.77c.83-2.74-.54-4.2-3.58-4.92-3.64-.87-7.17-2.2-10.78-3.18-1.33-.36-3.68-2-3.82.55s-2.66,5.94,1.66,7.47c3.92,1.38,7.91,2.61,11.88,3.85C202.94,184.62,202.95,184.59,203.06,179.43Zm-13.73,76.71c-.2-1.7.86-3.92-1.84-5-4.63-1.82-9.21-3.75-13.8-5.66-1.34-.56-1.88-.21-2.17,1.24-1,5.08-.19,6.76,4.73,8.89,2.83,1.23,5.7,2.39,8.56,3.58C189.24,261,189.24,261,189.33,256.14Zm1.66-45.6c.87-3-.72-4.63-4.06-5.51-3.65-1-7.17-2.41-10.75-3.63-.86-.29-1.77-.92-2.64-.08-1.4,1.37-.19,7.67,1.72,8.43,3.76,1.49,7.58,2.82,11.38,4.2C190.93,215.51,190.93,215.5,191,210.54ZM178.8,263.09c.45-2.13.71-3.87-1.73-4.86-4.52-1.82-9-3.83-13.42-5.78-.61-.27-1.18-.7-1.84-.14-1.32,1.13-.62,7.89,1,8.66,4.53,2.12,9.13,4.08,13.69,6.14,1.56.7,2.31.28,2.29-1.43C178.79,264.75,178.8,263.82,178.8,263.09Zm13.82-98.19c.91-2.76-.32-4.14-3.38-4.78-3.55-.74-7-2-10.48-3-1.42-.38-3.66-1.41-3.93.85s-1.77,5.72,1.46,6.75c4.16,1.32,7.95,3.53,12.43,4.25C192.76,169.63,193.08,168.15,192.62,164.9Zm-.76,22.46c.87-2.4-.41-3.79-3.35-4.95-3.18-1.26-6.59-1.47-9.72-2.84-1.17-.51-3.19-2.54-4.33.26-1.42,3.5-.53,6.81,2,7.71,3.54,1.27,7.1,2.51,10.68,3.69C191.73,192.74,191.74,192.71,191.86,187.37Zm-10.12,7.42c.62-2.22-.77-3.39-3-4.09-3-.94-5.91-1.9-8.83-2.92-6.09-2.14-6.76-1.6-6.16,4.71.17,1.8,1.07,2.5,2.66,3,3.21,1,6.36,2.26,9.55,3.37C181.39,200.76,181.52,200.66,181.74,194.79Zm1.63-43.67c-.19-1.67.93-3.93-1.76-4.67-4.69-1.29-9.41-2.5-14.11-3.75-.66-.18-1.25-.37-1.77.35-1.55,2.14.33,7.37,2.87,8.38,3.41,1.36,7.06,1.88,10.47,3.1C182.8,155.88,183.82,154.64,183.36,151.12Zm-.79,21.65c.5-2.22-.5-3.59-3.14-4.23-3-.72-5.85-1.93-8.8-2.8-5.91-1.74-5.75-1.69-6.23,4.3-.18,2.3,1.08,2.81,2.61,3.3,3.45,1.11,7,2,10.42,3.12C182.24,177.95,182.39,177.87,182.57,172.76ZM163.18,213c-1.8,3,.64,3.77,2.88,4.62q5.85,2.22,11.72,4.39c.73.27,1.5.8,2.27.21,1.61-1.24.77-7.67-1.17-8.41-3.77-1.44-7.71-2.49-11.37-4.15S162.22,208.42,163.18,213Zm16.52,27.82c-.12-1.77.71-3.84-1.76-4.81-4.4-1.73-8.77-3.52-13.17-5.25-.69-.27-1.42-.93-2.2-.17-1.27,1.25,0,7.7,1.7,8.45,3.6,1.56,7.25,3,10.86,4.53C179.64,245.44,179.63,245.46,179.71,240.78ZM169.29,247c.48-2.42-.32-3.54-2.11-4.24-4-1.59-8-3.29-12-5-.75-.31-1.51-.79-2.27-.23-1.3,1-.47,7.85,1,8.51,4,1.73,8,3.3,11.9,5.09,2.25,1,3.29.68,3.2-1.92A14.86,14.86,0,0,1,169.29,247Zm-14.43-70c-1.26,3.1.86,4,3.69,4.76,3.38.9,6.64,2.2,10,3.31.85.29,1.73,1,2.62.14,2-1.8.65-7.78-1.89-8.64-3.17-1.06-6.37-2.06-9.55-3.1C155.14,172,155.14,172,154.86,177Zm18.77-40.72c0-1.37.48-3.16-1.78-3.71l-13.25-3.24c-.6-.15-1.15-.65-1.77.11-1.74,2.16.22,8,3,8.71s5.74,1.34,8.58,2.09C173.38,141.54,173.41,141.54,173.63,136.27Zm-18,18.52c-.24,2-.71,3.73,1.8,4.43,4,1.11,8,2.44,11.93,3.66,1.18.36,2.36.72,3.13-.75a5.58,5.58,0,0,0-3.66-7.89c-2.7-.8-5.38-1.7-8.06-2.56C156,150.14,156,150.14,155.66,154.8ZM153.29,220c.35,1.16-1.41,3,.93,4l13.53,5.36c.63.25,1.24.49,1.83-.15,1.74-1.9.51-7.45-1.93-8.42-3.25-1.3-6.59-2.39-9.78-3.82S152.32,214.95,153.29,220Zm17.84-17.75c.38-1.93-.6-3-2.58-3.66-2.95-.92-5.86-2-8.76-3-5.8-2.11-5.69-2.12-5.76,3.79,0,2.11.68,3.07,2.69,3.69,2.94.91,5.75,2.2,8.65,3.26C170.66,208.25,170.85,208.11,171.13,202.28Zm-12,52c-.46-1.25,1.07-3.39-1.58-4.46-4.25-1.7-8.41-3.63-12.61-5.44-.69-.3-1.4-.87-2,.19-1.39,2.33.28,7.62,2.79,8.74,3.07,1.37,6.13,2.77,9.21,4.12C159.06,259.3,159.06,259.29,159.13,254.32Zm2.47-65.62c.93-3-.94-4.15-3.83-4.87-2.35-.58-4.61-1.53-6.9-2.32-5.93-2-6-2-5.8,4.14a3.08,3.08,0,0,0,2.62,3.38c3.1.89,6.11,2.1,9.15,3.22C161.51,194,161.5,194,161.6,188.69Zm.84-22c.62-2.62-.6-3.95-3.64-4.58a97.81,97.81,0,0,1-10.34-3.23c-.78-.26-1.51-.57-2.16.26-1.56,2,.13,7.28,2.49,8.37,2.78,1.28,5.81,1.67,8.59,3.22C160.87,172.69,162.36,171.31,162.44,166.7Zm.83-21.31c-.24-1.49,1-3.6-2-4.29-4.17-1-8.26-2.27-12.4-3.38-.87-.23-1.88-.52-2.56.45-1.49,2.15.43,7.22,3.06,8,3.08.88,6.22,1.54,9.25,2.54C162.85,150.08,163.16,149.95,163.27,145.39ZM160,232.18c1-2.65-.79-4-3.58-4.91-2.55-.84-5-2-7.51-2.9-1.6-.55-3.71-2.32-4.77-1.2-1.38,1.47-.53,4.07-.55,6.18,0,1.34,1.17,1.62,2.17,2,3.35,1.39,6.73,2.73,10,4.21C159.93,237.43,159.91,237.48,160,232.18Zm.72-21.28c1-3.18-.76-4.44-3.69-5.16a67.61,67.61,0,0,1-7.21-2.52c-5.4-2-6.19-1.4-5.51,4.16a2.71,2.71,0,0,0,2.05,2.57c3.41,1.21,6.81,2.48,10.11,4S161.34,214.83,160.7,210.89Zm139.51,24.89c-.44-1.15,1-3.4-.9-4.38-2.86-1.46-6.1-3.22-9.15-2.71-2.07.35-1.4,4-2.3,6-1,2.25-.14,3.39,2.18,3.92a45.53,45.53,0,0,1,4.61,1.53C300.08,242,300.08,242,300.21,235.79Zm-16.31,59.44c1.64-4.55-2.58-5-5.65-6.4-2.29-1-3.75-1.31-4.43,2-1.21,5.89-1.47,5.84,4.12,8.24l.73.34c5.1,2.31,5.1,2.31,5.24-3.22C283.89,296.06,283.89,295.93,283.89,295.23Zm1.5-27.19c.34-1.3-.76-2.82-3.1-3.28-2.88-.57-2.25,1.94-2.73,3.4a26,26,0,0,0-.67,2.71c-.69,3.19,1.94,3.48,3.9,4,2.62.65,1.68-1.74,2.07-2.88A25.35,25.35,0,0,0,285.39,268Z"/><path class="cls-3" d="M198.84,279.1l.24-2.56-.07.07a23.44,23.44,0,0,0,1.08-2.1c3-7.48,2.92-7.58-4.34-10.61-3-1.26-4.89-6.55-3.26-9.2.72-1.16,1.61-.66,2.46-.31,2.5,1,5,2.11,7.49,3.12.69.27,1.55.85,2.15-.08a1.35,1.35,0,0,0-.39-1.79c-2.23-2-.87-4.54-1.09-6.83-.16-1.75.68-2.55,2.48-1.76,1,.44,1.94.65,2.21-.67.23-1.13-.74-1.63-1.65-2-3.67-1.38-7.3-2.88-11-4-1.45-.44-2.15-1-2-2.39.17-2.24-.56-4.62.58-6.69.4-.73,1.46.2,2.18.46,3.94,1.42,7.86,2.89,11.81,4.31,1.12.4,2.52,1.08,3-.68s-1.36-1.68-2.12-1.78c-5-.65-4.77-4.09-4.62-7.72.08-2,.67-2.55,2.68-2,7.08,1.94,7.09,1.9,8.51-5.16,1.2-6,1.2-6-4.72-8s-6.27-2.5-5.57-8.55c.21-1.79.75-2.39,2.56-1.76,3.06,1.08,6.16,2.06,9.25,3.05.86.28,1.91,1,2.55-.09s-.31-1.55-1.18-2.1c-1.66-1-2.69-7.13-1.5-8.58a1.66,1.66,0,0,1,1.34-.57,53.18,53.18,0,0,1,11.3,4.36l-8.42,2.36c14.51,4.63,28.09,9,41.68,13.31,5.54,1.77,11.06,3.62,16.66,5.18,2.87.8,3.36,2,2.62,4.88q-13.94,54.21-27.59,108.49c-.23.9-.29,1.84-.43,2.76-14-6.22-28.11-12.42-42.14-18.69-5.54-2.47-10.95-5.23-16.52-7.63-2.46-1.06-3-2.35-2.32-4.86C194.83,294.61,196.79,286.84,198.84,279.1Z"/><path class="cls-2" d="M141.71,113.25l17.13-10.61c1.4-.87,2.83-.57,4.32-.22q62.43,14.53,124.87,29l53.35,12.39c1.3.3,2.84.26,3.36,1.79.65,1.91-1.12,2.54-2.2,3.41-4.3,3.47-8.73,6.79-13,10.33-1.94,1.62-3.81.91-5.72.43q-35-8.88-70-17.82l-109.7-27.88C143.65,114,143.17,113.76,141.71,113.25Z"/><path class="cls-2" d="M344.75,249.91l.06,3.44c-3.78,1.36-6.05,4.88-9.61,6.55-4.79,2.25-6.29,6-5.71,11.07.3,2.65,1,2.72,2.82,1.33a90.6,90.6,0,0,1,12-8.16c.49.87,1.71,1.6.56,2.79-4.93,1.07-2.38,5.42-3.6,8.22a5.81,5.81,0,0,1-.42-.8c-.42-1.33.84-3.26-.85-4-1.35-.57-2.2,1.23-3.34,1.84-2.65,1.42-4.3,4.54-7.81,4.53-1.7-5.18-.56-10.37-.08-15.56,2.66-.32,3.6-3.09,5.86-4,5.45-2.18,7.45-6.39,7.06-11.95-.06-.86.41-2-.79-2.42-.86-.29-1.5.41-2.11.91-3,2.43-5.9,5-9.47,6.67-2.73-3-1.41-6.63-1.54-10a36.57,36.57,0,0,1,.86-6.45c7.73-.81,5-7.33,6.28-12.09,1.13,1.76-.09,3,.23,4.25.25,1-.51,2.29.78,2.86,1.05.47,1.61-.71,2.42-1.07,5.12-2.29,4.18-6.83,4.31-11,.07-2.33-.67-2.62-2.5-1.22-3.62,2.75-6.88,6-10.94,8.15-.46-.86-1.64-1.6-.5-2.75,2.2-2.13,2.41-7.85.37-10.15l-.32-2.83c4.25-1.84,6.77-5.91,10.8-8,5.79-3.06,4.08-8.27,4.38-13.68L329.06,198a6.16,6.16,0,0,1-.43-3.5c6.17-1.05,1.51-6.35,3.69-8.95.8.66.3,1.63.42,2.49s-.55,2.37.52,2.94c1.42.76,1.95-1,2.9-1.55,2.82-1.74,4.67-4.78,8-5.79,2.45,3.49,1.07,7.37,1.14,11.09a36.68,36.68,0,0,1-.49,4.66c-3.2.76-4.62,3.91-7.44,5.29-4.63,2.26-6.46,6.11-5.58,11.17.15.84-.56,2,.67,2.44.87.3,1.37-.64,2-1.09,3.25-2.31,5.88-5.45,9.69-7,2.25,2.31.53,5.06.78,7.59a80.61,80.61,0,0,1-.05,8.89c-2.45,0-4,1.6-5.25,3.29s0,4.12-.94,6.2c-.78-1.53.78-3.75-1.15-4.39-1.39-.46-2.42,1.43-3.69,2.1-4.29,2.26-2.6,6.24-2.94,9.62-.08.74-.36,1.71.45,2.19s1.48-.36,2.09-.81c3.63-2.73,7.06-5.74,11-8,.13,1.16,1.56,2.2.33,3.49-.77,0-1.85-.24-2.08.62a18.91,18.91,0,0,0-.09,8.47C342.84,250.39,344,249.9,344.75,249.91Z"/><path class="cls-3" d="M324.94,332.61c-8.09-2.61-15.58-6.59-23.32-10-1.51-.66-2.43-8.91-1.22-10.06s2.29.07,3.29.47c7,2.81,13.95,5.71,20.91,8.59C325.48,325.26,324.74,328.95,324.94,332.61Z"/><path class="cls-3" d="M325.1,304.55c-1.9.57-3.41-.59-5-1.22-5.15-2-10.27-4.17-15.4-6.27-3.22-1.31-5.28-7.76-3.39-10.59,1-1.56,2.15-.42,3.18,0q10.17,4,20.33,8.13Z"/><path class="cls-3" d="M325.09,277.2c-2.67.5-5.07-.43-7.35-1.56a48.85,48.85,0,0,0-10.84-3.85c-4.54-1-5.67-3.53-4.89-7.8.84-4.65.65-4.78,5-3.16,6.06,2.27,12.31,4.09,18.07,7.12Z"/><path class="cls-3" d="M274.91,311.9c-2.74-2.93-1.76-6.5-1.67-9.87.05-1.94,1.51-1.59,2.66-1.09,6.44,2.78,12.88,5.58,19.27,8.48,1.7.77,2.65,9.07,1.33,10.26-.89.79-2.13-.83-2.94.43a1.6,1.6,0,0,1-.69-.19c-.23-1-1-.88-1.69-.76h0c-.25-.88-.93-.86-1.65-.79h0a19.76,19.76,0,0,0-12.37-5.45Z"/><path class="cls-3" d="M325.1,249.86c-2.89.73-5.17-1.13-7.72-1.81-2.73-.73-5.36-1.79-8-2.7-6.44-2.18-7.36-3.88-6.06-10.59.34-1.73,1.1-1.83,2.52-1.35,6.37,2.17,12.76,4.3,19.14,6.45Z"/><path class="cls-3" d="M325.07,222.49c-7-.68-13.2-3.79-19.78-5.74-1.4-.41-1.7-8.95-.49-9.75.94-.62,1.81.05,2.69.32l17.37,5.22Z"/><path class="cls-3" d="M325.08,195.16c-6.47-.08-12.24-3-18.39-4.43-1.81-.41-2.35-6.2-1-8.87,1.11-2.17,2.75-.77,4.18-.41,5,1.24,10,2.51,14.94,3.78Z"/><path class="cls-2" d="M329.23,317.16c-2.37-3.92-1-8.18-1.08-12.29a26.26,26.26,0,0,1,.57-4.25c1.53.24,2.49-.82,3.58-1.55q6-4,12-8a3.52,3.52,0,0,1,.64,3.24c-5.72,2-9.92,6.42-15,9.46a1.36,1.36,0,0,0-.44,1.06c.1,2.81.26,5.61.4,8.41,2-2.34.71-5.1,2-8.66,0,2.52-.05,3.84,0,5.16,0,.86-.55,2,.56,2.52s1.67-.62,2.44-1.07c3.2-1.89,5.67-4.87,9.37-6,2.3,3.09,1.09,6.61,1.14,9.94a58.67,58.67,0,0,1-.62,6.64c-5.82,2-10.53,5.75-15.21,9.54-1-.94-2.16-1.83-.66-3.26,2.74-.86,4.63-3.16,7.19-4.26,5.37-2.32,8.4-5.88,7.23-12-.17-.87.44-2-.5-2.58s-1.67.5-2.41,1C336.68,312.47,333.34,315.42,329.23,317.16Z"/><path class="cls-3" d="M344.25,291q-6,4-12,8c-1.09.73-2.05,1.79-3.58,1.55l.33-10.06a107.75,107.75,0,0,0,12.15-8.23c1-.79,1.87-2,3.46-1.51Z"/><path class="cls-3" d="M344.26,305.16c-3.7,1.13-6.17,4.11-9.37,6-.77.45-1.39,1.55-2.44,1.07s-.52-1.65-.56-2.52c-.07-1.31,0-2.63,0-5.16-1.32,3.56-.05,6.32-2,8.66-.14-2.8-.3-5.61-.4-8.41a1.36,1.36,0,0,1,.44-1.06c5.07-3,9.27-7.43,15-9.46C344.63,297.91,345.56,301.59,344.26,305.16Z"/><path class="cls-3" d="M328.81,276.75c3.5,0,5.15-3.11,7.81-4.53,1.15-.61,2-2.41,3.34-1.84,1.69.72.43,2.65.85,4a5.81,5.81,0,0,0,.42.8c1.23-2.8-1.32-7.16,3.6-8.22l0,9.56c-2.81,2.11-5.44,4.52-8.47,6.24-2.55,1.45-4.44,4.14-7.72,4.3Z"/><path class="cls-3" d="M329.23,317.16c4.12-1.74,7.45-4.69,11.19-7,.74-.46,1.36-1.62,2.41-1s.33,1.71.5,2.58c1.18,6.11-1.85,9.67-7.23,12-2.56,1.11-4.45,3.4-7.19,4.26C328.55,324.38,328.13,320.75,329.23,317.16Z"/><path class="cls-3" d="M344.19,183.69c-3.36,1-5.21,4.05-8,5.79-.95.58-1.47,2.31-2.9,1.55-1.07-.57-.37-1.94-.52-2.94s.38-1.83-.42-2.49c-2.19,2.6,2.48,7.89-3.69,8.95l.09-8.85c1.56-1.34,3.08-2.74,4.7-4,3.73-2.95,7-6.5,11.32-8.7C344.77,176.56,345.55,180.18,344.19,183.69Z"/><path class="cls-3" d="M344.27,264.15a90.6,90.6,0,0,0-12,8.16c-1.84,1.39-2.52,1.32-2.82-1.33-.58-5.1.92-8.82,5.71-11.07,3.56-1.67,5.83-5.19,9.61-6.55C344.66,257,345.41,260.59,344.27,264.15Z"/><path class="cls-3" d="M329.06,198l14.86-11.67c-.3,5.42,1.41,10.62-4.38,13.68-4,2.13-6.56,6.21-10.8,8C328.74,204.75,328.31,201.38,329.06,198Z"/><path class="cls-3" d="M344.59,160.2l-.48,10.22c-5.18,3-9.21,7.51-14.54,11.27-.26-5.61-1.29-10.92,4.12-14,3.32-1.89,5.76-4.67,8.72-6.89C343.06,160.3,343.7,159.82,344.59,160.2Z"/><path class="cls-3" d="M138.07,123.8c4.29,1.12,8.54,2.5,12.89,3.28,4.75.85,3.08,4.21,3.1,6.81,0,3.29-2.66,2.11-4.17,1.8-4-.82-8-2-11.92-3.08Z"/><path class="cls-3" d="M344.5,236.9c-4,2.27-7.41,5.27-11,8-.6.45-1.2,1.32-2.09.81s-.53-1.45-.45-2.19c.35-3.38-1.35-7.36,2.94-9.62,1.27-.67,2.3-2.56,3.69-2.1,1.93.64.37,2.86,1.15,4.39.91-2.07-.42-4.43.94-6.2s2.8-3.29,5.25-3.29C344.72,230.11,345.34,233.53,344.5,236.9Z"/><path class="cls-3" d="M329.18,223.83c4.06-2.17,7.32-5.4,10.94-8.15,1.83-1.39,2.57-1.1,2.5,1.22-.13,4.18.81,8.72-4.31,11-.81.36-1.37,1.54-2.42,1.07-1.29-.58-.53-1.9-.78-2.86-.32-1.26.9-2.49-.23-4.25-1.23,4.77,1.46,11.29-6.28,12.09C328.89,230.59,328,227.16,329.18,223.83Z"/><path class="cls-3" d="M344.17,210.23c-3.81,1.56-6.44,4.7-9.69,7-.63.45-1.13,1.39-2,1.09-1.22-.42-.52-1.59-.67-2.44-.88-5.06.95-8.9,5.58-11.17,2.81-1.37,4.24-4.53,7.44-5.29C344.66,203,345.62,206.71,344.17,210.23Z"/><path class="cls-3" d="M329.28,250.41c3.57-1.66,6.46-4.24,9.47-6.67.61-.5,1.26-1.2,2.11-.91,1.2.41.73,1.55.79,2.42.39,5.55-1.61,9.76-7.06,11.95-2.27.91-3.2,3.68-5.86,4C328.79,257.59,328,253.94,329.28,250.41Z"/><path class="cls-3" d="M137.48,145.74c5.19.14,10,2.14,14.64,3.91,2.93,1.11,1.31,4.58,1,6.78s-2.35.71-3.65.33c-4-1.15-8-2.32-12-3.48Z"/><path class="cls-3" d="M137.19,167.25c5.12-.28,9.72,1.85,14.16,3.76,2.87,1.23,1.4,4.95.9,7.25s-2.72.31-4,0c-3.64-.89-7.18-2.16-10.76-3.29C136.8,172.42,137.32,169.82,137.19,167.25Z"/><path class="cls-3" d="M137.2,188.18c4.63.46,8.82,2.42,12.94,4.25,3.08,1.37,1.77,4.93,1.22,7.18-.69,2.8-3,.36-4.25,0-3.33-.92-6.51-2.39-9.75-3.63Z"/><path class="cls-2" d="M344.59,160.2c-.89-.38-1.53.1-2.19.6-3,2.23-5.4,5-8.72,6.89-5.41,3.08-4.38,8.38-4.12,14,5.33-3.75,9.36-8.27,14.54-11.27a2.62,2.62,0,0,1,.62,2.57c-4.33,2.2-7.59,5.75-11.32,8.7-1.62,1.28-3.14,2.67-4.7,4-1.44-6.26-.4-12.6-.62-18.9,0-.79.8-.94,1.48-1,.28,3.24,1.71,1,2.63.48,4.35-2.52,7.39-6.72,11.88-9.08A3.28,3.28,0,0,1,344.59,160.2Z"/><path class="cls-3" d="M137.22,230.82c4.23.56,7.82,2.8,11.6,4.49,1.38.62,1.9,7.26.76,8.07-.91.64-1.81.07-2.67-.28l-9.34-3.82C136.73,236.49,137.22,233.64,137.22,230.82Z"/><path class="cls-3" d="M303.24,159.29c.51,3.25-.36,4.31-3.93,3.19a176,176,0,0,0-17.18-4.32c-3.41-.7-3.4-2.76-3.07-5.28Z"/><path class="cls-3" d="M137.17,209.86c4.53.25,8.53,2.25,12.4,4.21,2.86,1.45,1.58,4.75,1,6.87-.62,2.4-2.72.27-4-.1-3.07-.89-6-2.18-9-3.3C136.68,215,137.29,212.43,137.17,209.86Z"/><path class="cls-3" d="M276.29,152.12c.4,3.42-.75,4.5-4.3,3.36A93.89,93.89,0,0,0,258.36,152c-3.64-.59-5.22-2.1-4.7-5.68C261.39,147.54,268.8,150,276.29,152.12Z"/><path class="cls-3" d="M251.18,145.51c.38,3.57-.71,4.83-4.56,3.51a70.42,70.42,0,0,0-12.14-3c-3.93-.6-5.46-2.36-4.46-6.17A194.75,194.75,0,0,1,251.18,145.51Z"/><path class="cls-3" d="M227.44,139.2c-.09,4.91-.1,4.94-4.74,3.8-3.53-.86-7-2.15-10.58-2.61-3.91-.5-5.4-2.32-4.91-6C214.17,135.14,220.75,137.38,227.44,139.2Z"/><path class="cls-3" d="M324.6,318.81c-1.15-.38-2.33-.7-3.45-1.16-7.19-3-7.29-3.25-6.36-10.93.23-1.89.84-2.34,2.57-1.59,2.48,1.08,5,2.09,7.48,3.13C325.12,311.78,325.46,315.31,324.6,318.81Z"/><path class="cls-3" d="M325.09,290.87c-3.13.31-5.56-1.62-8.28-2.61-1.21-.44-1.6-8.88-.6-9.73a1.78,1.78,0,0,1,1.89,0c2.23.79,4.45,1.64,6.67,2.46C325.48,284.23,325,287.56,325.09,290.87Z"/><path class="cls-3" d="M204.7,133.48c.09,5,.08,5-4.66,3.83a86,86,0,0,0-8.64-2.16c-3.89-.56-6.18-2-5.19-6.31Z"/><path class="cls-3" d="M184.34,128.63c.31,4-1.05,5.14-5,3.46a25.3,25.3,0,0,0-8.17-1.86c-4.32-.27-6-2.27-5.4-6.36A113.85,113.85,0,0,1,184.34,128.63Z"/><path class="cls-3" d="M325,168.56c-5.63-1.3-11.24-2.64-16.88-3.89-2.79-.62-1.87-2.78-2.12-4.49,5.34,1.33,10.66,2.75,16,4C324.62,164.73,325.75,165.94,325,168.56Z"/><path class="cls-3" d="M164.09,123.72c-.33,4.71-.31,4.65-4.66,3.31a43.72,43.72,0,0,0-7.44-1.78c-3.84-.47-5.12-2.39-4.25-6C153.2,120.7,158.88,121.36,164.09,123.72Z"/><path class="cls-3" d="M324.59,264.13l-1.15-.37c-7.37-2.41-8-3.6-6.37-11.11.34-1.58,1-1.55,2.23-1.1,1.76.64,3.57,1.15,5.36,1.72A28,28,0,0,1,324.59,264.13Z"/><path class="cls-3" d="M325.08,236.18c-2.68.34-5.91,0-6.76-2.31-1-2.56-.24-5.78,0-8.69.08-1,1.22-.84,2-.59,1.54.5,3.06,1.07,4.59,1.61Z"/><path class="cls-3" d="M325.07,208.82c-5.38-.08-8.66-5.66-5.72-10.07,1.58-2.37,3.63.42,5.49.13Z"/><path class="cls-3" d="M137.25,135.14c6.57.17,7.2.78,7.18,5.7,0,3.1-1.12,3.84-4,2.65a14,14,0,0,0-3.17-.55Z"/><path class="cls-3" d="M324.93,182.2c-5.22-.74-5.46-1-4.86-5.92a6.39,6.39,0,0,0,.21-1.57c-.57-4,1.22-4.6,4.51-3.15A47.26,47.26,0,0,1,324.93,182.2Z"/><path class="cls-3" d="M344.09,157.17c-4.49,2.35-7.53,6.56-11.88,9.08-.92.53-2.35,2.76-2.63-.48a38.77,38.77,0,0,1,13.79-11c-.18.92.33,1.31,1.15,1.47Z"/><path class="cls-3" d="M137.21,156c6.27,1,6.36,1.19,6.41,6.15,0,2.88-.67,4-3.62,2.55a20.6,20.6,0,0,0-2.62-.92Z"/><path class="cls-2" d="M328.62,287c3.28-.16,5.16-2.85,7.72-4.3,3-1.72,5.67-4.13,8.47-6.24l-.16,4.32c-1.59-.48-2.45.72-3.46,1.51A107.75,107.75,0,0,1,329,290.56C328.88,289.39,327.51,288.36,328.62,287Z"/><path class="cls-3" d="M329.57,331.27c4.68-3.79,9.39-7.53,15.21-9.54.17.93.31,2-.62,2.51-4.49,2.35-8.15,6.08-13,7.74C330.59,332.17,329.75,332.21,329.57,331.27Z"/><path class="cls-3" d="M137.16,177.68c5.16.13,7.53,3.33,5.4,7.79-1.39,2.91-3.47-.3-5.23.07Z"/><path class="cls-3" d="M145.29,118.93c.37,3.93-1.32,4.82-4.86,3.36a10.7,10.7,0,0,0-3.1-.3c-.41-5.54-.41-5.55,5-4.07C143.35,118.19,144.52,118,145.29,118.93Z"/><path class="cls-3" d="M137.13,199.36c4.31.14,6.78,4.13,4.65,7.78-1.21,2.09-2.81-.7-4.25,0C136.77,204.57,137.28,201.95,137.13,199.36Z"/><path class="cls-3" d="M137.16,220.3c3.38.39,5.78,5.42,3.77,8.13-1.18,1.59-2.33-.37-3.54-.3Z"/><path class="cls-3" d="M137.29,241.34c2.54,1,4.47,7.1,2.73,8.87-.91.93-1.69-.42-2.59-.4A33.19,33.19,0,0,1,137.29,241.34Z"/><path class="cls-2" d="M277.16,312.92a19.76,19.76,0,0,1,12.37,5.45A25.29,25.29,0,0,1,277.16,312.92Z"/><path class="cls-3" d="M344.75,249.91c-.74,0-1.91.48-2.08-.42a18.91,18.91,0,0,1,.09-8.47c.23-.87,1.31-.63,2.08-.62Z"/><path class="cls-3" d="M329.05,210.93c2,2.3,1.83,8-.37,10.15C328.74,217.7,328.19,214.29,329.05,210.93Z"/><path class="cls-2" d="M344.51,156.21c-.82-.16-1.32-.55-1.15-1.47.37-.41.83-.58,1.24-.15S344.88,155.69,344.51,156.21Z"/><path class="cls-2" d="M289.53,318.36c.71-.07,1.4-.09,1.65.79A1.28,1.28,0,0,1,289.53,318.36Z"/><path class="cls-2" d="M291.17,319.15c.74-.12,1.46-.21,1.69.76C292.12,320,291.48,320,291.17,319.15Z"/><path class="cls-3" d="M188.62,227.56c2.49,3.55.93,7.19,1.38,11.48-5.51-3.47-11.2-5.05-16.47-7.61-1.24-.6-1.74-6.76-.87-7.88s1.48-.24,2.14,0a71.49,71.49,0,0,1,7.15,2.86c1.14.57,2,1.07,3.29.49.47-.22,1.28.83,1.64-.19a1.14,1.14,0,0,0-.88-1.55c-5.32-1.16-2.58-5.28-3-8.17-.2-1.28.61-1.52,1.82-1.07,4.94,1.84,10,3.38,14.83,5.49,3.58,1.57,1.86,5.13,1.4,7.5-.52,2.67-3.31,1-4.7.47C194,228.44,191.81,227.1,188.62,227.56Z"/><path class="cls-3" d="M286.9,297.48c0-.29,0-1.23,0-2.16-.13-2.49.9-2.57,2.94-1.69,6.31,2.74,12.69,5.31,19,8,2.33,1,4,9.15,2.21,10.86-.84.8-1.79.28-2.64-.09-6.68-2.89-13.35-5.81-20-8.7C285.54,302.43,286.72,300.14,286.9,297.48Z"/><path class="cls-3" d="M291.88,168.6c.11-5.28.11-5.28,5.48-3.94s10.7,2.9,16.12,4c3.12.61,4.1,2.06,3.63,4.94A15.79,15.79,0,0,0,317,176c0,3.16-1,4.35-4.56,3.16-5.1-1.71-10.42-2.74-15.63-4.11C291.76,173.67,291.77,173.63,291.88,168.6Z"/><path class="cls-3" d="M313.76,254.63c0,.08,0,.62,0,1.15.07,3.38-1,4.35-4.53,2.9-5.83-2.42-11.88-4.3-17.8-6.51-2.37-.88-4-8.81-2.27-10.45.72-.67,1.5-.22,2.26,0,6.61,2.33,13.19,4.75,19.85,6.93C314.36,249.71,313.92,251.93,313.76,254.63Z"/><path class="cls-3" d="M312.5,280.87c-.11,5.69-.11,5.68-5.21,3.67-5.53-2.18-11.06-4.33-16.58-6.53-2.38-.95-4.26-8.38-2.66-10.3.75-.9,1.45-.19,2.13.07,6.64,2.53,13.22,5.27,19.95,7.54C313.72,276.54,312.07,279.16,312.5,280.87Z"/><path class="cls-3" d="M315.75,201c-.11,5.72-.1,5.69-5.1,4.17-5.17-1.57-10.31-3.35-15.57-4.54-3.63-.82-4.8-2.26-4.28-6,.72-5.24.4-5.32,5.51-3.84,4.81,1.39,9.53,3.16,14.41,4.21C314.7,195.83,317,197.25,315.75,201Z"/><path class="cls-3" d="M314.73,227.27c0,1.35,0,2.29,0,3.22.16,2.56-.88,2.88-3.18,2.07-6.11-2.15-12.27-4.15-18.45-6.08-2.18-.68-3.4-1.55-2.13-3.92a4.08,4.08,0,0,0,.15-.78c1.77-6.24.19-6.33,7.12-4.14,4,1.26,7.92,2.68,12,3.7C313.74,222.22,315.92,223.69,314.73,227.27Z"/><path class="cls-3" d="M302.44,184c-.14,5.54-.14,5.56-5.42,4.1s-10.39-2.85-15.55-4.39c-3-.9-4.89-7-3-9.55.83-1.14,2-.69,3-.43,6.26,1.64,12.48,3.41,18.75,5C303.67,179.52,302.11,182.17,302.44,184Z"/><path class="cls-3" d="M301.06,209.56c0,1.35-.06,2.16,0,3,.21,2.43-.58,3-3,2.17-6.14-2.1-12.37-3.91-18.55-5.89-2.09-.67-3.48-8.49-1.76-9.85.71-.57,1.53-.2,2.31,0,6.45,2,12.89,4,19.39,5.86C302.92,205.84,300.87,208.26,301.06,209.56Z"/><path class="cls-3" d="M288.93,166.92c-.46,5.64-.47,5.66-5.89,4.27-4.19-1.08-8.32-2.45-12.56-3.28-3.67-.72-5.21-2.19-4.79-6.18.55-5.26.23-5.29,5.45-3.95,4.59,1.18,9.18,2.34,13.76,3.54C289.29,162.47,289.29,162.48,288.93,166.92Z"/><path class="cls-3" d="M275.68,283.5l.07-.47c1-7.26,1.35-7.46,8.11-4.75,4.37,1.75,8.71,3.59,13.09,5.33,2.27.9,3,2.51,1.56,4.36s.39,5.4-2.3,5.72c-1.52.18-3.71-1.74-5.7-2.52-4.39-1.72-8.72-3.59-13.19-5.08C275.64,285.55,275.68,284.64,275.68,283.5Z"/><path class="cls-3" d="M288,193.13c-.11,5.3-.11,5.27-5.07,3.73s-10.09-3-15.12-4.58c-2.55-.8-4.27-7.63-2.43-9.44.79-.78,1.74-.41,2.65-.14,5.32,1.54,10.66,3,15.95,4.62C288.86,188.84,287.92,188,288,193.13Z"/><path class="cls-3" d="M275,175.87c-.12,5.75-.12,5.76-5,4.39q-7-2-13.95-4c-2.7-.78-4.68-7.49-2.74-9.45,1-1.05,2.31-.29,3.41,0,4.56,1.18,9.07,2.5,13.63,3.67C273.7,171.35,276.65,172.33,275,175.87Z"/><path class="cls-3" d="M252,196.11c.09-5.45.1-5.48,4.88-4.09s9.6,2.82,14.38,4.3c2.47.77,4.23,8.15,2.36,9.84-.86.78-1.8.16-2.67-.11-4.91-1.53-9.78-3.24-14.74-4.56C253,200.62,251,199.26,252,196.11Z"/><path class="cls-3" d="M262.71,159.79c-.1,6-.1,6-5,4.64-4-1.1-8-2.52-12.1-3.17-3.93-.62-4.63-2.57-4.34-6,.41-5,.2-5,5.12-3.71,3.78,1,7.55,2,11.37,2.84C261.32,155.1,264.3,156.06,262.71,159.79Z"/><path class="cls-3" d="M249.39,193.25c-.21,5.88-.22,5.88-5.42,4.27-4.44-1.38-8.9-2.66-13.32-4.08-2.66-.85-4-7.59-2-9.43.6-.54,1.25-.29,1.88-.1,5.14,1.52,10.26,3.1,15.43,4.54C248.72,189.21,250.12,190.68,249.39,193.25Z"/><path class="cls-3" d="M238.82,153.78c-.15,5.36-.15,5.35-5.35,4-4.3-1.14-8.63-2.2-12.91-3.42-2.42-.69-4-7.33-2.28-9.16.83-.88,1.74-.33,2.63-.11l13.78,3.46C238.94,149.58,238.94,149.59,238.82,153.78Z"/><path class="cls-3" d="M250.28,169.12c-.1,5.63-.11,5.66-5.16,4.26-4.41-1.23-8.81-2.53-13.21-3.8-3.34-1-4.22-3.27-2.78-8.13.91-3.08,3.07-1,4.6-.69,4.21,1,8.33,2.3,12.55,3.25C249.44,164.72,251.14,166.15,250.28,169.12Z"/><path class="cls-3" d="M261.79,185.18c-.09,5.16-.1,5.2-5.16,3.76q-6.79-1.94-13.52-4.08c-2.3-.73-3.89-7.52-2.22-9.2.86-.87,1.77-.14,2.62.09,4.67,1.25,9.33,2.56,14,3.83C261.86,180.77,261.87,180.75,261.79,185.18Z"/><path class="cls-3" d="M217,173.25c.1-5.58.06-5.48,5.1-3.81,4.34,1.44,8.76,2.63,13.17,3.87,4.87,1.37,2.48,5,2.16,7.62-.39,3.25-2.8,1.35-4.36.93-4-1.09-8-2.46-12.05-3.47C217.93,177.61,216.07,176.28,217,173.25Z"/><path class="cls-3" d="M226.61,162.62c-.11,5.52-.1,5.49-5.16,4q-6.38-1.88-12.8-3.64c-1.32-.36-2.23-1-2.12-2.46.17-2.23-.53-4.58.57-6.65.39-.74,1.48,0,2.23.17,4.42,1.2,8.8,2.58,13.27,3.54C225.83,158.28,227.45,159.66,226.61,162.62Z"/><path class="cls-3" d="M205.65,181.93c.1-5.48.08-5.43,5-3.89,4.24,1.33,8.54,2.48,12.79,3.77,2.39.73,3.22,4.51,1.88,8.2-1,2.81-2.85.61-4,.34-4.06-1-8-2.56-12-3.69C206.45,185.85,204.59,184.64,205.65,181.93Z"/><path class="cls-3" d="M212.88,218.61c-.11,5-.1,4.94-5,3.14-3.78-1.39-7.6-2.68-11.38-4.07-2.76-1-4.16-7-2.18-9.06.73-.77,1.48-.34,2.22-.08,4.84,1.68,9.69,3.33,14.5,5.1C213,214.37,213,214.5,212.88,218.61Z"/><path class="cls-3" d="M194.85,190.16c0-.94,0-1.88,0-2.81-.09-2,.73-2.64,2.72-2,4.47,1.53,9,2.94,13.45,4.45,2.35.79,4,7.33,2.33,9.15-.81.88-1.75.36-2.62.07-4.75-1.6-9.44-3.36-14.25-4.76C193.82,193.51,194.73,191.77,194.85,190.16Z"/><path class="cls-3" d="M215.46,147.79c-.14,5.24-.14,5.26-5.29,3.87-3-.81-5.93-1.7-8.89-2.56-4.41-1.27-6.1-4.57-4.68-8.78.55-1.61,1.55-1.1,2.56-.85,4.7,1.19,9.36,2.53,14.09,3.59C216.31,143.75,215.38,145.93,215.46,147.79Z"/><path class="cls-3" d="M202.23,202.19c-.12,5.68-.12,5.68-5,4-3.8-1.33-7.63-2.6-11.41-4-1.9-.69-3.1-7.89-1.56-9,.79-.57,1.55,0,2.28.25,3.84,1.22,7.64,2.59,11.52,3.66C201.1,197.95,203.5,199,202.23,202.19Z"/><path class="cls-3" d="M299.22,263c-.11,5.33-.11,5.34-5,3.41a80.7,80.7,0,0,0-8.63-3.35c-3.6-1-4.6-2.6-3.43-6.2,1.51-4.65,1.26-4.72,5.87-3,2.27.85,4.56,1.64,6.82,2.51C299.32,258.1,299.32,258.12,299.22,263Z"/><path class="cls-3" d="M199.09,276.54c-6.11-1.33-11.29-4.84-17-7.14-1-.41-1.41-7.46-.66-8.33s1.48-.2,2.15.09c4.71,2,9.41,4,14.12,6a3,3,0,0,1,2,3.51c-.23,2-.44,4-.67,5.94Z"/><path class="cls-3" d="M214.62,171.06c-.15,5.41-.15,5.4-4.73,4-3.85-1.17-7.7-2.34-11.56-3.48-1.63-.48-2.74-1-2.77-3.17-.08-6.63-.14-6.7,6.21-4.8,3,.88,5.86,2,8.87,2.65S215.65,168.17,214.62,171.06Z"/><path class="cls-3" d="M182,242.82c.11-5.15.08-5.06,4.22-3.35,3.7,1.53,7.52,2.8,11.25,4.26,2.79,1.1,4.2,6.76,2.33,9.05-.86,1.06-1.73.27-2.52,0-3.75-1.49-7.41-3.22-11.22-4.53C183,247.16,180.81,245.87,182,242.82Z"/><path class="cls-3" d="M204,156c-.12,5.27-.13,5.31-4.81,4.06-3.76-1-7.49-2.09-11.23-3.16-4.57-1.3-2.31-4.76-2.09-7.28.28-3.2,2.59-1.2,4-.9,3.42.74,6.78,1.74,10.18,2.58C202.82,152,205.41,152.87,204,156Z"/><path class="cls-3" d="M175.6,138.66c.17-4.85.46-5.07,4.73-4,3.52.89,7,2.05,10.56,2.64,2.7.44,3.21,1.72,3,4.09-.53,6-.46,6-6.48,4.22a56.7,56.7,0,0,0-7.75-2.08C176.3,143.06,174.83,141.58,175.6,138.66Z"/><path class="cls-3" d="M203.06,179.43c-.12,5.16-.13,5.19-4.65,3.77-4-1.25-8-2.47-11.88-3.85-4.32-1.52-1.79-5.05-1.66-7.47s2.49-.92,3.82-.55c3.62,1,7.14,2.32,10.78,3.18C202.52,175.23,203.9,176.68,203.06,179.43Z"/><path class="cls-3" d="M189.33,256.14c-.1,4.9-.1,4.9-4.52,3.07-2.86-1.18-5.72-2.34-8.56-3.58-4.92-2.14-5.74-3.82-4.73-8.89.29-1.45.82-1.8,2.17-1.24,4.59,1.91,9.18,3.84,13.8,5.66C190.2,252.22,189.14,254.44,189.33,256.14Z"/><path class="cls-3" d="M191,210.54c-.06,5-.06,5-4.34,3.41-3.8-1.38-7.63-2.71-11.38-4.2-1.91-.76-3.12-7.06-1.72-8.43.86-.84,1.77-.22,2.64.08,3.58,1.22,7.1,2.66,10.75,3.63C190.27,205.91,191.86,207.56,191,210.54Z"/><path class="cls-3" d="M178.8,263.09c0,.72,0,1.66,0,2.6,0,1.71-.73,2.13-2.29,1.43-4.56-2.05-9.16-4-13.69-6.14-1.64-.77-2.34-7.54-1-8.66.66-.56,1.23-.13,1.84.14,4.47,1.95,8.9,4,13.42,5.78C179.51,259.22,179.25,261,178.8,263.09Z"/><path class="cls-3" d="M192.62,164.9c.46,3.25.14,4.73-3.9,4.08-4.48-.72-8.27-2.92-12.43-4.25-3.23-1-1.73-4.5-1.46-6.75s2.52-1.23,3.93-.85c3.51.93,6.93,2.24,10.48,3C192.3,160.76,193.53,162.15,192.62,164.9Z"/><path class="cls-3" d="M191.86,187.37c-.12,5.35-.13,5.38-4.73,3.86-3.58-1.18-7.14-2.42-10.68-3.69-2.51-.9-3.41-4.21-2-7.71,1.13-2.79,3.16-.77,4.33-.26,3.13,1.37,6.55,1.58,9.72,2.84C191.45,183.58,192.72,185,191.86,187.37Z"/><path class="cls-3" d="M181.74,194.79c-.21,5.87-.35,6-5.76,4.08-3.19-1.11-6.33-2.34-9.55-3.37-1.59-.51-2.49-1.21-2.66-3-.6-6.31.07-6.86,6.16-4.71,2.92,1,5.87,2,8.83,2.92C181,191.4,182.36,192.57,181.74,194.79Z"/><path class="cls-3" d="M183.36,151.12c.45,3.52-.57,4.76-4.31,3.42-3.41-1.23-7.06-1.74-10.47-3.1-2.54-1-4.41-6.25-2.87-8.38.52-.72,1.11-.53,1.77-.35,4.7,1.25,9.42,2.46,14.11,3.75C184.29,147.19,183.18,149.45,183.36,151.12Z"/><path class="cls-3" d="M182.57,172.76c-.18,5.11-.33,5.19-5.14,3.69-3.46-1.08-7-2-10.42-3.12-1.53-.49-2.79-1-2.61-3.3.48-6,.32-6,6.23-4.3,3,.87,5.82,2.08,8.8,2.8C182.07,169.17,183.07,170.54,182.57,172.76Z"/><path class="cls-3" d="M163.18,213c-1-4.54.6-5,4.34-3.34s7.6,2.71,11.37,4.15c1.94.74,2.78,7.16,1.17,8.41-.76.59-1.54.06-2.27-.21q-5.87-2.18-11.72-4.39C163.82,216.73,161.39,216,163.18,213Z"/><path class="cls-3" d="M179.7,240.78c-.07,4.68-.06,4.66-4.57,2.74-3.61-1.54-7.26-3-10.86-4.53-1.72-.75-3-7.19-1.7-8.45.78-.77,1.51-.11,2.2.17,4.4,1.73,8.77,3.52,13.17,5.25C180.41,236.94,179.59,239,179.7,240.78Z"/><path class="cls-3" d="M169.29,247a14.86,14.86,0,0,0-.19,2.25c.09,2.59-1,2.94-3.2,1.92-3.92-1.79-7.95-3.36-11.9-5.09-1.52-.66-2.35-7.56-1-8.51.76-.56,1.53-.08,2.27.23,4,1.67,7.95,3.37,12,5C169,243.42,169.77,244.54,169.29,247Z"/><path class="cls-3" d="M154.86,177c.28-5,.28-5,4.82-3.52,3.18,1,6.38,2,9.55,3.1,2.55.85,3.85,6.84,1.89,8.64-.89.82-1.77.14-2.62-.14-3.32-1.11-6.59-2.41-10-3.31C155.71,181,153.6,180.09,154.86,177Z"/><path class="cls-3" d="M173.63,136.27c-.22,5.27-.25,5.27-5.25,4-2.85-.75-5.73-1.37-8.58-2.09s-4.71-6.55-3-8.71c.61-.76,1.16-.26,1.77-.11l13.25,3.24C174.11,133.11,173.58,134.91,173.63,136.27Z"/><path class="cls-3" d="M155.66,154.8c.33-4.66.33-4.65,5.14-3.11,2.68.86,5.36,1.76,8.06,2.56a5.58,5.58,0,0,1,3.66,7.89c-.77,1.48-2,1.12-3.13.75-4-1.22-7.92-2.55-11.93-3.66C155,158.53,155.43,156.82,155.66,154.8Z"/><path class="cls-3" d="M153.29,220c-1-5.09,1.39-4.48,4.58-3.05s6.53,2.52,9.78,3.82c2.44,1,3.67,6.53,1.93,8.42-.59.64-1.2.4-1.83.15L154.23,224C151.88,223.08,153.64,221.2,153.29,220Z"/><path class="cls-3" d="M171.13,202.28c-.28,5.82-.47,6-5.78,4-2.9-1.05-5.71-2.35-8.65-3.26-2-.62-2.71-1.58-2.69-3.69.07-5.91,0-5.89,5.76-3.79,2.9,1.06,5.82,2.1,8.76,3C170.54,199.24,171.51,200.35,171.13,202.28Z"/><path class="cls-3" d="M159.13,254.32c-.07,5-.07,5-4.22,3.15-3.08-1.36-6.14-2.76-9.21-4.12-2.51-1.11-4.19-6.41-2.79-8.74.63-1.06,1.34-.49,2-.19,4.2,1.82,8.36,3.74,12.61,5.44C160.2,250.93,158.67,253.07,159.13,254.32Z"/><path class="cls-3" d="M161.6,188.69c-.09,5.29-.09,5.27-4.76,3.55-3-1.12-6-2.33-9.15-3.22a3.08,3.08,0,0,1-2.62-3.38c-.18-6.11-.13-6.19,5.8-4.14,2.3.79,4.55,1.74,6.9,2.32C160.66,184.54,162.53,185.74,161.6,188.69Z"/><path class="cls-3" d="M162.44,166.7c-.08,4.61-1.57,6-5.06,4-2.77-1.55-5.81-1.94-8.59-3.22-2.36-1.08-4-6.37-2.49-8.37.65-.83,1.37-.51,2.16-.26a97.81,97.81,0,0,0,10.34,3.23C161.83,162.76,163.06,164.08,162.44,166.7Z"/><path class="cls-3" d="M163.27,145.39c-.11,4.56-.42,4.69-4.62,3.3-3-1-6.18-1.67-9.25-2.54-2.62-.75-4.55-5.82-3.06-8,.68-1,1.69-.68,2.56-.45,4.14,1.11,8.23,2.4,12.4,3.38C164.22,141.79,163,143.91,163.27,145.39Z"/><path class="cls-3" d="M160,232.18c-.07,5.3,0,5.25-4.2,3.41-3.31-1.47-6.69-2.82-10-4.21-1-.41-2.18-.7-2.17-2,0-2.11-.83-4.71.55-6.18,1.06-1.13,3.16.65,4.77,1.2,2.54.86,5,2.06,7.51,2.9C159.18,228.19,161,229.53,160,232.18Z"/><path class="cls-3" d="M160.7,210.89c.64,3.94-.92,4.52-4.25,3s-6.7-2.76-10.11-4a2.71,2.71,0,0,1-2.05-2.57c-.68-5.56.12-6.17,5.51-4.16a67.61,67.61,0,0,0,7.21,2.52C159.93,206.45,161.67,207.72,160.7,210.89Z"/><path class="cls-3" d="M300.21,235.79c-.12,6.25-.12,6.25-5.55,4.38a45.53,45.53,0,0,0-4.61-1.53c-2.32-.53-3.17-1.67-2.18-3.92.9-2,.23-5.68,2.3-6,3.05-.51,6.3,1.25,9.15,2.71C301.22,232.38,299.77,234.64,300.21,235.79Z"/><path class="cls-3" d="M283.89,295.23c0,.7,0,.83,0,1-.13,5.53-.13,5.53-5.24,3.22l-.73-.34c-5.59-2.4-5.33-2.35-4.12-8.24.68-3.31,2.14-3,4.43-2C281.31,290.22,285.54,290.68,283.89,295.23Z"/><path class="cls-3" d="M285.39,268a25.35,25.35,0,0,1-.54,3.91c-.39,1.14.55,3.54-2.07,2.88-2-.49-4.58-.77-3.9-4a26,26,0,0,1,.67-2.71c.48-1.46-.15-4,2.73-3.4C284.63,265.23,285.74,266.74,285.39,268Z"/><circle class="cls-4" cx="223.5" cy="223.5" r="220"/></g></g></svg>