<svg xmlns="http://www.w3.org/2000/svg" viewBox="0 0 447 447"><defs><style>.cls-1{fill:none;stroke:#9ea8b7;stroke-miterlimit:10;stroke-width:7px;}.cls-2{fill:#fff;}.cls-3{fill:#9ea8b7;}.cls-4{fill:#949595;}.cls-5{fill:#5c96f5;}</style></defs><title>Asset 21</title><g id="Layer_2" data-name="Layer 2"><g id="High_Bar" data-name="High Bar"><circle class="cls-1" cx="223.5" cy="223.5" r="220"/><path class="cls-2" d="M225.84,407.27c-3.16-13.24-6.77-26.37-10.43-39.48-.84-3-.05-3.54,2.81-3.6q28.41-.55,56.81-1.36c24.29-.68,48.58-1.47,72.87-2.2,1.56,0,3.13,0,5.85,0a171.1,171.1,0,0,1-20,16.61,188.35,188.35,0,0,1-73.23,31.65c87.23-17.12,153-93.6,153-185.38,0-104.37-85.07-189-190-189s-190,84.61-190,189c0,100,78.1,181.84,176.93,188.52Q141.07,406.4,90.81,357.7a6.52,6.52,0,0,1-2.15-4.95c0-8.67-.1-17.34-.15-26l-.08-6.54h0q-.85-75.48-1.67-151c0-2.6,0-5.11-2.15-7-1.2-1-1-2.39-1-3.71.21-14.16.5-28.31.59-42.47,0-2.58.85-2.71,3-2.25,5.5,1.17,11,2.17,16.59,3.12,6.07,1,12.14,3.48,18.26.16,1.08-2.22,1-4.6.89-7-3.54-4.25-8.68-4.65-13.61-5.57L82.87,99.7c.09-1.84,1.49-2.63,2.44-3.63,33.74-35.69,75.07-56,124.23-59.93,77.86-6.3,152.59,37.34,185.22,107.94.5,1.08.85,2.23,1.27,3.35.26.31.44.64,0,.9-.07,0-.34-.25-.51-.39h0c-3.46-.37-6.94-.55-10.36-1.16a13.68,13.68,0,0,0-7.82.55l-1.75,6.79c4.58,2.49,9.16,4.79,14.68,4.32,2.24-.19,1.81,1.77,1.72,3.23-.72,11.86-1.42,23.72-2.16,35.58q-2.31,36.78-4.67,73.56c-1.2,18.25-2.54,36.49-3.78,54.74a9.18,9.18,0,0,1-1.68,4.82,204.54,204.54,0,0,1-17,21.34,5.81,5.81,0,0,1-4.44,2.25c-16.78.42-33.56,1-50.33,1.46-30.74.9-61.48,1.71-92.21,2.77-3.63.13-4.78-1.16-5.57-4.34-3.33-13.45-7-26.81-10.3-40.26-.91-3.73-2.59-5.2-6.46-4.54-5,.87-10.09,1.43-15.14,2.12-1.57,1.8-1.33,3.6,0,5.41,3.88.29,7.77.61,11.62-.25,2.54-.57,3.7.19,4.4,3,4.08,16.28,8.06,32.59,12.78,48.69,4,13.68,7.49,27.5,11.35,41.21.6,2.12.47,3-1,3.21,2,.06,4.06.11,6.1.11,2.27,0,4.53-.05,6.79-.13C227.89,412,226.63,410.6,225.84,407.27ZM74.65,160.49c-2.18,26.76-.22,53.46-.33,80.18s.49,53.43.78,80.14a4.37,4.37,0,0,1-.13.79l-.26,6.65c0,3.37,0,6.73,0,10.91-3.12-3.84-5.92-6.93-7.49-10.9-1.9-1-2.46-2.89-3.18-4.68A113.7,113.7,0,0,1,50.3,297.84Q11.18,199.49,71.76,112.46c.78-1.13,1.32-2.63,3-3,1.33,1.26.72,2.82.71,4.19C75.27,129.24,75.92,144.94,74.65,160.49Zm328.46,5.69q22.41,70.57-8.78,137.67C396.13,257.88,399.52,212,403.11,166.18Z"/><path class="cls-2" d="M257,409.54l1.28-.24Z"/><path class="cls-3" d="M99.1,319.54c5.91-.59,11.79-1.44,17.71-2,10.93-1,21.8-2.5,32.72-3.66,9.56-1,19.14-1.85,28.71-2.76,5-.69,10.12-1.25,15.14-2.12,3.87-.67,5.54.81,6.46,4.54,3.3,13.45,7,26.82,10.3,40.26.79,3.18,1.94,4.47,5.57,4.34,30.73-1.06,61.47-1.87,92.21-2.77,16.78-.49,33.55-1,50.33-1.46a5.81,5.81,0,0,0,4.44-2.25,204.54,204.54,0,0,0,17-21.34,9.18,9.18,0,0,0,1.68-4.82c1.24-18.25,2.58-36.49,3.78-54.74q2.41-36.78,4.67-73.56c.74-11.86,1.44-23.72,2.16-35.58.09-1.45.51-3.42-1.72-3.23-5.52.47-10.1-1.83-14.68-4.32-7.09-.06-14-1.81-21-2.74-13.86-1.85-27.68-3.94-41.51-6-13.56-2-27.1-4.13-40.66-6.15-13.33-2-26.67-3.89-40-5.83l-41.22-6c-14.1-2-28.21-4-42.3-6.11-9-1.32-17.88-2.78-26.82-4.17-6.11,3.32-12.19.88-18.26-.16-5.55-1-11.09-2-16.59-3.12-2.16-.46-3-.33-3,2.25-.09,14.16-.37,28.31-.59,42.47,0,1.32-.24,2.68,1,3.71,2.18,1.87,2.12,4.38,2.15,7q.79,75.48,1.67,151h0C92,320.16,95.55,319.89,99.1,319.54Z"/><path class="cls-3" d="M145.66,113.37c5,.85,10.06,1.49,15.07,2.49,3.76.75,7.78,1,11.68,1.56,7.12,1.05,14.25,2.15,21.36,3.1,7.65,1,15.3,2.13,22.94,3.2,15.61,2.19,31.2,4.56,46.8,6.81,8.46,1.23,17,2.06,25.38,3.67,6.66,1.28,13.43,1.68,20.07,3.38,3.53.9,7.51.9,11.3,1.43,5.29.74,10.54,1.84,15.81,2.44q8.77,1,17.49,2.29,11.89,1.76,23.77,3.57a13.68,13.68,0,0,1,7.82-.55c3.41.61,6.9.79,10.36,1.16h0c.18.14.44.43.51.39.44-.26.26-.59,0-.9-.42-1.12-.77-2.27-1.27-3.35C362.13,73.47,287.4,29.84,209.54,36.14c-49.16,4-90.49,24.23-124.23,59.93-.95,1-2.35,1.79-2.44,3.63l26.51,4.9c4.92.91,10.06,1.31,13.61,5.57,3.49,0,6.81,1.25,10.16,1.6C137.34,112.21,141.52,112.67,145.66,113.37Z"/><path class="cls-3" d="M218.37,409.16c-3.86-13.72-7.34-27.53-11.35-41.21-4.72-16.1-8.7-32.42-12.78-48.69-.69-2.77-1.86-3.52-4.4-3-3.86.87-7.74.54-11.62.25-10.49,1.22-21,2.48-31.47,3.66-13.69,1.54-27.4,3-41.09,4.55-5.72.64-11.43,1.32-17.15,2,.05,8.67.13,17.34.15,26a6.52,6.52,0,0,0,2.15,4.95Q141,406.55,210.42,412c1.8.15,3.61.28,5.43.38a7.93,7.93,0,0,0,1.55,0C218.84,412.16,219,411.28,218.37,409.16Z"/><path class="cls-3" d="M74.72,109.41c-1.64.41-2.18,1.92-3,3q-60.45,87-21.45,185.38A113.7,113.7,0,0,0,64,323.59c3.48-1.53,7.48-.26,10.93-2a4.37,4.37,0,0,0,.13-.79c-.28-26.71-.89-53.43-.78-80.14s-1.85-53.42.33-80.18c1.26-15.55.62-31.25.77-46.89C75.44,112.23,76,110.67,74.72,109.41Z"/><path class="cls-3" d="M260.48,408.88a188.35,188.35,0,0,0,73.23-31.65,171.1,171.1,0,0,0,20-16.61c-2.72,0-4.29,0-5.85,0-24.29.73-48.58,1.51-72.87,2.2q-28.4.8-56.81,1.36c-2.86.06-3.66.57-2.81,3.6,3.65,13.11,7.27,26.25,10.43,39.48.79,3.33,2.05,4.7,4.45,5.07a13.63,13.63,0,0,0,2.89.07A208.1,208.1,0,0,0,257,409.54l1.28-.24Z"/><path class="cls-4" d="M191.22,127.42l41.22,6c13.34,1.94,26.68,3.85,40,5.83,13.56,2,27.1,4.14,40.66,6.15,13.83,2.05,27.65,4.14,41.51,6,7,.93,13.86,2.68,21,2.74l1.75-6.79q-11.88-1.79-23.77-3.57-8.73-1.29-17.49-2.29c-5.27-.61-10.52-1.71-15.81-2.44-3.78-.53-7.77-.53-11.3-1.43-6.64-1.69-13.41-2.1-20.07-3.38-8.38-1.61-16.92-2.44-25.38-3.67-15.6-2.26-31.19-4.62-46.8-6.81-7.65-1.07-15.29-2.18-22.94-3.2-7.12-.95-14.24-2-21.36-3.1-3.91-.58-7.92-.81-11.68-1.56-5-1-10.05-1.65-15.07-2.49-4.15-.7-8.32-1.16-12.51-1.6-3.36-.35-6.68-1.6-10.16-1.6.09,2.37.19,4.75-.89,7C131,118.53,140,120,148.92,121.3,163,123.39,177.12,125.38,191.22,127.42Z"/><path class="cls-3" d="M403.11,166.18c-3.6,45.83-7,91.7-8.78,137.67Q425.53,236.74,403.11,166.18Z"/><path class="cls-4" d="M146.75,320.21c10.49-1.18,21-2.44,31.47-3.66-1.32-1.81-1.56-3.61,0-5.41-9.57.91-19.15,1.75-28.71,2.76-10.91,1.16-21.79,2.67-32.72,3.66-5.91.53-11.8,1.38-17.71,2-3.54.36-7.1.62-10.67.67h0l.08,6.54c5.72-.66,11.43-1.34,17.15-2C119.36,323.23,133.06,321.76,146.75,320.21Z"/><path class="cls-4" d="M67.22,328.27h7.49l.26-6.65c-3.45,1.72-7.44.45-10.93,2C64.76,325.38,65.32,327.28,67.22,328.27Z"/><path class="cls-5" d="M74.71,339.17c0-4.18,0-7.55,0-10.91H67.22C68.79,332.24,71.59,335.33,74.71,339.17Z"/></g></g></svg>