<svg xmlns="http://www.w3.org/2000/svg" viewBox="0 0 447 447"><defs><style>.cls-1{fill:none;stroke:#9ea8b7;stroke-miterlimit:10;stroke-width:7px;}.cls-2{fill:#9ea8b7;}.cls-3{fill:#fdfdfd;}.cls-4{fill:#a4a5a5;}</style></defs><title>Asset 45</title><g id="Layer_2" data-name="Layer 2"><g id="peanut"><circle class="cls-1" cx="223.5" cy="223.5" r="220"/><path class="cls-2" d="M412.5,223.82c-.07,104.25-84.85,188.75-189.32,188.68S34.33,327.56,34.5,222.78C34.67,118.62,119.59,34.34,224.22,34.5,328.19,34.66,412.57,119.51,412.5,223.82ZM221.8,349c-.38.9.4,1,.89,1.24a3.83,3.83,0,0,0,3.11,2.07c10.37,7,21.95,11.52,33.67,15.63,5.11,1.79,10.23,3.69,15.71,4.2,3.88,2.26,8,1.9,12.13,1.05,1.75,0,3.49-.09,5.24-.09A102.76,102.76,0,0,0,349,356.57c55.56-35.57,69.22-114.4,29.14-168.09-4.32-5.79-8.74-11.56-14.85-15.7-1-1.91-2-3.94-4.6-4a61.94,61.94,0,0,0-21-13.46c-.79-.83-1.48-1.83-2.85-1.68-9.11-1.86-17.94-5.14-27.35-5.56-3.38-1.65-7-.81-10.51-1-14.39-1.46-28.84-2.05-43.05-5.4-12.18-2.87-22.8-7.83-32.08-16.38-16.94-15.61-36.89-24.51-60.35-24.55-2.73-.79-5.46-1.54-8.35-1A82.82,82.82,0,0,0,113.07,108a2.74,2.74,0,0,0-2.29.45,84.3,84.3,0,0,0-21.36,14.23c-15.68,14.78-26,32.36-30.79,53.65-2.51,11.27-3.06,22.36-2.94,33.68,0,1.15-.25,2.47,1,3.26l.26,3.76a1.48,1.48,0,0,0,.31,2.42A116.89,116.89,0,0,0,61,236.37c-.71.67-.33,1.15.27,1.6a96.15,96.15,0,0,0,28.58,44.39c16.86,14.81,36.15,23.9,59.34,23.26,10.65-.3,19.21,5.23,27.19,11.61,5.34,4.27,10.53,8.74,15.94,12.93,8.8,6.81,17.92,13.17,27.91,18.18l0-.11c.3.76.55,1.62,1.65.85Z"/><path class="cls-3" d="M61,236.37a116.9,116.9,0,0,1-3.68-16.89,1.48,1.48,0,0,0-.31-2.42l-.26-3.76c.53-10,.57-20,2.84-29.86,5.91-25.68,18-47.65,38.44-64.83,4.73-4,10.16-6.89,15.06-10.58a82.82,82.82,0,0,1,40.09-8.28c.12,1.44-1,1.33-1.87,1.46-18.29,2.52-33.77,11-46.71,23.6-30,29.16-44.29,64.52-40.07,106.56a43.76,43.76,0,0,0,4.22,15.85c.67-3.1-.15-6-.78-8.94a103.2,103.2,0,0,1-.7-39.12c4.17-24.79,14.52-46.78,31.46-65.41,16.2-17.82,35.72-29.84,60.46-31.8,1-.08,1.91-.1,2.34-1.18,23.46,0,43.41,8.94,60.35,24.55,9.28,8.55,19.9,13.51,32.08,16.38,14.21,3.35,28.66,3.94,43.05,5.4-20.68,6.07-37.22,18.27-50.58,34.75C216.85,218.33,201.16,259.53,205,307c1.13,13.94,5.41,27,14.22,38.2.71.91,1.78,1.77.95,3.16-10-5-19.11-11.37-27.91-18.18-5.41-4.18-10.59-8.66-15.94-12.93-8-6.37-16.53-11.9-27.19-11.61-23.19.65-42.48-8.45-59.34-23.26A96.15,96.15,0,0,1,61.24,238C61.77,237.33,61.84,236.77,61,236.37Z"/><path class="cls-3" d="M363.29,172.78c6.12,4.14,10.53,9.91,14.85,15.7C418.22,242.17,404.55,321,349,356.57a102.76,102.76,0,0,1-56.45,16.52c-1.75,0-3.49.06-5.24.09a32,32,0,0,0-4.05-1.64,42.83,42.83,0,0,1-24.94-17.3c-9.17-12.95-12.5-27.79-12.9-43.24-.76-29.68,7.54-57.14,22.28-82.69,11.19-19.4,25.41-36.25,44.83-48.08,12.42-7.57,25.71-12.26,40.62-9.84C356.56,171,359.91,172,363.29,172.78Z"/><path class="cls-3" d="M307.5,148.08c9.41.42,18.23,3.7,27.35,5.56-3.86,1.46-7.93.4-11.91,1.07-20.6,3.5-36.84,14.72-50.77,29.26-25.84,27-41.73,59.17-48.17,95.88-3.37,19.23-3.33,38.36,3.55,57,1.94,5.25,4.27,10.32,8.47,14.45,1-1.8-.09-2.8-.79-3.92a63.41,63.41,0,0,1-7-15.3c-4.74-15.83-5.06-31.89-2.53-48.08C232.18,242.67,250,207.17,281,178.68c11.74-10.77,25.19-18.75,41.17-21.62,5.12-.92,10.36-1.18,15.54-1.75a61.94,61.94,0,0,1,21,13.46,6.42,6.42,0,0,1-1.6,0c-15.15-3.37-29,.38-42.22,7.58-16.73,9.14-29.74,22.38-40.6,37.78-16.77,23.77-27.13,50.08-30.38,79-1.81,16.1-.94,32.1,4.93,47.44,3.58,9.34,8.37,17.76,16.88,23.93,3.2,2.32,6.94,4.31,9.48,7.59-5.48-.5-10.6-2.4-15.71-4.2-11.73-4.12-23.31-8.59-33.67-15.63-.57-3.32-2.74-5.76-4.7-8.28A56.9,56.9,0,0,1,213,330.19c-8.11-20.22-8-41.07-4.33-62,5.74-32.46,19.16-61.5,40.76-86.56,11.89-13.8,25.77-25,43.55-30.68C297.74,149.38,302.68,149.13,307.5,148.08Z"/><path class="cls-4" d="M275.18,372.13c-2.54-3.27-6.27-5.27-9.48-7.59-8.52-6.17-13.31-14.58-16.88-23.93-5.88-15.35-6.74-31.35-4.93-47.44,3.25-28.89,13.61-55.21,30.38-79,10.86-15.4,23.87-28.64,40.6-37.78,13.18-7.2,27.08-11,42.22-7.58a6.42,6.42,0,0,0,1.6,0c2.65.06,3.57,2.09,4.6,4-3.38-.81-6.72-1.83-10.14-2.38-14.91-2.42-28.2,2.27-40.62,9.84-19.42,11.83-33.63,28.68-44.83,48.08-14.74,25.55-23,53-22.28,82.69.39,15.45,3.72,30.29,12.9,43.24,6.2,8.74,17.66,18.31,24.94,17.3a32,32,0,0,1,4.05,1.64C283.16,374,279.05,374.39,275.18,372.13Z"/><path class="cls-4" d="M307.5,148.08c-4.81,1.05-9.76,1.3-14.52,2.82-17.78,5.67-31.66,16.88-43.55,30.68-21.6,25.07-35,54.1-40.76,86.56-3.71,21-3.78,41.83,4.33,62A56.9,56.9,0,0,0,221.09,344c2,2.51,4.13,5,4.7,8.28a3.83,3.83,0,0,1-3.11-2.07c0-.6-.17-1.12-.89-1.24l.06.08c-.21-.93-.7-1.33-1.65-.85l0,.11c.84-1.39-.23-2.25-.95-3.16-8.82-11.23-13.09-24.26-14.22-38.2-3.86-47.44,11.83-88.64,41.4-125.12,13.35-16.48,29.9-28.67,50.58-34.75C300.51,147.27,304.12,146.44,307.5,148.08Z"/><path class="cls-4" d="M337.69,155.32c-5.18.56-10.42.83-15.54,1.75-16,2.86-29.43,10.84-41.17,21.62-31,28.49-48.8,64-55.27,105.31-2.53,16.2-2.21,32.25,2.53,48.08a63.41,63.41,0,0,0,7,15.3c.7,1.12,15.34,18.27,7.82,14.23-4.19-4.13-13.56-19.52-15.5-24.77-6.88-18.63-6.92-37.77-3.55-57,6.44-36.71,22.33-68.91,48.17-95.88,13.93-14.54,30.18-25.76,50.77-29.26,4-.68,8,.39,11.91-1.07C336.22,153.49,336.9,154.49,337.69,155.32Z"/><path class="cls-4" d="M161.51,100.77c-.43,1.08-1.38,1.1-2.34,1.18-24.73,2-44.26,14-60.46,31.8-16.93,18.63-27.29,40.62-31.46,65.41a103.2,103.2,0,0,0,.7,39.12c.62,2.9,5.2,20.9,4.54,24-2.56-5-7.43-25.48-8-30.91-4.22-42,10.06-77.4,40.07-106.56,12.93-12.57,28.42-21.08,46.71-23.6.92-.13,2,0,1.87-1.46C156,99.23,158.78,100,161.51,100.77Z"/><path class="cls-4" d="M113.07,108c-4.9,3.7-10.34,6.6-15.06,10.58-20.39,17.18-32.53,39.15-38.44,64.83-2.27,9.84-2.31,19.87-2.84,29.86-1.28-.79-1-2.1-1-3.26-.12-11.32.43-22.41,2.94-33.68,4.75-21.29,15.11-38.87,30.79-53.65a84.3,84.3,0,0,1,21.36-14.23A2.74,2.74,0,0,1,113.07,108Z"/><path class="cls-4" d="M57,217.06a1.48,1.48,0,0,1,.31,2.42A1.48,1.48,0,0,1,57,217.06Z"/><path class="cls-4" d="M61,236.37c.87.4.8,1,.27,1.6C60.64,237.52,60.25,237,61,236.37Z"/><path class="cls-3" d="M220.21,348.22c.95-.48,1.44-.09,1.65.85C220.76,349.84,220.52,349,220.21,348.22Z"/><path class="cls-3" d="M221.8,349c.71.12.85.64.89,1.24C222.2,349.95,221.42,349.88,221.8,349Z"/></g></g></svg>