<svg xmlns="http://www.w3.org/2000/svg" viewBox="0 0 447 447"><defs><style>.cls-1{fill:none;stroke:#9ea8b7;stroke-miterlimit:10;stroke-width:7px;}.cls-2{fill:#9ea8b7;}.cls-3{fill:#949495;}.cls-4{fill:#fdfdfd;}</style></defs><title>Asset 35</title><g id="Layer_2" data-name="Layer 2"><g id="vault"><circle class="cls-1" cx="223.5" cy="223.5" r="220"/><path class="cls-2" d="M69.29,334.42c-1.44-.69-2.07-2.09-2.92-3.27-80.47-112.61-13.26-269.82,125.28-293C294.59,20.85,394,89.17,412.1,189.6q11.25,62.34-17.56,119c-.76,1.5-1.13,3.35-3,4.17-.33-1.1-1.42-1.15-2.26-1.5-12-5-24-10.1-36.12-14.79-3.8-1.47-5.75-3.57-5.92-7.43a19.65,19.65,0,0,0-.25-2.38q-8.43-50.59-16.87-101.18c13.25-3.52,26.48-7.11,39.75-10.54,4.1-1.06,6.65-3.19,7.54-7.36.8-3.76,2.13-7.41,2.93-11.17,1.77-8.3,4.92-16.31,5.42-24.87,1.23-3.9-2-4.65-4.43-5.46-10.71-3.54-21.44-7-32.25-10.23-3.31-1-6.6-2.37-10.35-1.71-27.4,4.8-54.83,9.49-82.24,14.23-22.88,4-45.74,8-68.62,11.91-20.73,3.56-41.48,7-62.21,10.58-17.92,3.09-35.81,6.29-53.73,9.39-1.7.29-3.4.27-3.1,2.65.73,14,1.58,27.9,2.12,41.86.14,3.72,1.38,6.17,4.68,8.13,13.25,7.87,25.86,16.72,39.51,24a21.55,21.55,0,0,0,14,2.29c3.89-.58,7.74-1.42,11.6-2.14L119.44,352.68c-1.53-.82-2.61-1.32-3.61-1.95C105.4,344.16,95,337.55,84.54,331c-1.15-.72-2.1-2.1-4-1.2C76.9,331.57,72.8,332.3,69.29,334.42Z"/><path class="cls-2" d="M381.18,330c-3.4,6.31-8.15,11.67-12.95,16.91q-61.47,67.15-153.7,64.55c-1.9-.05-3.78-.43-5.67-.66-.24-1.93-2.06-2.36-3.35-3.2q-27.48-18.08-55-36.12c-1.43-.94-3.28-1.42-2.76-4.17,2.37-12.4,4.4-24.87,6.56-37.31q5.54-31.8,11.09-63.6,3.3-19,6.54-38.05a68.64,68.64,0,0,1,6.8-2.58q63.8-17,127.62-33.93c1.06,5.74,2.18,11.47,3.16,17.23q5.91,35,11.77,69.92c.2,1.16,1.11,2.5.1,3.4-1.23,1.1-2.61-.16-3.75-.62-9.57-3.86-19.21-7.6-28.58-11.89-5-2.28-9.48-2.84-14.25-.05-1.62.95-3.92.84-5,2.43-2.32,3.28.73,12,4.52,13.56,25.57,10.65,51.11,21.39,76.72,32C361,321.91,370.85,326.59,381.18,330Z"/><path class="cls-3" d="M172,228.36q-3.27,19-6.54,38.05-5.52,31.8-11.09,63.6c-2.17,12.44-4.19,24.9-6.56,37.31-.53,2.75,1.33,3.23,2.76,4.17q27.46,18.1,55,36.12c1.29.85,3.1,1.27,3.35,3.2-13.43-.43-26.47-3.12-39.29-6.82-40.56-11.7-73.43-34.31-99-67.14a15.32,15.32,0,0,1-1.28-2.43c3.51-2.13,7.62-2.85,11.28-4.6,1.88-.9,2.83.48,4,1.2,10.45,6.53,20.86,13.14,31.29,19.7,1,.63,2.07,1.13,3.61,1.95L140.86,237C151.09,233.66,161.48,230.87,172,228.36Z"/><path class="cls-3" d="M381.18,330c-10.33-3.42-20.13-8.09-30.16-12.23-25.61-10.56-51.14-21.3-76.72-32-3.79-1.58-6.85-10.28-4.52-13.56,1.13-1.59,3.42-1.49,5-2.43,4.78-2.79,9.28-2.23,14.25.05,9.37,4.29,19,8,28.58,11.89,1.15.46,2.52,1.72,3.75.62,1-.9.09-2.24-.1-3.4q-5.9-35-11.77-69.92c-1-5.76-2.1-11.49-3.16-17.23l23.81-6.37q8.44,50.59,16.87,101.18a19.65,19.65,0,0,1,.25,2.38c.17,3.86,2.12,6,5.92,7.43,12.14,4.7,24.1,9.82,36.12,14.79.84.35,1.92.4,2.26,1.5C389.36,319.22,385.47,324.73,381.18,330Z"/><path class="cls-4" d="M330.19,185.48l-23.81,6.37q-63.81,16.95-127.62,33.93a68.64,68.64,0,0,0-6.8,2.58c-10.48,2.51-20.87,5.3-31.1,8.65-3.87.72-7.71,1.56-11.6,2.14a21.55,21.55,0,0,1-14-2.29c-13.66-7.27-26.27-16.12-39.51-24-3.29-2-4.53-4.41-4.68-8.13-.54-14-1.39-27.91-2.12-41.86a15,15,0,0,1,2.68.9c11.47,6.43,23.45,11.94,34.75,18.68,4.89,2.91,9.93,5.56,15.57,6.94a11,11,0,0,0,5.21.2q54.82-12.08,109.66-24.08c42.14-9.23,84.3-18.37,126.41-27.78,7.63-1.7,15.66-2.23,22.65-6.22-.51,8.56-3.65,16.57-5.42,24.87-.8,3.76-2.14,7.41-2.93,11.17-.88,4.17-3.44,6.3-7.54,7.36C356.66,178.37,343.43,182,330.19,185.48Z"/><path class="cls-3" d="M385.83,131.54c-7,4-15,4.52-22.65,6.22-42.1,9.41-84.26,18.54-126.41,27.78q-54.84,12-109.66,24.08a11,11,0,0,1-5.21-.2c-5.64-1.38-10.68-4-15.57-6.94C95,175.74,83.05,170.23,71.59,163.8a15,15,0,0,0-2.68-.9c-.3-2.38,1.4-2.36,3.1-2.65,17.92-3.1,35.81-6.3,53.73-9.39,20.73-3.57,41.48-7,62.21-10.58,22.88-3.93,45.75-7.95,68.62-11.91,27.41-4.74,54.84-9.43,82.24-14.23,3.75-.66,7,.72,10.35,1.71,10.81,3.23,21.55,6.69,32.25,10.23C383.86,126.89,387.06,127.64,385.83,131.54Z"/></g></g></svg>