<svg xmlns="http://www.w3.org/2000/svg" viewBox="0 0 447 447"><defs><style>.cls-1{fill:#fff;}.cls-2{fill:#9ea8b7;}.cls-3{fill:#959595;}.cls-4{fill:#fdfdfd;}.cls-5{fill:none;stroke:#9ea8b7;stroke-miterlimit:10;stroke-width:7px;}</style></defs><title>Asset 39</title><g id="Layer_2" data-name="Layer 2"><g id="peanut"><path class="cls-1" d="M408.14,225.38q-61.64-10.89-123.31-21.57l-126.08-22q-55-9.59-109.93-19.14c-4-.68-1.82-2.78-1.27-4.24,14.53-38.85,39-69.89,73.73-92.63,31-20.28,65.16-30.16,94.56-30.43,43.36,0,82.7,12.71,114.53,34.56A187.31,187.31,0,0,0,221.11,35C117.11,35,36,118.59,36,222.7S117.11,412,221.11,412a189.21,189.21,0,0,0,33.71-3,209.56,209.56,0,0,1-39.64,2.35C128.74,408.51,54,342.85,39.08,257.86a193.81,193.81,0,0,1-1.43-59.74,26.53,26.53,0,0,1,.64-2.7c.54-11.29.52-11.25,11-7.43q116.29,42.38,232.55,84.81a15.93,15.93,0,0,0,10.68.38c23-6.77,46.08-13.33,69.13-20,.61-.18,1.35-.09,1.91-1.23-1.32-.42-2.59-.9-3.9-1.24Q203.51,210.31,47.38,169.85c-1.28-.33-3.52.15-2.89-2.65s2.29-1.83,3.94-1.42L206,204.62q85.77,21.12,171.53,42.28a12.1,12.1,0,0,0,6.64-.09c7.67-2.26,15.39-4.34,23.06-6.6a8.76,8.76,0,0,1,1.47-.33q.61-7.11.69-14.35A7.85,7.85,0,0,1,408.14,225.38Z"/><path class="cls-2" d="M401.68,262.47q-54.65,18-109.28,36.15a9,9,0,0,1-6.85-.37q-88.9-37.11-177.85-74.08Q73,209.75,38.29,195.43a26.53,26.53,0,0,0-.64,2.7,193.81,193.81,0,0,0,1.43,59.74c15,85,89.66,150.64,176.11,153.47A209.56,209.56,0,0,0,254.82,409c46.37-7.33,85.43-31,116.81-70.37,18.16-22.79,29.82-48.84,35.42-77.5C405.1,260.93,403.44,261.89,401.68,262.47Z"/><path class="cls-2" d="M121.28,65.83c-34.74,22.75-59.2,53.79-73.73,92.63-.55,1.46-2.7,3.56,1.27,4.24q55,9.46,109.93,19.14l126.08,22q61.66,10.75,123.31,21.57a7.85,7.85,0,0,0,1.25.13c1.33,0,1.65-.63,1.63-2.48a197.37,197.37,0,0,0-2.28-28.28A184.45,184.45,0,0,0,330.37,70C298.54,48.11,259.2,35.4,215.84,35.4,186.44,35.67,152.25,45.55,121.28,65.83Zm175.18,65.84c1.66-1.68,2.88-.51,4.05.64q7.28,7.15,14.51,14.34c.91.91,1.67,2,2.5,3l1.08-.63c0-19.45,0-38.9,0-58.35,0-2-1.13-5.38,2.24-5.4s2.34,3.28,2.35,5.37c.05,18.13,0,36.25,0,54.38,0,1.31,0,2.62,0,4.15,1.88-.27,2.58-1.69,3.55-2.64,4.88-4.73,9.69-9.54,14.54-14.32,1.22-1.21,2.48-2.15,4-.44s.14,2.7-.85,3.69c-7.08,7.06-14.22,14.07-21.31,21.13-1.69,1.69-3.16,1.53-4.79-.09-7.09-7.06-14.22-14.07-21.32-21.12C296.08,134.34,294.93,133.22,296.46,131.67Zm-118.07,5.62c-3.48,3.5-7,7-10.49,10.44s-7.11,6.85-10.49,10.44c-2.19,2.33-3.89,2.61-6.28.18-6.53-6.67-13.27-13.13-19.85-19.76-1.16-1.17-3.55-2.33-1.47-4.51s3.36,0,4.57,1.21c5.47,5.59,10.86,11.25,16.49,17.1,1.41-1.87,1-3.08,1-4.17q.05-27.59,0-55.18c0-1.07,0-2.13,0-3.2a2.19,2.19,0,0,1,2.25-2.32,2.3,2.3,0,0,1,2.31,2.32,30.92,30.92,0,0,1,.06,3.19q0,27.19,0,54.38v3.92l1.25.74q7.56-7.91,15.13-15.81c.74-.77,1.51-1.51,2.3-2.23a2.17,2.17,0,0,1,3.47.12C179.86,135.39,179.29,136.39,178.39,137.29Zm41.75-2c5.46,5.6,10.85,11.26,16.47,17.13,1.44-1.9,1-3.12,1-4.2q.05-27.59,0-55.18c0-1.07,0-2.13,0-3.2A2.19,2.19,0,0,1,240,87.54a2.3,2.3,0,0,1,2.3,2.32,30.92,30.92,0,0,1,.06,3.19q0,27.19,0,54.38v3.93l1.25.74q7.56-7.91,15.13-15.81c.74-.77,1.51-1.51,2.3-2.22a2.17,2.17,0,0,1,3.47.12c1.14,1.22.56,2.22-.33,3.12-3.48,3.5-7,7-10.49,10.44s-7.11,6.85-10.49,10.44c-2.19,2.33-3.89,2.61-6.28.18-6.53-6.67-13.27-13.13-19.85-19.76-1.16-1.17-3.55-2.33-1.47-4.51S218.93,134.06,220.14,135.3Z"/><path class="cls-3" d="M384.17,246.81a12.1,12.1,0,0,1-6.64.09Q291.78,225.69,206,204.62L48.43,165.79c-1.66-.41-3.32-1.38-3.94,1.42s1.62,2.32,2.89,2.65q156.12,40.48,312.26,80.89c1.31.34,2.58.82,3.9,1.24-.57,1.15-1.3,1.06-1.91,1.23-23.05,6.63-46.12,13.2-69.13,20a15.93,15.93,0,0,1-10.68-.38Q165.59,230.28,49.27,188c-10.46-3.81-10.45-3.86-11,7.43Q73,209.8,107.7,224.17q88.95,37,177.85,74.08a9,9,0,0,0,6.85.37Q347,280.47,401.68,262.47c1.75-.58,3.42-1.54,5.37-1.36,1.68-6.17,2.12-12.55,3.06-18.84.3-2-.26-2.52-1.42-2.4a8.76,8.76,0,0,0-1.47.33C399.56,242.47,391.84,244.54,384.17,246.81Z"/><path class="cls-4" d="M297.12,135.38c7.09,7.05,14.23,14.06,21.32,21.12,1.63,1.63,3.1,1.78,4.79.09,7.09-7.06,14.22-14.06,21.31-21.13,1-1,2.36-2,.85-3.69s-2.82-.77-4,.44c-4.84,4.77-9.65,9.58-14.54,14.32-1,.94-1.67,2.36-3.55,2.64,0-1.53,0-2.84,0-4.15,0-18.13,0-36.25,0-54.38,0-2.09.95-5.39-2.35-5.37s-2.23,3.36-2.24,5.4c-.07,19.45,0,38.9,0,58.35l-1.08.63c-.83-1-1.58-2.07-2.5-3q-7.22-7.21-14.51-14.34c-1.18-1.16-2.4-2.32-4.05-.64S296.08,134.34,297.12,135.38Z"/><path class="cls-4" d="M175.26,134.05c-.79.72-1.56,1.46-2.3,2.23q-7.58,7.9-15.13,15.81l-1.25-.74v-3.92q0-27.19,0-54.38a30.92,30.92,0,0,0-.06-3.19,2.3,2.3,0,0,0-2.31-2.32A2.19,2.19,0,0,0,152,89.85c-.06,1.06,0,2.13,0,3.2q0,27.59,0,55.18c0,1.09.41,2.3-1,4.17-5.63-5.85-11-11.51-16.49-17.1-1.22-1.24-2.54-3.34-4.57-1.21s.31,3.34,1.47,4.51c6.58,6.62,13.32,13.08,19.85,19.76,2.38,2.44,4.09,2.15,6.28-.18,3.37-3.59,7-7,10.49-10.44s7-6.94,10.49-10.44c.9-.9,1.47-1.9.33-3.12A2.17,2.17,0,0,0,175.26,134.05Z"/><path class="cls-4" d="M217,138.6c6.58,6.62,13.32,13.08,19.85,19.76,2.38,2.44,4.09,2.15,6.28-.18,3.37-3.59,7-7,10.49-10.44s7-6.94,10.49-10.44c.9-.9,1.47-1.9.33-3.12a2.17,2.17,0,0,0-3.47-.12c-.79.71-1.56,1.46-2.3,2.22q-7.58,7.89-15.13,15.81l-1.25-.74v-3.93q0-27.19,0-54.38a30.92,30.92,0,0,0-.06-3.19,2.3,2.3,0,0,0-2.3-2.32,2.19,2.19,0,0,0-2.25,2.32c-.06,1.06,0,2.13,0,3.2q0,27.59,0,55.18c0,1.09.41,2.3-1,4.2-5.62-5.86-11-11.53-16.47-17.13-1.21-1.24-2.53-3.34-4.57-1.21S215.88,137.43,217,138.6Z"/><circle class="cls-5" cx="223.5" cy="223.5" r="220"/></g></g></svg>