<svg xmlns="http://www.w3.org/2000/svg" viewBox="0 0 447 447"><defs><style>.cls-1{fill:none;stroke:#9ea8b7;stroke-miterlimit:10;stroke-width:7px;}.cls-2{fill:#9ea8b7;}.cls-3{fill:#969797;}.cls-4{fill:#fefefe;}</style></defs><title>Asset 20</title><g id="Layer_2" data-name="Layer 2"><g id="Floor"><circle class="cls-1" cx="223.5" cy="223.5" r="220"/><path class="cls-2" d="M50.1,236.28c-1.82,4.43-1,6.47,3.18,7.88l191.46,65c8.49,2.88,17,5.68,25.44,8.75a6.23,6.23,0,0,0,6.58-1q65.78-48.1,131.67-96.06c1.05-.77,2.16-2.38,3.32-1.9,1.6.67.72,2.64.73,4A189.57,189.57,0,0,1,258.43,410.34C156.67,429.81,57.67,363,37.36,261.15,17.14,159.74,80.86,60.37,181.53,38,292.56,13.37,391,88.25,409.32,188.17a153.29,153.29,0,0,1,2.46,18.38c-4.21.24-8.21-1.17-12.27-1.87-23.3-4-46.53-8.39-69.81-12.54q-51.89-9.26-103.79-18.4a13,13,0,0,0-7.08.55c-16.2,6-32.44,11.88-48.67,17.77Q115.22,212,60.3,232C56.86,233.23,53,233.65,50.1,236.28Z"/><path class="cls-3" d="M50.1,236.28c2.89-2.63,6.76-3,10.2-4.31q54.88-20.1,109.87-39.9c16.24-5.89,32.48-11.77,48.67-17.77a13,13,0,0,1,7.08-.55q51.9,9.21,103.79,18.4c23.27,4.15,46.51,8.53,69.81,12.54,4.06.7,8.05,2.1,12.27,1.87,2.52,5,2.23,6.65-2.13,9.76q-47.79,34.08-95.61,68.1c-12,8.56-24,17.09-35.89,25.85a8.88,8.88,0,0,1-9.21,1.39Q201.6,288.3,134.17,265.22c-27.35-9.36-54.77-18.54-82.15-27.79C51.29,237.18,50.37,237.29,50.1,236.28Zm29.83-3,0,1,14,4.45Q127,249.3,160,259.87C193.6,270.54,227.22,281,260.67,292c4.89,1.61,8,1.35,12.22-1.54,35.41-24,71-47.63,106.59-71.39,3.92-2.62,7.82-5.26,12.34-8.3-1.9-.48-2.91-.8-3.94-1Q359.09,204.39,330.3,199q-51.48-9.64-102.94-19.39a11,11,0,0,0-6.25.46l-129,48.52Z"/><path class="cls-4" d="M79.93,233.23l12.21-4.61,129-48.52a11,11,0,0,1,6.25-.46Q278.8,189.45,330.3,199q28.79,5.39,57.59,10.73c1,.19,2,.51,3.94,1-4.52,3-8.42,5.68-12.34,8.3-35.56,23.75-71.19,47.4-106.59,71.39-4.26,2.89-7.33,3.15-12.22,1.54C227.22,281,193.6,270.54,160,259.87Q127,249.35,93.89,238.72l-14-4.45Z"/></g></g></svg>