<svg xmlns="http://www.w3.org/2000/svg" viewBox="0 0 447 447"><defs><style>.cls-1{fill:#fff;}.cls-2{fill:#9ea8b7;}.cls-3{fill:#959595;}.cls-4{fill:#fdfdfd;}.cls-5{fill:none;stroke:#9ea8b7;stroke-miterlimit:10;stroke-width:7px;}</style></defs><title>Asset 30</title><g id="Layer_2" data-name="Layer 2"><g id="peanut"><path class="cls-1" d="M334.56,376a189.64,189.64,0,0,0,45.78-51.17,177.62,177.62,0,0,1-10.74,15.45A209.18,209.18,0,0,1,334.56,376Z"/><path class="cls-1" d="M93.23,88.08A191.45,191.45,0,0,0,48.87,160c.36-.8.7-1.56,1-2.32C60.86,130,75.3,106.74,93.23,88.08Z"/><path class="cls-1" d="M51.44,188Q166.21,230.86,281,273.75a15.37,15.37,0,0,0,10.54.38c22.71-6.84,45.48-13.48,68.23-20.19.6-.18,1.33-.09,1.78-1-.67-1.07-2-1-3-1.3q-102.72-27.27-205.47-54.46-51.75-13.71-103.48-27.51c-1.26-.34-3.48.16-2.86-2.67s2.25-1.85,3.89-1.44l155.51,39.26Q291,226.23,375.8,247.67a10.36,10.36,0,0,0,5.79-.09c7.7-2.32,15.44-4.45,23.14-6.78,2.07-.62,3.26-.72,2.85,2.08-.93,6.36-1.37,12.81-3,19.05a190.82,190.82,0,0,1-10.53,36,194.77,194.77,0,0,0,14.64-74.39c0-105.25-82.9-190.58-185.17-190.58a180.52,180.52,0,0,0-100,30.14C146.4,48.29,173.23,38.85,204.06,35c93.4-11.73,181.82,55.26,200.44,149.89a206.91,206.91,0,0,1,4,38.13c0,2.61-.38,3.27-3.21,2.76Q340,213.9,274.66,202.32,203.31,189.59,132,176.89c-27.8-5-55.6-10-83.72-15a193.61,193.61,0,0,0-6.43,24.75C43,184.84,45.5,185.79,51.44,188Z"/><path class="cls-1" d="M39.22,204.9q.1-1.09.22-2.17C39.36,203.45,39.28,204.18,39.22,204.9Z"/><path class="cls-1" d="M40.6,195.52c0-1,.09-1.85.13-2.66q-.66,4.2-1.14,8.46c.12-1,.24-2,.37-3.07A27.4,27.4,0,0,1,40.6,195.52Z"/><path class="cls-1" d="M215.19,413.81c-2.44-.08-4.87-.22-7.28-.41,5.14.44,10.34.68,15.59.68a181.19,181.19,0,0,0,31.06-2.68A201.86,201.86,0,0,1,215.19,413.81Z"/><path class="cls-1" d="M38.87,208.93c0-.15,0-.31,0-.46C38.9,208.62,38.88,208.78,38.87,208.93Z"/><path class="cls-1" d="M256.56,411l-.67.12Z"/><path class="cls-2" d="M274.66,202.32Q340,214,405.27,225.76c2.83.51,3.23-.15,3.21-2.76a206.91,206.91,0,0,0-4-38.13C385.88,90.24,297.46,23.25,204.06,35c-30.83,3.87-57.66,13.31-80.53,28.08a169.13,169.13,0,0,0-30.3,25C75.3,106.74,60.86,130,49.88,157.69c-.3.77-.64,1.53-1,2.32-.26.58-.53,1.17-.81,1.81l.18,0c28.12,5,55.92,10.06,83.72,15Q203.31,189.63,274.66,202.32Zm-114.13-69q1.78,0,3.56,0l137.59,1H306l.07-1-27.23-10.57c-1.11-.43-2.22-.84-3.31-1.34-1.68-.77-3.18-1.88-2.3-4,1-2.28,2.66-.95,4-.4q20.06,7.9,40.1,15.85l9.56,3.8c-.35,1.45-1.57,1.4-2.45,1.76q-20.16,8.16-40.35,16.26c-1.22.49-2.48.9-3.72,1.36-2.08.78-4.37,1.52-5.3-1.32-.86-2.62,1.34-3.46,3.24-4.16,5.09-1.86,10.19-3.65,15.28-5.5a42.88,42.88,0,0,0,10-4.7c-1.5,0-3,0-4.51,0l-134.82-1.19c-1.32,0-2.64,0-4-.08-1.9-.09-3.53-.78-3.44-3S158.64,133.31,160.53,133.29Z"/><path class="cls-2" d="M256.56,411a171.26,171.26,0,0,0,78-35,209.18,209.18,0,0,0,35-35.72A178.82,178.82,0,0,0,394,297.89a190.82,190.82,0,0,0,10.53-36c-1.93-.19-3.57.79-5.3,1.37q-53.94,18.24-107.85,36.55a8.7,8.7,0,0,1-6.76-.38Q196.91,262,109.11,224.58,74.88,210,40.6,195.52a27.4,27.4,0,0,0-.64,2.73c-.13,1-.25,2-.37,3.07q-.08.7-.16,1.4-.12,1.09-.22,2.17-.17,1.78-.31,3.56c0,.15,0,.31,0,.46a202.93,202.93,0,0,0,2.51,49.71c14.35,83.47,84.33,148.49,166.53,154.75,2.42.18,4.85.32,7.28.41a201.86,201.86,0,0,0,39.37-2.41l1.32-.23Z"/><path class="cls-3" d="M109.11,224.58Q196.9,262,284.64,299.48a8.7,8.7,0,0,0,6.76.38q53.9-18.36,107.85-36.55c1.73-.59,3.38-1.56,5.3-1.37,1.65-6.24,2.09-12.69,3-19.05.41-2.8-.79-2.71-2.85-2.08-7.69,2.32-15.44,4.46-23.14,6.78a10.36,10.36,0,0,1-5.79.09Q291,226.2,206.12,204.82L50.61,165.55c-1.64-.41-3.28-1.39-3.89,1.44s1.6,2.34,2.86,2.67q51.73,13.81,103.48,27.51Q255.8,224.4,358.54,251.63c1,.27,2.31.23,3,1.3-.45.93-1.18.84-1.78,1-22.75,6.71-45.52,13.34-68.23,20.19a15.37,15.37,0,0,1-10.54-.38Q166.25,230.76,51.44,188c-5.95-2.22-8.46-3.17-9.63-1.4-.69,1-.91,3-1.09,6.26,0,.81-.09,1.69-.13,2.66Q74.86,210,109.11,224.58Z"/><path class="cls-4" d="M160.3,139.09c1.32.06,2.63.07,4,.08l134.82,1.19c1.5,0,3,0,4.51,0a42.88,42.88,0,0,1-10,4.7c-5.09,1.85-10.2,3.64-15.28,5.5-1.9.7-4.1,1.54-3.24,4.16.94,2.85,3.23,2.11,5.3,1.32,1.23-.47,2.49-.87,3.72-1.36q20.18-8.11,40.35-16.26c.88-.36,2.1-.31,2.45-1.76l-9.56-3.8q-20-7.93-40.1-15.85c-1.38-.54-3.08-1.87-4,.4-.88,2.11.62,3.22,2.3,4,1.08.49,2.2.91,3.31,1.34L306,133.32l-.07,1h-4.29l-137.59-1q-1.78,0-3.56,0c-1.89,0-3.57.57-3.67,2.78S158.4,139,160.3,139.09Z"/><circle class="cls-5" cx="223.5" cy="223.5" r="220"/></g></g></svg>