<svg xmlns="http://www.w3.org/2000/svg" xmlns:xlink="http://www.w3.org/1999/xlink" viewBox="0 0 455.06 447"><defs><style>.cls-1,.cls-6{fill:none;}.cls-2{clip-path:url(#clip-path);}.cls-3{fill:#9ea8b7;}.cls-4{fill:#fff;}.cls-5{fill:#959595;}.cls-6{stroke:#9ea8b7;stroke-width:7px;}.cls-6,.cls-7{stroke-miterlimit:10;}.cls-7{fill:#5c96f5;stroke:#fff;stroke-width:4px;}</style><clipPath id="clip-path"><circle class="cls-1" cx="220.09" cy="225.48" r="220"/></clipPath></defs><title>Asset 44</title><g id="Layer_2" data-name="Layer 2"><g id="peanut"><g class="cls-2"><path class="cls-3" d="M415.5,225.66c0,105.38-86.12,190.86-192.18,190.82S31.37,330.72,31.5,224.89c.13-105.3,86.36-191.83,192.59-190.41C330.64,35.9,417,122.39,415.5,225.66Z"/></g><path class="cls-4" d="M269.15,113.63l113.1,4.44c-4.86-3.21,10.41,4,21.68,34.62l-67,41L140.62,325.55l-14.31,9.61L47.14,299.76A109.46,109.46,0,0,1,38.78,282a110.83,110.83,0,0,1-6.65-37Z"/><path class="cls-5" d="M415.57,222.86a209.51,209.51,0,0,1-16.07,79.06c-91.55,11.45-181.64,21.8-273.19,33.25C218,270.36,308.16,206.64,399.81,141.83A209.55,209.55,0,0,1,415.57,222.86Z"/><circle class="cls-6" cx="223.5" cy="223.5" r="220"/><path class="cls-7" d="M311.85,63.94h52.59V11.21h35.74V63.94h52.88V99.69H400.18v52.44H364.44V99.69H311.85Z"/></g></g></svg>