<svg xmlns="http://www.w3.org/2000/svg" viewBox="0 0 447 447"><defs><style>.cls-1{fill:#fff;}.cls-2{fill:#9ea8b7;}.cls-3{fill:#919293;}.cls-4{fill:#b0b3b7;}.cls-5{fill:#fdfdfd;}.cls-6{fill:none;stroke:#9ea8b7;stroke-miterlimit:10;stroke-width:7px;}</style></defs><title>Asset 17</title><g id="Layer_2" data-name="Layer 2"><g id="Beam_Bench" data-name="Beam Bench"><path class="cls-1" d="M43.88,224.61c-1.51,0-3,.09-4.54.19C40.85,224.7,42.36,224.65,43.88,224.61Z"/><path class="cls-1" d="M85.68,222.3h0c.66-12.09.82-24.25,1.64-36.32C86.5,198,86.34,210.21,85.68,222.3Z"/><path class="cls-1" d="M114.56,137.8l-.47,0Z"/><path class="cls-1" d="M292.41,401.24q-33.11,11.41-64.15,12.58A192.72,192.72,0,0,0,292.41,401.24Z"/><path class="cls-1" d="M94.13,222.62c.65-.11,1.3-.2,2-.27q31.4-1.54,62.8-3.08-31.4,1.52-62.8,3.08C95.43,222.41,94.78,222.51,94.13,222.62Z"/><path class="cls-1" d="M84.09,222.71c-.35.09-.69.18-1,.24C83.4,222.89,83.75,222.8,84.09,222.71Z"/><path class="cls-1" d="M92.18,222.92c-.43.06-.87.11-1.3.15C91.31,223,91.74,223,92.18,222.92Z"/><path class="cls-1" d="M415.51,223.46c0-105.17-86-190.42-192-190.42s-192,85.25-192,190.42c0,85.5,56.82,157.84,135.06,181.9Q127.29,392.63,91.85,361c-2.06-1.84-3.49-3.64-3.31-6.83,2.34-40.58,4.51-81.16,6.73-121.74.07-1.21.21-2.41.31-3.62l-10.34,0c-1.28,20.13-2.59,40.25-3.78,60.39-.14,2.42-.7,3.45-3.45,3.59-9.34.49-18.66,1.32-28,2.07-1.66.13-3,.38-3.84-1.76a186.6,186.6,0,0,1-12.78-61.72l-.1-5.89c1-.17,2-.3,3-.42-1,.11-2,.25-3,.42-.51-32.18,6.74-62.65,22.35-90.76,32.25-58.06,81.81-92.45,148.26-99.33,68.46-7.08,125,17.7,169,70.15a24.91,24.91,0,0,1,1.66,2.28c.12.18,0,.49,0,.94l-22.1,2a8.48,8.48,0,0,0,.41,4.5h0c6.39.45,12.7-.47,19-1.11,3.31-.34,4.81.11,4.71,4-.19,7.26.26,14.53.4,21.8,0,1.15.46,2.46-.72,3.38-3.45,2.68-3.26,6.46-3.36,10.27-1.14,44.68-2.4,89.35-3.44,134-.09,3.9-1.25,5.41-5.17,5.58-5.55.24-11.09.8-16.6,1.5-15.41,2-30.73,4.6-46.23,6-3.1.27-4.14-.55-4.14-3.53s-.39-6.18-.63-9.26c-.26-3.42.25-7.09-3.82-9-1.25-.59-.69-2.21-.77-3.36-1.36-19.33-2.75-38.66-4-58-.17-2.64-1-3.39-3.61-3.27-9.63.45-19.26.66-28.89,1l-.65,6c1.6.95,3.34.85,5.12.8,6.1-.2,12.21-.26,18.31-.53,2.21-.1,3.07.49,3.23,2.83,1.2,17.58,3.85,35.11,4.34,52.65.63,23,3.78,45.73,5.45,68.61,1.22,16.77,2.93,33.51,4.63,50.24.26,2.6-.25,3.95-2.35,4.91C365.07,372.89,415.51,304,415.51,223.46ZM78.92,300.06c1.49-.12,1.85.56,1.76,1.91Q79.31,323.42,78,344.88a156.79,156.79,0,0,1-27.84-42.59C60.08,301.52,69.51,300.8,78.92,300.06Zm301.38,29.32c.5-32,1.4-64.08,2.91-96.1,1.29-27.57,2.75-55.15,3.23-82.75.14-8.07-.89-16.29-1-24.46,0-.47,0-.94,0-1.42a180.52,180.52,0,0,1,29,102.58c-.67,38-12,72.63-33.35,104.16C380,330.72,380.3,330,380.31,329.38Zm-72.09,65c-2.9,1.45-3.46.91-3.68-2.17q-2.79-40-5.95-80.07c-.27-3.35.66-4,3.76-4.25,9-.73,18.05-2.42,27.1-2.67,11.8-.32,23.5-1.38,35.2-2.64,2.69-.29,2.38,1.38,2.38,3q0,10.69,0,21.39h-.86c0,6.59-.07,13.18,0,19.77a8.66,8.66,0,0,1-2.56,6.5A194.47,194.47,0,0,1,308.22,394.36Z"/><path class="cls-1" d="M36.32,225.06c1-.11,2-.19,3-.26C38.33,224.87,37.33,225,36.32,225.06Z"/><path class="cls-2" d="M296.16,395.8c-1.7-16.73-3.4-33.47-4.63-50.24-1.67-22.88-4.81-45.6-5.45-68.61-.48-17.54-3.14-35.07-4.34-52.65-.16-2.34-1-2.93-3.23-2.83-6.1.27-12.21.33-18.31.53-1.77.06-3.52.15-5.12-.8h0c-3,.36-6.07.48-9.11.56s-6.09.12-9.13.32c-15.14,1-30.33,1.27-45.5,1.93-24.1,1-48.21,1.89-72.27,3.44-7.83.5-15.75-.46-23.49,1.38-.11,1.21-.25,2.41-.31,3.62-2.22,40.58-4.39,81.17-6.73,121.74-.18,3.19,1.24,5,3.31,6.83q35.44,31.6,74.7,44.33a176.91,176.91,0,0,0,61.71,8.46q31-1.17,64.15-12.58l.52-.18c.32-.11.61-.23.88-.35C295.91,399.75,296.42,398.4,296.16,395.8Z"/><path class="cls-2" d="M307.72,119.65q-28.69,2.77-57.38,5.5c-15.77,1.48-31.54,2.84-47.31,4.31q-29.09,2.7-58.17,5.48l-26.22,2.44-4.09.42-.47,0-4.14.43c-2.9.29-5.8.55-8.7.67s-3.4,1.2-3.45,3.6c-.26,12-.81,23.92-.89,35.88-.1,14.64-1.33,29.26-.84,43.92q31.4-1.54,62.8-3.08c6.35-.31,12.7-.39,19.06-.76,15.39-.91,30.85-.92,46.22-2,10.53-.75,21.09,0,31.58-1.32,9.63-.3,19.27-.52,28.89-1,2.64-.12,3.44.63,3.61,3.27,1.22,19.34,2.6,38.67,4,58,.08,1.15-.48,2.76.77,3.36,4.07,1.93,3.56,5.61,3.82,9,.23,3.09.62,6.17.63,9.26s1,3.8,4.14,3.53c15.5-1.35,30.82-4,46.23-6,5.51-.71,11.06-1.26,16.6-1.5,3.91-.17,5.07-1.68,5.17-5.58,1-44.68,2.3-89.35,3.44-134,.1-3.82-.1-7.59,3.36-10.27,1.19-.92.74-2.23.72-3.38-.14-7.27-.6-14.54-.4-21.8.1-3.89-1.4-4.34-4.71-4-6.31.65-12.63,1.56-19,1.11h0Q330.34,117.45,307.72,119.65Z"/><path class="cls-2" d="M43.88,224.61c4.54-.11,9.1-.06,13.64-.5,8.18-.78,16.43-.7,24.65-1.06a6.62,6.62,0,0,0,.88-.1c.35-.06.69-.15,1-.24.53-.14,1.06-.29,1.59-.41.66-12.09.82-24.25,1.64-36.32.37-5.49.88-11,1.63-16.39a261.46,261.46,0,0,0,2.12-31.38c0-2.24,1.38-2.94,3.42-3.1,7.7-.62,15.39-1.31,23.08-2,10.24-1.85,20.63-2.58,31-3.67,18.84-2,37.7-3.69,56.55-5.48,15.36-1.45,30.72-2.84,46.08-4.28,15.76-1.49,31.51-3,47.27-4.52q25.86-2.46,51.73-4.86a9.25,9.25,0,0,1,2.39.42l22.1-2c0-.44.1-.76,0-.94a24.91,24.91,0,0,0-1.66-2.28c-44.08-52.45-100.58-77.24-169-70.15-66.46,6.88-116,41.27-148.26,99.33C40,162.82,32.81,193.3,33.31,225.48c1-.17,2-.3,3-.42s2-.19,3-.26C40.85,224.7,42.36,224.65,43.88,224.61Z"/><path class="cls-2" d="M366.2,346.73c-.1-6.59,0-13.18,0-19.77H367q0-10.69,0-21.39c0-1.64.31-3.31-2.38-3-11.7,1.26-23.4,2.31-35.2,2.64-9.05.25-18.05,1.94-27.1,2.67-3.09.25-4,.9-3.76,4.25q3.22,40,5.95,80.07c.21,3.08.77,3.62,3.68,2.17a194.47,194.47,0,0,0,55.42-41.13A8.66,8.66,0,0,0,366.2,346.73Z"/><path class="cls-2" d="M381.16,331.4c21.39-31.53,32.68-66.2,33.35-104.16a180.52,180.52,0,0,0-29-102.58c0,.47,0,.94,0,1.42.07,8.17,1.09,16.39,1,24.46-.48,27.59-1.94,55.17-3.23,82.75-1.5,32-2.4,64.05-2.91,96.1C380.3,330,380,330.72,381.16,331.4Z"/><path class="cls-2" d="M46.19,293.09c.82,2.14,2.18,1.89,3.84,1.76,9.32-.74,18.65-1.57,28-2.07,2.75-.15,3.3-1.17,3.45-3.59,1.19-20.13,2.51-40.26,3.78-60.39l-51.83,2.56A186.6,186.6,0,0,0,46.19,293.09Z"/><path class="cls-3" d="M191.35,224c15.17-.66,30.36-.91,45.5-1.93,3-.21,6.09-.24,9.13-.32s6.08-.19,9.11-.56h0l.65-6c-10.49,1.28-21.05.57-31.58,1.32-15.38,1.09-30.83,1.11-46.22,2-6.36.37-12.71.45-19.06.76q-31.4,1.52-62.8,3.08c-.65.07-1.3.17-2,.27s-1.3.22-2,.31c-.43.06-.87.11-1.3.15a9.7,9.7,0,0,1-5.19-.78h0c-.53.12-1.06.27-1.59.41-.35.09-.69.18-1,.24a6.62,6.62,0,0,1-.88.1c-8.22.36-16.48.28-24.65,1.06-4.54.43-9.09.38-13.64.5-1.51,0-3,.09-4.54.19-1,.07-2,.15-3,.26s-2,.25-3,.42l.1,5.89,51.83-2.56,10.34,0c7.74-1.84,15.66-.88,23.49-1.38C143.15,225.91,167.26,225.07,191.35,224Z"/><path class="cls-3" d="M298.43,115.19c-15.76,1.5-31.51,3-47.27,4.52-15.36,1.45-30.72,2.83-46.08,4.28-18.86,1.79-37.72,3.5-56.55,5.48-10.33,1.08-20.71,1.82-31,3.67.48,1.39,1.87,2.54,1.08,4.25l26.22-2.44q29.08-2.74,58.17-5.48c15.77-1.46,31.54-2.83,47.31-4.31q28.69-2.69,57.38-5.5,22.62-2.18,45.24-4.4h0a8.48,8.48,0,0,1-.41-4.5,9.25,9.25,0,0,0-2.39-.42Q324.28,112.71,298.43,115.19Z"/><path class="cls-4" d="M80.68,302c.09-1.35-.27-2-1.76-1.91-9.42.75-18.84,1.47-28.76,2.23A156.79,156.79,0,0,0,78,344.88Q79.33,323.42,80.68,302Z"/><path class="cls-5" d="M96.91,178.43c.08-12,.63-23.92.89-35.88.05-2.4.66-3.48,3.45-3.6s5.8-.37,8.7-.67l4.14-.43.47,0,4.09-.42c.8-1.7-.59-2.86-1.08-4.25-7.69.66-15.38,1.35-23.08,2-2,.16-3.38.86-3.42,3.1a261.46,261.46,0,0,1-2.12,31.38c-.75,5.44-1.26,10.9-1.63,16.39-.82,12.07-1,24.23-1.64,36.32a9.7,9.7,0,0,0,5.19.78c.43,0,.87-.09,1.3-.15.65-.09,1.3-.2,2-.31s1.3-.2,2-.27C95.58,207.69,96.82,193.07,96.91,178.43Z"/><circle class="cls-6" cx="223.5" cy="223.5" r="220"/></g></g></svg>