<svg xmlns="http://www.w3.org/2000/svg" viewBox="0 0 447 447"><defs><style>.cls-1{fill:#fdfdfd;}.cls-2{fill:#9ea8b7;}.cls-3{fill:#959595;}.cls-4{fill:none;stroke:#9ea8b7;stroke-miterlimit:10;stroke-width:7px;}</style></defs><title>Asset 36</title><g id="Layer_2" data-name="Layer 2"><g id="stack"><path class="cls-1" d="M223.5,34.47h0Z"/><path class="cls-1" d="M53.82,301C52,297,52,297,56.37,297.2q68.35,3,136.69,6,93.57,4.17,187.14,8.47c2.55.12,3.42-.47,3.69-3.09.73-7.06,2.06-14.05,2.64-21.12.45-5.51-1.75-10.78-2.47-16.2-.19-1.46-.49-2.9-.74-4.35-4.49-1.46-9.19-1-13.77-1.31-19-1.43-38-2.39-57.07-3.65-33.94-2.25-67.87-4.63-101.81-6.89-18.62-1.24-37.26-2.28-55.88-3.51C128.4,249.81,102,248,75.58,246.19c-2.64-.18-5.3-.31-7.94-.28-3.39,0-5.62-1.08-5.56-4.93-4.53,7.07-7.65,14.9-11.69,22.24-1,1.85,1.11,2.62,1.07,4.28-.2,8.83-.09,17.67-.09,26.1-7.56-7.36-15.51-57-13.38-84.48a189.13,189.13,0,0,1,25.72-82.41c32.87-55.88,90.38-89.29,151.52-92C115.83,39,36.59,121.86,36.59,223.38c0,83.84,54,154.91,128.83,179.6A186.78,186.78,0,0,1,53.82,301Z"/><path class="cls-1" d="M377.84,117.65a169.46,169.46,0,0,1,15.29,27.87c-2.9-.28-3.61-1.73-4.6-2.71q-19.89-19.68-39.69-39.47a7.21,7.21,0,0,0-6.22-2.42c-33.07,2.13-66.15,4-99.23,6.06q-75.61,4.62-151.21,9.31c-4.1.25-8.2.63-12.31.69-2.38,0-3.15,1-3.32,3.3-1.33,18.17-2.77,36.32-4.18,54.48-.51,6.52-1.46,13-.3,19.58,2.45,7.37,3.54,15.06,5.13,22.63.73,3.47,1.47,5,5.78,4.48,14.2-1.59,28.48-2.39,42.72-3.52q34.43-2.73,68.85-5.49c18.2-1.43,36.42-2.78,54.62-4.22q33.83-2.67,67.66-5.43,21.57-1.72,43.14-3.36l28.49-2.22h0c3.3-.28,6.6-.71,9.91-.79,2.24-.06,3.25-.76,3.59-3.15.58-4.08,1.59-8.1,2.64-13.19a132.91,132.91,0,0,1,4.23,23.86C417,285,373.71,360.24,303.66,394.08A189.08,189.08,0,0,0,410.41,223.38c0-102-79.91-185-179.88-188.76a183.79,183.79,0,0,1,49.65,8.87C321.12,56.78,353.6,81.76,377.84,117.65Z"/><path class="cls-1" d="M300.08,395.76c1.19-.54,2.38-1.1,3.56-1.67Q301.87,394.94,300.08,395.76Z"/><path class="cls-1" d="M218.24,34.55l1.46,0Z"/><path class="cls-1" d="M227,34.52l2.07,0Z"/><path class="cls-2" d="M303.66,394.08C373.71,360.24,417,285,408.82,203.92a132.91,132.91,0,0,0-4.23-23.86c-1,5.1-2.06,9.11-2.64,13.19-.34,2.39-1.35,3.09-3.59,3.15-3.31.09-6.6.51-9.91.79h0c.53,2.34,1.11,4.67,1.75,7q.47,1.73,1,3.46,1,3.45,2.11,6.87c1.09,3.42,2.24,6.83,3.38,10.23,2,5.87,2.21,11.25.1,17.06A174.08,174.08,0,0,0,391,260.93c-1.05,4.46-2.86,6.92-7.66,6,.25,1.45.54,2.89.74,4.35.72,5.42,2.92,10.69,2.47,16.2-.58,7.06-1.91,14.06-2.64,21.12-.27,2.62-1.14,3.21-3.69,3.09q-93.57-4.33-187.14-8.47-68.34-3-136.69-6C52,297,52,297,53.82,301A186.78,186.78,0,0,0,165.42,403a182,182,0,0,0,101.82,4.23,187.08,187.08,0,0,0,32.85-11.45q1.79-.82,3.56-1.67Z"/><path class="cls-2" d="M63.71,126.71A189.13,189.13,0,0,0,38,209.12c-2.12,27.51,5.82,77.12,13.38,84.48,0-8.43-.1-17.27.09-26.1,0-1.67-2.09-2.44-1.07-4.28,4-7.33,7.16-15.16,11.69-22.24-1.47-7.7-2.84-15.42-4.45-23.08-.7-3.35-.45-6,2-8.78,3.28-3.62,6-7.76,9-11.63,1-1.22,1.65-2.78,3.4-3.15-1.15-6.55-.21-13.06.3-19.58,1.42-18.16,2.85-36.32,4.18-54.48.17-2.35.95-3.26,3.32-3.3,4.1-.06,8.2-.44,12.31-.69q75.61-4.66,151.21-9.31c33.08-2,66.16-3.93,99.23-6.06a7.21,7.21,0,0,1,6.22,2.42q19.77,19.82,39.69,39.47c1,1,1.7,2.43,4.6,2.71a169.46,169.46,0,0,0-15.29-27.87c-24.24-35.88-56.72-60.87-97.66-74.16a183.79,183.79,0,0,0-49.65-8.87l-1.45-.06-2.07,0-2.65,0h-1.63l-3,0-1.46,0-3,.12C154.09,37.42,96.57,70.83,63.71,126.71Z"/><path class="cls-3" d="M316.82,202.78q-33.83,2.69-67.66,5.43c-18.2,1.44-36.42,2.79-54.62,4.22q-34.43,2.71-68.85,5.49c-14.25,1.13-28.53,1.93-42.72,3.52-4.31.48-5.05-1-5.78-4.48-1.59-7.57-2.68-15.26-5.13-22.63-1.74.37-2.45,1.93-3.4,3.15-3,3.87-5.73,8-9,11.63-2.47,2.73-2.72,5.42-2,8.78,1.61,7.67,3,15.39,4.45,23.08-.06,3.85,2.17,5,5.56,4.93,2.65,0,5.3.11,7.94.28,26.41,1.78,52.81,3.62,79.23,5.36,18.62,1.23,37.26,2.27,55.88,3.51,33.94,2.26,67.87,4.64,101.81,6.89,19,1.26,38.06,2.22,57.07,3.65,4.58.34,9.28-.16,13.77,1.31,4.8.93,6.61-1.53,7.66-6a174.08,174.08,0,0,1,5.77-19.13c2.1-5.82,1.87-11.19-.1-17.06-1.15-3.4-2.29-6.8-3.38-10.23q-1.09-3.42-2.11-6.87-.5-1.73-1-3.46c-.63-2.31-1.22-4.64-1.75-7h0L360,199.42Q338.39,201.1,316.82,202.78Z"/><circle class="cls-4" cx="223.5" cy="223.5" r="220"/></g></g></svg>