<svg xmlns="http://www.w3.org/2000/svg" viewBox="0 0 447 447"><defs><style>.cls-1{fill:#fff;}.cls-2,.cls-5{fill:none;}.cls-2{stroke:#334559;stroke-linecap:round;stroke-linejoin:round;stroke-width:0;}.cls-3{fill:#464647;}.cls-4{fill:#929495;}.cls-5{stroke:#464647;stroke-miterlimit:10;stroke-width:7px;}</style></defs><title>Asset 2</title><g id="Layer_2" data-name="Layer 2"><g id="vault"><path class="cls-1" d="M78.11,153.3a5.29,5.29,0,0,1,.82-.24A5.28,5.28,0,0,0,78.11,153.3Z"/><path class="cls-1" d="M387.08,309a21.67,21.67,0,0,0,4.68-3.78A21.67,21.67,0,0,1,387.08,309Z"/><path class="cls-1" d="M37.11,252.71C21.45,150.05,89.58,55,192,36.65,291,18.9,388.83,85.7,408.78,184.69c8,39.84,4.08,78.38-12.15,115.66a14,14,0,0,1-2.69,5.89c-14.18,27.51-31.93,50-53.29,67.12A189.83,189.83,0,0,0,413.78,223.5c0-105-85.19-190.19-190.28-190.19S33.22,118.46,33.22,223.5,118.41,413.69,223.5,413.69a189.64,189.64,0,0,0,78.9-17.08c-19.22,8.51-40.53,13.87-64,15.89C139.83,421,52,350.61,37.11,252.71Z"/><path class="cls-1" d="M387.08,309q-.85.52-1.74,1Q386.23,309.56,387.08,309Z"/><path class="cls-1" d="M315.87,347.95l41.44-23.61,13.28-7.3a27.42,27.42,0,0,0,3.55-2l3.73-2,13.94-7.81h0l1.4-1.07h0c.65-1.26,2.57-1,2-3.79-.89-4.13-2.76-5.19-6.48-3.43-8.38,4-16.49,8.48-24.53,13.1-3.38,1.94-4,1.57-4.52-2.31a32.65,32.65,0,0,0-3-10.8c-8.32-16-16.88-31.78-26.06-47.27-3.14-5.3-3.13-10.28-.2-15.61,3.3-6,6.16-12.23,9.44-18.24,6.75-12.37,11.46-26.19,20.89-36.64,7.28-8.07,9.5-16.21,8.05-26.22a11.79,11.79,0,0,0-2.71.52c-9.15,4.12-18.7,5-28.67,4.84-41.44-.57-82.89-.67-124.34-1-24.49-.2-49-.19-73.46-.9-19.25-.56-38.48-.2-57.72-.49-2,0-4-.23-6-.34a3.91,3.91,0,0,1,2.25-2.25,3.91,3.91,0,0,0-2.25,2.25c-2.72,1.1-3.33,2.59-1.47,5.19,2.12,3,3,6.59,4.32,10a73.41,73.41,0,0,1,3.7,43.88c-1.84,8.46-3.08,10-11.76,11.59-1.32.24-2.63.51-3.94.8-4.59,1-9.18,2-13.76,3-1.3.3-2.86.61-2.5,2.47s1.88,2,3.47,1.76c.53-.09,1.07-.12,1.6-.21l57.28-9.58c1.76-.29,3.81-.5,3.53-2.92-.31-2.65-2.49-1.87-4.11-1.66-6.53.85-13.07,1.72-19.58,2.71-3.13.47-4.66-1-4.89-3.83a18.07,18.07,0,0,1,.47-5.18c1.35-6.16,2.36-12.38,3.38-18.6,1.45-8.88,3.28-17.69,8.37-25.42a7.63,7.63,0,0,1,7.34-3.84c48.68,1.63,97.35,3.29,146,4.57,9.17.24,17.35,2,24.93,7.36,3.2,2.25,5.6,4.27,5.4,8.48-.1,2,1.09,3.84,2.06,5.62l24.77,45.7q17,31.35,34,62.7c5.33,9.88,2.83,18.34-7,23.74-4.12,2.26-8.37,4.29-12.57,6.42q-14,7.1-28.05,14.21c-1.43.73-3,1.46-2.87,3.47a7.86,7.86,0,0,0,3.77,6.34c2.2,1.33,4.46,2.23,7.1.4C308.42,352.28,312.2,350.19,315.87,347.95ZM94.55,169.36c-2.36,5.64-3.67,11.7-7,17.8l-6-20.82c3.74,0,7.14.11,10.53,0C94.55,166.19,95.45,167.19,94.55,169.36Zm228,63.45c-2.29,0-2.77-3.56-3.92-5.59-8.19-14.5-16.17-29.12-24.49-43.54-1.83-3.16-.73-4.25,1.9-5.41,6.52-2.88,15.65-4.51,28.84-4.5,4.86.34,12.91.83,20.94,1.51,4.49.38,5.71,3.09,3.46,7.49-7.58,14.82-15.17,29.65-22.9,44.4C325.34,229.23,325.13,232.86,322.59,232.82Zm18.33,100.62-12.69,7.05Z"/><path class="cls-1" d="M78.94,153.06a8,8,0,0,1,.87-.13A8,8,0,0,0,78.94,153.06Z"/><path class="cls-2" d="M328.23,340.49l12.69-7.05"/><path class="cls-3" d="M393.95,306.25a14,14,0,0,0,2.69-5.89c16.23-37.28,20.18-75.82,12.15-115.66C388.83,85.7,291,18.9,192,36.65,89.58,55,21.45,150.05,37.11,252.71,52,350.61,139.83,421,238.42,412.51c23.45-2,44.75-7.39,64-15.89a172.34,172.34,0,0,0,38.26-23.24C362,356.23,379.76,333.76,393.95,306.25ZM387.08,309q-.85.52-1.74,1,.89-.46,1.74-1a21.67,21.67,0,0,0,4.68-3.78A21.67,21.67,0,0,1,387.08,309Zm-89.29,45.29A7.86,7.86,0,0,1,294,348c-.16-2,1.44-2.74,2.87-3.47q14-7.13,28.05-14.21c4.2-2.13,8.45-4.15,12.57-6.42,9.83-5.4,12.33-13.86,7-23.74q-16.94-31.38-34-62.7l-24.77-45.7c-1-1.78-2.15-3.57-2.06-5.62.2-4.21-2.2-6.23-5.4-8.48-7.58-5.32-15.76-7.12-24.93-7.36-48.69-1.29-97.36-2.95-146-4.57a7.63,7.63,0,0,0-7.34,3.84c-5.09,7.74-6.92,16.54-8.37,25.42-1,6.22-2,12.44-3.38,18.6a18.07,18.07,0,0,0-.47,5.18c.22,2.87,1.76,4.31,4.89,3.83,6.51-1,13-1.86,19.58-2.71,1.62-.21,3.81-1,4.11,1.66.28,2.41-1.77,2.62-3.53,2.92L55.54,234c-.53.09-1.07.13-1.6.21-1.6.26-3.1.15-3.47-1.76s1.2-2.18,2.5-2.47c4.58-1,9.17-2,13.76-3,1.31-.29,2.62-.56,3.94-.8,8.68-1.57,9.92-3.12,11.76-11.59a73.41,73.41,0,0,0-3.7-43.88c-1.35-3.36-2.2-7-4.32-10-1.87-2.61-1.25-4.09,1.47-5.19a3.91,3.91,0,0,1,2.25-2.25,5.28,5.28,0,0,1,.82-.24,8,8,0,0,1,.87-.13c.73-.07,1.5-.07,2.23-.09,15.31-.41,30.63-.6,45.94-1.11,78.9-2.64,157.83-.86,236.75-1.38,1.57,0,4.88-1.62,4.06,2.58,1.45,10-.77,18.14-8.05,26.22-9.43,10.45-14.14,24.28-20.89,36.64-3.28,6-6.15,12.24-9.44,18.24-2.93,5.33-2.95,10.31.2,15.61,9.18,15.48,17.74,31.31,26.06,47.27a32.65,32.65,0,0,1,3,10.8c.56,3.88,1.14,4.25,4.52,2.31,8-4.61,16.15-9.12,24.53-13.1,3.72-1.76,5.59-.71,6.48,3.43.62,2.79-1.3,2.53-2,3.79h0l-1.4,1.07h0L377.87,313l-3.73,2a27.42,27.42,0,0,1-3.55,2l-13.28,7.3-41.44,23.61c-3.67,2.24-7.45,4.33-11,6.78C302.25,356.56,300,355.66,297.79,354.33Z"/><path class="cls-4" d="M75.86,155.55c2,.12,4,.31,6,.34,19.24.29,38.48-.07,57.72.49,24.48.71,49,.7,73.46.9,41.45.34,82.9.44,124.34,1,10,.14,19.53-.72,28.67-4.84a11.79,11.79,0,0,1,2.71-.52c.82-4.2-2.5-2.59-4.06-2.58-78.92.52-157.84-1.26-236.75,1.38-15.31.51-30.63.7-45.94,1.11-.74,0-1.5,0-2.23.09a8,8,0,0,0-.87.13,5.29,5.29,0,0,0-.82.24A3.91,3.91,0,0,0,75.86,155.55Z"/><path class="cls-3" d="M345.86,175.3c-8-.69-16.08-1.17-20.94-1.51-13.19,0-22.32,1.62-28.84,4.5-2.63,1.16-3.72,2.25-1.9,5.41,8.33,14.42,16.31,29,24.49,43.54,1.15,2,1.63,5.55,3.92,5.59,2.54,0,2.75-3.58,3.83-5.63,7.72-14.75,15.31-29.57,22.9-44.4C351.56,178.39,350.35,175.69,345.86,175.3Z"/><path class="cls-3" d="M92.1,166.3c-3.39.15-6.79,0-10.53,0l6,20.82c3.29-6.1,4.59-12.16,7-17.8C95.45,167.19,94.55,166.19,92.1,166.3Z"/><circle class="cls-5" cx="223.5" cy="223.5" r="220"/></g></g></svg>