<svg xmlns="http://www.w3.org/2000/svg" viewBox="0 0 447 447"><defs><style>.cls-1{fill:#fff;}.cls-2{fill:#464647;}.cls-3{fill:#949595;}.cls-4{fill:none;stroke:#464647;stroke-miterlimit:10;stroke-width:7px;}</style></defs><title>Asset 34</title><g id="Layer_2" data-name="Layer 2"><g id="step"><ellipse class="cls-1" cx="223.5" cy="223.5" rx="188.17" ry="190.68"/></g><g id="peanut"><path class="cls-2" d="M409.65,227.72c-.73,29.52-7.69,57.53-21.71,83.34-31.69,58.35-80.39,92.37-145.69,100C145.82,422.34,55.9,353.53,39,256.39c-9.54-55,2.51-105,35.19-149.89,1.18-1.62,2.54-3.1,3.82-4.65.68.64,1.43,1.22,2,1.91q16.65,18.78,33.27,37.59,14.78,16.69,29.57,33.36,23.7,26.75,47.38,53.52Q206,246,221.65,263.79c7.26,8.25,14.32,16.7,23.72,22.63,5.19,3.27,10.62,5.28,17,3.9,8.12-1.75,15.67-5.22,23.19-8.42,30.27-12.88,60.29-26.35,90.41-39.57C387.16,237.41,398.41,232.59,409.65,227.72Z"/><path class="cls-3" d="M409.65,227.72c-11.23,4.87-22.49,9.69-33.7,14.61C345.82,255.55,315.8,269,285.54,281.9c-7.52,3.2-15.07,6.67-23.19,8.42-6.35,1.37-11.79-.63-17-3.9-9.4-5.93-16.46-14.39-23.72-22.63Q206,246,190.32,228.23q-23.67-26.78-47.38-53.52Q128.16,158,113.37,141.35,96.73,122.56,80.1,103.77c-.62-.7-1.36-1.28-2-1.91,4-5.78,9.06-10.55,13.69-15.73,1.56-1.74,2.38,0,3.15.83,3.32,3.5,6.53,7.1,9.77,10.68q22.28,24.56,44.55,49.13,38.45,42.45,76.84,85c6.28,7,12.5,13.83,20.61,18.8,8.95,5.48,18.53,5.51,28.18,3.9,11.79-2,22.23-8,33.25-12.36q48.76-19.1,97.4-38.53c2.91-1.16,3.44-.63,3.69,2.39A169,169,0,0,1,409.65,227.72Z"/><path class="cls-3" d="M266.17,252.68c-14,1.42-23.79-6.71-32.44-16-26.58-28.7-52.82-57.72-79.12-86.67-19.1-21-38-42.18-57.2-63.15-2.36-2.58-2.16-4.12.33-6.14a96.63,96.63,0,0,0,7.79-6.92c2-2,3.21-1.32,4.85.44q19.1,20.39,38.33,40.67,36.83,39,73.66,78.07,11.71,12.42,23.35,24.9c10,10.65,20.54,11.69,32.35,7.14,40.9-15.74,81.71-31.75,122.52-47.74,2.82-1.11,4.1-.77,4.59,2.44.81,5.32,1.9,10.6,2.92,15.88.61,3.16-.09,5-3.53,6.32-33.4,13-66.7,26.28-100,39.44-7.8,3.08-15.5,6.43-23.5,9C276.18,251.88,271.34,253.21,266.17,252.68Z"/><circle class="cls-4" cx="223.5" cy="223.5" r="220"/></g></g></svg>