<svg xmlns="http://www.w3.org/2000/svg" viewBox="0 0 447 447"><defs><style>.cls-1{fill:#464647;}.cls-2{fill:#949494;}.cls-3{fill:#fdfdfd;}.cls-4{fill:none;stroke:#464647;stroke-miterlimit:10;stroke-width:7px;}</style></defs><title>Asset 3</title><g id="Layer_2" data-name="Layer 2"><g id="vault"><path class="cls-1" d="M356.25,87.91c7.84,6.53,14.15,14.44,20.21,22.51,84.92,113.14,19,276.3-121.26,300.19C152.62,428.08,54.27,359.39,35.84,257.41A189.2,189.2,0,0,1,178.9,39.24C232.78,26.46,283.16,35.84,329.51,66c-3.47,3.68-8.08,5.74-12.26,8.38-33.79,21.31-67.67,42.48-101.43,63.84-5.75,3.64-12,6.64-17,11.44-8.24-1.07-14.35,3.31-20.65,7.59-12.29,8.37-24.85,16.37-37.12,24.76-3,2-4.84,1.84-7.65-.35-14.07-11-28.36-21.68-42.56-32.49-1.41-1.07-2.52-2.1-4.61-.85-10.31,6.2-20.72,12.25-31.15,18.25-1.68,1-1.84,2.09-1.25,3.64-.62,3.39,1.29,6.4,1.46,9.64.14,2.7,1.57,4.39,3.53,6q25.42,20.74,50.77,41.56,31.94,26.2,63.85,52.42,32.4,26.59,64.81,53.17,26.92,22.1,53.8,44.25c2.25,1.86,3.69,2,6-.23,8.68-8.69,17.36-17.42,26.55-25.56,5.44-4.81,7.19-10.72,8.09-17.31.29-2-1.59-2.32-2.65-3.13Q264.26,281,198.38,231c-1.91-1.45-2.81-2.86-2.72-5.29.2-5.1.21-10.22,0-15.31-.12-2.92,1-4.72,3.4-6.29,5.76-3.79,11.17-8.13,17.12-11.57,5.09-3,7.73-6.74,7.4-12.55,2.22-.09,3.62-1.73,5.24-2.84,42.08-28.8,83.58-58.44,126.12-86.58A2.53,2.53,0,0,0,356.25,87.91Z"/><path class="cls-2" d="M356.25,87.91a2.53,2.53,0,0,1-1.3,2.65c-42.54,28.14-84,57.78-126.12,86.58-1.62,1.11-3,2.75-5.24,2.84-1.19-.65-.77-1.86-1-2.85-.87-3.45-.69-7.11-2.75-10.34-5.11-8-11.4-14.48-21-17.07,5-4.81,11.2-7.8,17-11.44,33.75-21.37,67.63-42.54,101.43-63.84,4.18-2.64,8.8-4.7,12.26-8.38C339.14,72.47,348.39,79.35,356.25,87.91Z"/><path class="cls-3" d="M198.86,149.72c9.56,2.59,15.85,9.07,21,17.07,2.06,3.23,1.88,6.88,2.75,10.34.25,1-.18,2.2,1,2.85.33,5.81-2.31,9.6-7.4,12.55-5.95,3.45-11.36,7.79-17.12,11.57-2.38,1.57-3.52,3.37-3.4,6.29.21,5.1.19,10.22,0,15.31-.09,2.44.81,3.85,2.72,5.29Q264.27,281,330,331.07c1.06.81,2.94,1.13,2.65,3.13-1.51.21-2.18,1.52-3.09,2.45-9.23,9.31-18.49,18.59-27.57,28-2.22,2.32-3.65,2.61-6.24.4-7.91-6.74-16.07-13.21-24.17-19.74q-54.73-44.16-109.52-88.25a5.28,5.28,0,0,1-2.28-4.71c.11-6.86-.48-13.77.16-20.57,1-10.1-2.78-18.43-8.47-26.22-4.17-5.71-8.95-10.88-15.73-13.64-6.57-2.68-11.07.31-10.84,7,.47,13.86,14.4,31.71,28,35.66,1.37.4,2.12.71,2.1,2.27-.08,4.5,0,9,0,14.12-1.41-1-2.32-1.52-3.13-2.18Q113.67,218,75.5,187.24c-7.14-5.74-13.92-11.95-21.63-17-.59-1.55-.43-2.67,1.25-3.64,10.43-6,20.84-12.06,31.15-18.25,2.09-1.26,3.2-.23,4.61.85,14.2,10.81,28.49,21.52,42.56,32.49,2.82,2.2,4.66,2.4,7.65.35,12.28-8.39,24.83-16.39,37.12-24.76C184.51,153,190.63,148.65,198.86,149.72Z"/><path class="cls-2" d="M53.87,170.27c7.71,5,14.49,11.23,21.63,17q38.24,30.72,76.35,61.6c.81.65,1.71,1.2,3.13,2.18,0-5.11,0-9.62,0-14.12,0-1.56-.73-1.87-2.1-2.27-13.56-4-27.48-21.8-28-35.66-.23-6.72,4.27-9.7,10.84-7,6.78,2.76,11.56,7.93,15.73,13.64,5.69,7.79,9.44,16.12,8.47,26.22-.65,6.8-.06,13.71-.16,20.57a5.28,5.28,0,0,0,2.28,4.71q54.82,44,109.52,88.25c8.1,6.53,16.26,13,24.17,19.74,2.59,2.21,4,1.91,6.24-.4,9.08-9.45,18.34-18.73,27.57-28,.92-.92,1.58-2.23,3.09-2.45-.9,6.59-2.65,12.5-8.09,17.31-9.2,8.14-17.88,16.86-26.55,25.56-2.28,2.28-3.72,2.1-6,.23q-26.84-22.19-53.8-44.25-32.4-26.59-64.81-53.17-31.93-26.21-63.85-52.42-25.36-20.8-50.77-41.56c-2-1.6-3.4-3.29-3.53-6C55.16,176.67,53.24,173.66,53.87,170.27Z"/><circle class="cls-4" cx="223.5" cy="223.5" r="220"/></g></g></svg>