<svg xmlns="http://www.w3.org/2000/svg" viewBox="0 0 432 441.23"><defs><style>.cls-1{fill:#fff;}.cls-2{fill:#464647;}.cls-3{fill:#fdfdfd;}.cls-4{fill:#939394;}.cls-5{fill:none;stroke:#464647;stroke-miterlimit:10;stroke-width:7px;}</style></defs><title>Asset 8</title><g id="Layer_2" data-name="Layer 2"><g id="peanut"><path class="cls-1" d="M80.88,235.93c12.23-.08,24.45,0,36.68,0h0C105.33,235.89,93.1,235.84,80.88,235.93Z"/><path class="cls-1" d="M248.33,216c-1,0-2,.13-3,.13C246.3,216.12,247.32,216,248.33,216Z"/><path class="cls-1" d="M212.91,221.51q0-91.24-.09-182.49c0-3.83.86-4.79,4.61-4.77,86.36.4,161,65.5,176.39,154a191.91,191.91,0,0,1-35.31,148.53A190.7,190.7,0,0,0,398,220c0-103.7-81.48-187.76-182-187.76S34,116.33,34,220A190.72,190.72,0,0,0,73.12,336.31a213.43,213.43,0,0,1-18.81-31.58C-.29,192.79,66.15,58.47,185.77,37c6.7-1.2,13.55-1.52,20.3-2.48,3.21-.46,3.81.78,3.8,3.85q-.12,86.84-.06,173.67v9.56q0,91.62.06,183.23a6.44,6.44,0,0,1-.42,2.82q1.94.07,3.89.1a6,6,0,0,1-.51-2.95Q213,313.15,212.91,221.51Z"/><path class="cls-1" d="M64.36,281.79a3.85,3.85,0,0,0,.87.49,4.52,4.52,0,0,0,1.32.66,4.52,4.52,0,0,1-1.32-.66A3.85,3.85,0,0,1,64.36,281.79Z"/><path class="cls-1" d="M83.75,171a2.37,2.37,0,0,1-.24-.43A2.37,2.37,0,0,0,83.75,171Z"/><path class="cls-1" d="M151.89,168.91a6.67,6.67,0,0,0-1.11-3.17h0A6.67,6.67,0,0,1,151.89,168.91Z"/><path class="cls-1" d="M92.51,169.64c-.49-.07-1-.16-1.46-.26C91.53,169.48,92,169.57,92.51,169.64Z"/><path class="cls-1" d="M89.14,168.85l-.08,0Z"/><path class="cls-1" d="M88.88,168.76l-.77-.31Z"/><path class="cls-1" d="M63.84,281.22a2.17,2.17,0,0,0,.52.57A2.17,2.17,0,0,1,63.84,281.22Z"/><path class="cls-1" d="M117.69,191.33c-6.37,0-12.73,0-19.1,0,6.37,0,12.73,0,19.1,0,5.53,0,11.06,0,16.59,0C128.75,191.36,123.22,191.33,117.69,191.33Z"/><path class="cls-1" d="M241.48,227.18c-.89.07-1.8,0-2.69.08.89-.06,1.8,0,2.69-.08Z"/><path class="cls-1" d="M249.13,216l-.74,0,.74,0,.76,1.75h0Z"/><path class="cls-1" d="M383.51,224.09c-.36-.12-.76-.16-1.13-.25-11.82-5.8-23.62-11.64-35.46-17.4,11.84,5.76,23.64,11.59,35.46,17.4C382.75,223.93,383.15,224,383.51,224.09Z"/><path class="cls-1" d="M249.38,221.28l.57.12-.57-.12Z"/><path class="cls-1" d="M250.74,221.78c0-.07,0-.15,0-.21h0C250.75,221.64,250.75,221.71,250.74,221.78Z"/><path class="cls-2" d="M393.82,188.25c-15.39-88.5-90-153.59-176.39-154-3.75,0-4.62.94-4.61,4.77q.19,91.24.09,182.49,0,91.64-.07,183.29a6,6,0,0,0,.51,2.95c.54.93,1.59,1.25,3.49,1.22a178.51,178.51,0,0,0,141.67-72.18A191.91,191.91,0,0,0,393.82,188.25ZM223,203.27c0-2,1.72-2.12,2.93-2.67,12.1-5.52,24.23-11,36.31-16.51a10.25,10.25,0,0,1,7.11-.6c17.09,4.29,34.24,8.37,51.28,12.88a146,146,0,0,1,26.34,10.05c11.84,5.76,23.64,11.59,35.46,17.4.37.1.77.13,1.13.25a1.75,1.75,0,0,1,.34.15c8.34,4.91,8.7,7.54,2.06,14.65-5.71,6.11-11.43,12.22-17.08,18.38-1.48,1.62-3,2.92-5.3,2.55-.37-.06-.92-.12-1.13.09-4.8,4.82-10,1.63-14.86.49-32.14-7.56-64.23-15.36-96.34-23.09-4.87-1.17-9.73-2.39-14.62-3.49-1.59-.36-3-.69-3.22-2.72-.29-2.31,1.67-2.39,2.87-3.13a5.47,5.47,0,0,1,2.56-.72c.89-.06,1.8,0,2.69-.08a19.24,19.24,0,0,1,.12-9.45,3,3,0,0,1-.14-3.32c1.79-3.53-.29-4.8-3.13-5.39-4.27-.88-8.57-1.7-12.88-2.34C223.32,206.36,222.46,205.45,223,203.27Z"/><path class="cls-2" d="M209.82,221.6V212q0-86.84.06-173.67c0-3.07-.6-4.3-3.8-3.85-6.75,1-13.6,1.28-20.3,2.48C66.15,58.47-.29,192.79,54.31,304.73a213.43,213.43,0,0,0,18.81,31.58c31.5,43.57,76.43,67.39,133,72.42,1.92.17,2.88-.17,3.35-1.08a6.44,6.44,0,0,0,.42-2.82Q209.76,313.21,209.82,221.6ZM66.55,282.94a4.52,4.52,0,0,1-1.32-.66,3.85,3.85,0,0,1-.87-.49,2.17,2.17,0,0,1-.52-.57c-.74-1.2.22-2.73.53-4Q73.09,242,82,206.84c2.19-8.72,4.25-17.47,6.71-26.11,1.07-3.74.72-6.1-2.86-8.08A6.09,6.09,0,0,1,83.75,171a2.37,2.37,0,0,1-.24-.43c-.48-1.1.08-2.33,1.5-4h0c4.86-13.1,9.69-26.21,14.6-39.29.86-2.29,2.87-2.84,5-2.85h31.2c2.19,0,3.9.49,4.63,3.14,3.39,12.35,6.94,24.65,10.41,37a.9.9,0,0,1,0,.28c0,.29-.12.6-.15.9a6.67,6.67,0,0,1,1.11,3.17,3.93,3.93,0,0,1-.19,1.42,3.75,3.75,0,0,1-.18.44,4.05,4.05,0,0,1-.53.83,5.89,5.89,0,0,1-1.78,1.4c-2.59,1.39-2.85,3-2.17,5.76,8.19,33.49,16.22,67,24.36,100.52.67,2.75.62,4.49-2.75,4.17q-48.94-.13-97.89-.27A14.07,14.07,0,0,1,66.55,282.94Z"/><path class="cls-3" d="M349.56,251.65c2.33,1.62,3.69,1.69,5.82-.52,8.87-9.23,18-18.22,27-27.3-11.82-5.8-23.62-11.64-35.46-17.4a146,146,0,0,0-26.34-10.05c-17-4.52-34.18-8.59-51.28-12.88a10.25,10.25,0,0,0-7.11.6c-12.08,5.55-24.21,11-36.31,16.51-1.21.55-2.89.68-2.93,2.67,15.51,3.7,31.13,7,46.52,11.18A258.88,258.88,0,0,1,349.56,251.65Z"/><path class="cls-4" d="M225.45,206.68c4.31.64,8.6,1.46,12.88,2.34,2.84.58,4.92,1.86,3.13,5.39a3,3,0,0,0,.14,3.32h8.29l-.76-1.75-.74,0h-.06c-1,0-2,.13-3,.13a9.28,9.28,0,0,1-2.22-.25c-1-.25.59-.44.65-.91.14-.22.24-.54.44-.64,1.58-.83,1.43-2.16,1-3.58,2.29-.24.82,2.62,2.3,3,.61.15,1.46.35,1.87.05,4-2.88,7.33.64,11.59.69-3.16,3.56-7.46,4.16-10.2,7.11,0,.06,0,.14,0,.21a.28.28,0,0,1-.05.17c-1.6,1.66,2.26,3.82-.32,5.17s-5.41,1-8.15.22c-.24-.07-.49-.11-.74-.17-.89.07-1.8,0-2.69.08a5.47,5.47,0,0,0-2.56.72c-1.2.73-3.16.81-2.87,3.13.25,2,1.63,2.36,3.22,2.72,4.89,1.1,9.75,2.32,14.62,3.49,32.11,7.73,64.2,15.53,96.34,23.09,4.84,1.14,10.05,4.33,14.86-.49.21-.21.76-.15,1.13-.09,2.33.37,3.82-.94,5.3-2.55,5.65-6.17,11.37-12.27,17.08-18.38,6.64-7.11,6.28-9.74-2.06-14.65a1.75,1.75,0,0,0-.34-.15c-.36-.12-.76-.16-1.13-.25-9,9.08-18.13,18.06-27,27.3-2.13,2.21-3.49,2.14-5.82.52a258.88,258.88,0,0,0-80.08-37.2c-15.39-4.18-31-7.48-46.52-11.18C222.46,205.45,223.32,206.36,225.45,206.68Zm46.1,12.89a5.2,5.2,0,0,1,4.75-.26c21.33,7.05,42.08,15.42,60.76,28.49,1.88,1.32,4.23,1.87,6.55,4.44l-91.05-21.47C259.55,226.66,265.59,223.18,271.55,219.56Z"/><path class="cls-3" d="M242.22,227.35c2.74.77,5.56,1.13,8.15-.22s-1.28-3.52.32-5.17a.28.28,0,0,0,.05-.17c0-.07,0-.15,0-.21l-.81-.17-.57-.12a1,1,0,0,1-.37.12c-.11,0-.19-.08-.2-.32,0,0,.32-.11.5-.16l.59-3.19H241.6a19.24,19.24,0,0,0-.12,9.45h0C241.73,227.24,242,227.28,242.22,227.35Z"/><path class="cls-3" d="M88.11,168.45l.77.31.17.07.08,0a16.21,16.21,0,0,0,1.91.53c.48.1,1,.19,1.46.26s1.18.14,1.78.18c1.5.1,3,.1,4.57.08q19.83-.25,39.67,0c3.86,0,7.4-.19,10.19-3.34a2,2,0,0,1,2.06-.81h0c0-.3.14-.61.15-.9a.9.9,0,0,0,0-.28c-3.47-12.33-7-24.63-10.41-37-.73-2.66-2.44-3.14-4.63-3.14h-31.2c-2.18,0-4.19.56-5,2.85-4.91,13.08-9.74,26.19-14.6,39.29h0A13.68,13.68,0,0,0,88.11,168.45Z"/><path class="cls-3" d="M163.93,262.33c-.45-2.12-2.44-1.53-3.9-1.53q-20,0-40.07,0c-15,0-30.05.07-45.08-.06-2.94,0-4.34.82-5,3.93-1.29,5.93-3.06,11.76-4.63,17.63a4.52,4.52,0,0,0,1.32.66,14.07,14.07,0,0,0,4.21.24q48.94.15,97.89.27C168.18,276.15,165.42,269.39,163.93,262.33Z"/><path class="cls-4" d="M69.85,264.66c.68-3.11,2.08-4,5-3.93,15,.13,30.05.06,45.08.06q20,0,40.07,0c1.46,0,3.46-.59,3.9,1.53,1.49,7.06,4.25,13.82,4.71,21.12,3.37.33,3.42-1.41,2.75-4.17-8.14-33.5-16.17-67-24.36-100.52-.68-2.79-.42-4.37,2.17-5.76a5.89,5.89,0,0,0,1.78-1.4,4.05,4.05,0,0,0,.53-.83,3.75,3.75,0,0,0,.18-.44,3.93,3.93,0,0,0,.19-1.42,6.67,6.67,0,0,0-1.11-3.17,2,2,0,0,0-2.06.81c-2.79,3.14-6.34,3.38-10.19,3.34q-19.83-.21-39.67,0c-1.55,0-3.07,0-4.57-.08-.6,0-1.19-.1-1.78-.18s-1-.16-1.46-.26a16.21,16.21,0,0,1-1.91-.53l-.08,0-.17-.07-.77-.31A13.68,13.68,0,0,1,85,166.59h0c-1.42,1.67-2,2.9-1.5,4a2.37,2.37,0,0,0,.24.43,6.09,6.09,0,0,0,2.06,1.63c3.58,2,3.93,4.34,2.86,8.08-2.47,8.63-4.53,17.39-6.71,26.11Q73.13,242,64.37,277.23c-.31,1.26-1.27,2.79-.53,4a2.17,2.17,0,0,0,.52.57,3.85,3.85,0,0,0,.87.49C66.8,276.41,68.56,270.59,69.85,264.66ZM93.7,177c2.57-2.7,7.56-.82,11.48-.87,11.45-.12,22.9.05,34.34,0,2.32,0,3.58.62,3.92,3.13.55,4,2.47,7.72,2.38,11.87-3.85.08-7.69.2-11.54.23-5.53,0-11.06,0-16.59,0-6.37,0-12.73,0-19.1,0l-6.37.05c-2.27,0-2.95-.5-2.18-2.88C91.3,184.6,91.25,179.56,93.7,177Zm-5.51,18.33c.45-1.8,1.16-2.61,3.11-2.6q26.42.11,52.85,0c2.1,0,2.85.86,3.29,2.9,1.09,5,2.28,10.05,3.77,15,.93,3.06.33,3.82-2.79,3.8-18.13-.13-36.26-.07-54.39-.07H83.2C85,207.55,86.66,201.45,88.19,195.32ZM78.3,232.61c1.53-4.77,2.79-9.65,3.88-14.55.49-2.2,1.56-2.69,3.49-2.68q31.85.06,63.71,0c1.87,0,3.11.32,3.6,2.55,1.18,5.28,2.55,10.52,3.94,15.75.82,3.1-1.45,2.17-2.69,2.17-10.68.07-21.36,0-32,0h-4.63c-12.23,0-24.45,0-36.68,0C78.38,235.94,77.35,235.56,78.3,232.61Zm-5.8,22.08c1.27-4.72,2.58-9.43,3.68-14.19.53-2.29,1.48-3.25,3.92-3.24q37.41.13,74.82,0c2.29,0,3.17.9,3.66,3q1.89,8.09,4,16.13c.73,2.78-.33,3.41-2.86,3.4l-10.61,0c-10.61,0-21.21,0-31.82,0H76C71.12,259.71,71.14,259.72,72.5,254.68Z"/><path class="cls-2" d="M343.62,252.24c-2.32-2.57-4.67-3.12-6.55-4.44-18.68-13.07-39.43-21.44-60.76-28.49a5.2,5.2,0,0,0-4.75.26c-6,3.61-12,7.1-19,11.2Z"/><path class="cls-2" d="M249.13,216l.76,1.75-.59,3.19.16.16-.08.21.57.12.81.17h0c2.74-2.95,7-3.55,10.2-7.11-4.26,0-7.62-3.58-11.59-.69-.41.3-1.26.1-1.87-.05-1.48-.36,0-3.22-2.3-3,.4,1.42.55,2.75-1,3.58-.2.11-.3.42-.44.64C245.52,215.39,247.92,212.28,249.13,216Z"/><path class="cls-3" d="M243.74,215c-.06.46-1.65.65-.65.91a9.28,9.28,0,0,0,2.22.25c1,0,2-.08,3-.13h.06l.74,0C247.92,212.28,245.52,215.39,243.74,215Z"/><path class="cls-4" d="M249.46,221.07l-.16-.16c-.17.05-.5.12-.5.16,0,.24.1.32.2.32a1,1,0,0,0,.37-.12h0Z"/><path class="cls-3" d="M76,259.72h41.27c10.61,0,21.21,0,31.82,0l10.61,0c2.53,0,3.59-.62,2.86-3.4q-2.12-8-4-16.13c-.49-2.09-1.37-3-3.66-3q-37.41.14-74.82,0c-2.43,0-3.38.95-3.92,3.24-1.1,4.76-2.41,9.48-3.68,14.19C71.14,259.72,71.12,259.71,76,259.72Z"/><path class="cls-3" d="M80.88,235.93c12.23-.08,24.45,0,36.68,0h4.63c10.68,0,21.36,0,32,0,1.24,0,3.51.93,2.69-2.17-1.39-5.23-2.77-10.47-3.94-15.75-.5-2.23-1.73-2.55-3.6-2.55q-31.85.05-63.71,0c-1.93,0-3,.48-3.49,2.68-1.09,4.9-2.35,9.78-3.88,14.55C77.35,235.56,78.38,235.94,80.88,235.93Z"/><path class="cls-3" d="M148.42,214.39c3.12,0,3.72-.74,2.79-3.8-1.5-4.91-2.69-9.93-3.77-15-.44-2-1.19-2.91-3.29-2.9q-26.42.09-52.85,0c-2,0-2.66.8-3.11,2.6-1.53,6.13-3.2,12.23-5,19H94C112.16,214.33,130.29,214.26,148.42,214.39Z"/><path class="cls-3" d="M92.22,191.37l6.37-.05c6.37,0,12.73,0,19.1,0,5.53,0,11.06,0,16.59,0,3.85,0,7.69-.15,11.54-.23.09-4.15-1.83-7.87-2.38-11.87-.34-2.51-1.6-3.15-3.92-3.13-11.45.08-22.9-.09-34.34,0-3.92,0-8.91-1.84-11.48.87s-2.4,7.62-3.66,11.5C89.27,190.87,89.95,191.4,92.22,191.37Z"/><ellipse class="cls-5" cx="216" cy="220.62" rx="212.5" ry="217.12"/></g></g></svg>