<svg xmlns="http://www.w3.org/2000/svg" viewBox="0 0 447 447"><defs><style>.cls-1{fill:#464647;}.cls-2{fill:#959595;}.cls-3{fill:#fefefe;}.cls-4{fill:#334559;}.cls-5{fill:none;stroke:#464647;stroke-miterlimit:10;stroke-width:7px;}</style></defs><title>Asset 15</title><g id="Layer_2" data-name="Layer 2"><g id="peanut"><path class="cls-1" d="M412.17,223.78c-.06,104.91-84.68,190-188.95,189.89S34.68,328.23,34.83,222.81C35,118,119.75,33.17,224.19,33.32,328,33.48,412.23,118.84,412.17,223.78Zm-61.09,4.4c2.94.24,5.87.5,8.81.73,6.15.49,12.3,1.21,18.46,1.38s8.38-3.42,5.29-8.87c-2.72-4.79-5.83-9.36-8.84-14a15.21,15.21,0,0,1-2.86-7c.87-2.38,1.48-4.83,3-7q9.19-13.25,18.21-26.61c5.41-8,4.12-11.46-5.54-13.66-12.88-2.93-25.83-5.55-38.77-8.18-22.62-4.59-45.28-9-67.89-13.67-14.91-3.08-29.75-6.43-45-7.46a123.34,123.34,0,0,1-15.48-2c-12-2.36-23.57-2.23-34.42,4.43-6.77,4.16-12.78,9.33-19.18,14-32.57,23.67-65.21,47.24-98.45,70-7.79,5.33-15.26,10.94-20.73,18.85-2,2.9-2.17,5.56-.32,8.54a32.32,32.32,0,0,0,11.34,11.19,260,260,0,0,0,23.08,12.27,8.79,8.79,0,0,1,5.1,5.29c0,2.55-.35,5.14,0,7.63,2.14,14.3,10,23.91,24,27.82,29.4,8.24,58,18.3,84.72,33.47,13.79,7.84,26.76,17,40.23,25.3,5.57,3.44,11.42,6.09,18,6.55,13.08.92,25.22-3.49,28.16-18.1,2.6-12.92,4.58-26,6.84-39,2-5.69,4.31-11.24,8.31-15.83,15-17.17,28.19-35.76,42.32-53.61C342.93,236.2,345.48,230.72,351.08,228.18Z"/><path class="cls-2" d="M86.86,266.39a8.79,8.79,0,0,0-5.09-5.29,260,260,0,0,1-23.08-12.27,32.32,32.32,0,0,1-11.34-11.19c-1.85-3-1.68-5.64.32-8.54,5.47-7.91,12.94-13.53,20.73-18.85,33.24-22.72,65.88-46.29,98.45-70,6.4-4.65,12.41-9.82,19.18-14,10.85-6.66,22.41-6.79,34.42-4.43a123.34,123.34,0,0,0,15.48,2c15.25,1,30.09,4.37,45,7.46,22.6,4.68,45.27,9.08,67.89,13.67,12.94,2.63,25.9,5.25,38.77,8.18,9.66,2.2,11,5.65,5.54,13.66q-9,13.36-18.21,26.61c-1.49,2.15-2.1,4.61-3,7-2.9,1.45-3.6,4.74-5.69,6.86-4.48,2.09-6.49,6.32-8.76,10.29-.2.34.45,1.18.71,1.78-2.91,2.51-4.81,5.83-7.12,8.83-5.6,2.54-8.15,8-11.67,12.47-14.13,17.85-27.33,36.44-42.32,53.61-4,4.58-6.31,10.14-8.31,15.83-1.15.86-2.31,1.72-3.45,2.6-2.46,1.91-3.61,5.27-6.87,6.3l-1,.86.09,0c-4.29,2.13-8.45,4.59-12.89,6.33-12.63,4.93-24.86,2.28-36.53-3.22-42.58-20.08-86.51-36.91-130-54.77-1.22-.5-2.45-1.22-3.74-.15Zm103.7-31.12c.77,1.42,2,1.45,2.93,1.75,11.23,3.6,22.51,7.05,33.72,10.7,6.83,2.22,12.13.58,16.74-5.06,6.55-8,13.34-15.86,22-21.7.73-.49,1.94-.92,1.58-2s-1.54-.89-2.43-1.14q-18-5-36-10c-4.3-1.21-7.9,0-11.11,2.93q-6.87,6.22-13.8,12.38Zm22.72-31.53a37.59,37.59,0,0,0-4.21-1.8c-10.34-2.87-20.71-5.62-31-8.53a13.23,13.23,0,0,0-13.11,3.1c-7.51,6.75-15.47,12.94-23.29,19.3-2.88,2.35-2.71,3.25.86,4.38,11.64,3.68,23.32,7.23,35,10.92a5.87,5.87,0,0,0,6-1C193.46,221.75,203.25,213.16,213.27,203.74Zm92.44-21.54a22.73,22.73,0,0,0-3.53-1.44q-14.92-3.2-29.87-6.27c-4.55-.93-9.06-.3-12.59,2.68-6.67,5.65-14.1,10.28-20.76,15.92-3.86,3.27-3.62,4.3,1,6.17,9.73,3.95,20,6.06,30,9a8,8,0,0,0,8.42-2C287.28,198.3,296.29,190.47,305.71,182.2Zm-85.43,11.67a7.69,7.69,0,0,0,3.92-1.15q13.72-9.93,27.4-19.93c1.57-1.14,1.06-2-.39-2.55a21.09,21.09,0,0,0-3.45-1.08c-10.22-2.2-20.48-4.27-30.68-6.59a13.38,13.38,0,0,0-10.78,1.94c-7.39,5.14-14.39,10.83-21.51,16.35-2.31,1.79-1.67,3,.92,3.68,5.06,1.34,10.11,2.72,15.16,4.09Z"/><path class="cls-3" d="M278.45,319c3.27-1,4.41-4.39,6.87-6.3,1.14-.88,2.3-1.73,3.45-2.6-2.26,13-4.24,26-6.84,39-2.94,14.62-15.08,19-28.16,18.1-6.55-.46-12.4-3.11-18-6.55-13.47-8.33-26.44-17.46-40.23-25.3-26.68-15.17-55.33-25.22-84.72-33.47-14-3.91-21.83-13.53-24-27.82-.37-2.49,0-5.08,0-7.63L94.42,268c-1.25,12.87,2.49,19.14,14.64,23.37a867.88,867.88,0,0,1,114,49.23q15.73,8.15,31.61,16c7.92,3.89,15.74.82,18-7.4a131.15,131.15,0,0,0,4.87-29.39l-.09,0Z"/><path class="cls-3" d="M366.24,207.29c2.09-2.12,2.79-5.41,5.69-6.86a15.21,15.21,0,0,0,2.86,7c3,4.62,6.12,9.19,8.84,14,3.1,5.45,1,9-5.29,8.87s-12.31-.89-18.46-1.38c-2.94-.23-5.87-.49-8.81-.73,2.31-3,4.21-6.32,7.12-8.83,6.09,1.48,11.89,4.35,19.16,4.33Z"/><path class="cls-1" d="M277.59,319.82a131.15,131.15,0,0,1-4.87,29.39c-2.28,8.22-10.09,11.3-18,7.4q-15.9-7.81-31.61-16a867.88,867.88,0,0,0-114-49.23c-12.15-4.23-15.89-10.5-14.64-23.37,1.29-1.08,2.52-.36,3.74.15,43.51,17.86,87.44,34.69,130,54.77,11.67,5.5,23.9,8.15,36.53,3.22C269.15,324.42,273.3,322,277.59,319.82Z"/><path class="cls-3" d="M190.55,235.26l13.67-12.21q6.91-6.18,13.8-12.38c3.21-2.91,6.81-4.14,11.11-2.93q18,5.06,36,10c.89.25,2.11.17,2.43,1.14s-.85,1.55-1.58,2c-8.71,5.85-15.5,13.69-22,21.7-4.6,5.64-9.91,7.28-16.74,5.06-11.22-3.65-22.49-7.1-33.72-10.7C192.53,236.71,191.33,236.69,190.55,235.26Z"/><path class="cls-3" d="M213.27,203.74c-10,9.42-19.81,18-29.81,26.36a5.87,5.87,0,0,1-6,1c-11.64-3.69-23.31-7.25-35-10.92-3.57-1.13-3.74-2-.86-4.38,7.82-6.36,15.78-12.54,23.29-19.3a13.23,13.23,0,0,1,13.11-3.1c10.33,2.91,20.7,5.66,31,8.53A37.59,37.59,0,0,1,213.27,203.74Z"/><path class="cls-3" d="M305.71,182.2c-9.42,8.28-18.43,16.1-27.32,24.06a8,8,0,0,1-8.42,2c-10-2.91-20.28-5-30-9-4.62-1.87-4.86-2.91-1-6.17,6.66-5.64,14.08-10.27,20.76-15.92,3.53-3,8-3.61,12.59-2.68q15,3.05,29.87,6.27A22.73,22.73,0,0,1,305.71,182.2Z"/><path class="cls-3" d="M220.28,193.87l-19.41-5.23c-5.05-1.36-10.1-2.75-15.16-4.09-2.6-.69-3.23-1.89-.92-3.68,7.12-5.52,14.13-11.21,21.51-16.35a13.38,13.38,0,0,1,10.78-1.94c10.2,2.32,20.45,4.39,30.68,6.59a21.09,21.09,0,0,1,3.45,1.08c1.45.59,2,1.41.39,2.55q-13.7,10-27.4,19.93A7.69,7.69,0,0,1,220.28,193.87Z"/><path class="cls-1" d="M366.24,207.29l11.11,16.4c-7.27,0-13.07-2.86-19.16-4.33-.26-.61-.91-1.44-.71-1.78C359.75,213.6,361.77,209.37,366.24,207.29Z"/><path class="cls-4" d="M278.45,319l-1,.87Z"/><circle class="cls-5" cx="223.5" cy="223.5" r="220"/></g></g></svg>