<svg xmlns="http://www.w3.org/2000/svg" xmlns:xlink="http://www.w3.org/1999/xlink" viewBox="0 0 442.41 442.41"><defs><style>.cls-1,.cls-6{fill:none;}.cls-2{clip-path:url(#clip-path);}.cls-3{fill:#464647;}.cls-4{fill:#fff;}.cls-5{fill:#959595;}.cls-6{stroke:#464647;stroke-miterlimit:10;stroke-width:7px;}</style><clipPath id="clip-path"><circle class="cls-1" cx="217.84" cy="223.17" r="217.71"/></clipPath></defs><title>Asset 33</title><g id="Layer_2" data-name="Layer 2"><g id="peanut"><g class="cls-2"><path class="cls-3" d="M411.2,223.34C411.17,327.63,326,412.21,221,412.17s-190-84.87-189.82-189.59c.13-104.2,85.46-189.83,190.58-188.43C327.23,35.57,412.69,121.15,411.2,223.34Z"/></g><path class="cls-4" d="M266.38,112.48l111.92,4.39c-4.81-3.18,10.3,3.92,21.45,34.26l-66.3,40.58L139.19,322.2,125,331.71l-78.35-35a108.32,108.32,0,0,1-8.27-17.59,109.67,109.67,0,0,1-6.58-36.64Z"/><path class="cls-5" d="M411.28,220.57a207.33,207.33,0,0,1-15.91,78.24c-90.6,11.33-179.74,21.57-270.34,32.9C215.73,267.58,305,204.53,395.68,140.39A207.36,207.36,0,0,1,411.28,220.57Z"/><circle class="cls-6" cx="221.21" cy="221.21" r="217.71"/></g></g></svg>