<svg xmlns="http://www.w3.org/2000/svg" viewBox="0 0 447 447"><defs><style>.cls-1{fill:#fff;}.cls-2{fill:#464647;}.cls-3{fill:#959595;}.cls-4{fill:none;stroke:#464647;stroke-miterlimit:10;stroke-width:7px;}</style></defs><title>Asset 19</title><g id="Layer_2" data-name="Layer 2"><g id="peanut"><path class="cls-1" d="M211.35,34.21a190.4,190.4,0,0,0-60.77,13.62,207.75,207.75,0,0,1,42.92-11.57C199.49,35.29,205.44,34.62,211.35,34.21Z"/><path class="cls-1" d="M397.31,147.9a199.12,199.12,0,0,1,13,43.29,186.62,186.62,0,0,1,2.65,25c.2,9.6.19,9.63-7.91,8.22l-194.5-33.9q-81.51-14.2-163-28.3c-3.08-.53-3.42-1.33-2.35-4,13.38-33.54,32.15-60.87,56.44-81.34C58.81,111.73,33.71,165.61,33.71,225c0,105.13,82.59,187.4,188,187.4S413.3,329.37,413.3,224.24A189.22,189.22,0,0,0,397.31,147.9Zm14.87,94.51c-1,6.36-1.4,12.79-3.1,19-5.7,29.09-17.57,55.5-36.08,78.59-40.42,50.41-93.34,75.23-158,73.11-87.45-2.86-163-69.16-178.15-155a194.65,194.65,0,0,1-1.5-59.92c.14-1.05.46-2.09.7-3.13.54-11.4.53-11.36,11.11-7.51q117.64,42.8,235.26,85.65a16.14,16.14,0,0,0,10.8.38c23.28-6.84,46.62-13.47,69.93-20.17.62-.18,1.36-.09,1.94-1.24-1.34-.43-2.63-.91-3.95-1.25Q203.18,210.13,45.24,169.28c-1.29-.33-3.56.15-2.93-2.67s2.31-1.85,4-1.43l159.4,39.22q86.77,21.33,173.52,42.69a12.26,12.26,0,0,0,6.72-.09c7.76-2.29,15.57-4.38,23.32-6.67C411.39,239.69,412.6,239.62,412.18,242.41Z"/><path class="cls-2" d="M45.18,158.17c-1.07,2.69-.72,3.49,2.35,4q81.54,14,163,28.3l194.5,33.9c8.11,1.41,8.11,1.38,7.91-8.22a186.62,186.62,0,0,0-2.65-25,199.12,199.12,0,0,0-13-43.29c-31.42-73.07-104.4-119.36-186-113.69-5.91.41-11.86,1.08-17.84,2a207.75,207.75,0,0,0-42.92,11.57,174.1,174.1,0,0,0-49,29C77.32,97.3,58.55,124.63,45.18,158.17Z"/><path class="cls-2" d="M403.65,262.81Q348.37,281,293.11,299.32a9.13,9.13,0,0,1-6.93-.38q-89.93-37.48-179.92-74.81Q71.17,209.57,36,195.1c-.24,1-.55,2.07-.7,3.13a194.65,194.65,0,0,0,1.5,59.92C52,344,127.54,410.28,215,413.14c64.68,2.11,117.6-22.7,158-73.11,18.51-23.09,30.38-49.5,36.08-78.59C407.11,261.25,405.43,262.22,403.65,262.81Z"/><path class="cls-3" d="M409.26,240.32c-7.76,2.29-15.57,4.38-23.32,6.67a12.26,12.26,0,0,1-6.72.09q-86.75-21.41-173.52-42.69L46.3,165.17c-1.68-.41-3.36-1.39-4,1.43s1.64,2.34,2.93,2.67Q203.17,210.16,361.12,251c1.32.34,2.61.83,3.95,1.25-.57,1.16-1.32,1.07-1.94,1.24-23.32,6.7-46.66,13.33-69.93,20.17a16.14,16.14,0,0,1-10.8-.38Q164.82,230.3,47.15,187.6c-10.59-3.85-10.57-3.9-11.11,7.51q35.11,14.51,70.22,29,90,37.35,179.92,74.81a9.13,9.13,0,0,0,6.93.38Q348.35,281,403.65,262.81c1.77-.58,3.46-1.55,5.44-1.37,1.7-6.24,2.14-12.67,3.1-19C412.6,239.62,411.39,239.69,409.26,240.32Z"/><circle class="cls-4" cx="223.5" cy="223.5" r="220"/></g></g></svg>