<svg xmlns="http://www.w3.org/2000/svg" viewBox="0 0 447 447"><defs><style>.cls-1{fill:#fff;}.cls-2{fill:#464647;}.cls-3{fill:#949595;}.cls-4{fill:none;stroke:#464647;stroke-miterlimit:10;stroke-width:7px;}</style></defs><title>Asset 9</title><g id="Layer_2" data-name="Layer 2"><g id="peanut"><path class="cls-1" d="M96.33,118.61c-1.12,0-2.23.07-3.35.12C94.1,118.68,95.22,118.64,96.33,118.61Z"/><path class="cls-1" d="M88.11,119.07l-.32,0Z"/><path class="cls-1" d="M223.5,32.79c-104.6,0-189.4,85.38-189.4,190.71s84.8,190.71,189.4,190.71S412.9,328.82,412.9,223.5,328.1,32.79,223.5,32.79ZM62.88,321.74A192.31,192.31,0,0,1,52.87,144c.58-1.29.84-2.82,2.7-4.14,1.42,11,3.17,21.53,5.36,31.82,3.6,16.85,6.37,33.83,9.52,50.75C75.91,251.65,81,281,86.35,310.26c.43,2.35,0,3.43-2.36,4.52a169.94,169.94,0,0,0-15.54,8.41C65.79,324.78,64.52,324.51,62.88,321.74ZM77.83,174.57c21.83.08,43.65,0,65.48,0v-.55c21.56,0,43.12.09,64.67-.08,3.65,0,4,1.08,3.57,4.38-4.32,30.67-8.48,61.37-12.68,92.06-.58,4.27-1.31,8.53-1.71,12.81-.22,2.33-1.36,3.11-3.43,3.63Q147.82,298.34,101.94,310c-2.89.74-3.6.05-4.07-2.65Q89,257.24,80,207.15c-1.73-9.68-3.3-19.38-5.23-29C74.1,175,75.1,174.56,77.83,174.57ZM372.7,339.66c-40.45,50.39-92.79,76-157.06,73.31-59.92-2.48-107.87-29.58-143.9-77.91-1-1.28-1.86-2.59-2.85-4,.46-.11.92-.38,1.15-.25,5,2.88,9.94,1.39,15,0q67.59-19.07,135.24-38c.39-.11.79-.15,1.18-.27,1.29-.4,2.56-.71,2.34-2.63-.19-1.65-1.22-1.8-2.48-2-4.49-.72-8.95-1.79-13.46-2.22-3.07-.3-3.72-1.44-3.31-4.36,2.56-18,5-36,7.43-54.06q5.5-40,11-80.08c1.15-8.4,2.23-16.81,3.34-25.22h-7.29c-1.87,14-3.85,28-5.55,42-.38,3.18-2.23,2.7-4.2,2.71q-54.23.23-108.46.45c-8.3,0-16.6-.09-24.9,0-2.31,0-3.12-.53-3.51-3-1.57-10-3.42-19.89-5.33-29.8-.5-2.61-.07-3.83,2.79-4.13C74,129.89,78,129,82.21,129.08c.77-3.05.68-6.18.78-9.28h0c-5.55.14-11.11,0-16.67.73-.11-2,1.11-3,1.92-4.16C102.69,67,149.62,39.22,209.37,33.58c6.28-.59,12.56-.55,18.85-.61,2.22,0,3.06.5,2.7,3q-4,26.94-7.72,53.92c-1,7.46-1.85,14.94-2.77,22.41,2.64.72,5.28,1.46,7.58-.86h0c3.47-24.5,7-49,10.36-73.5.45-3.27,1.29-4.5,4.92-4.06,47.09,5.64,86.84,25.75,119.2,60.69,2.11,2.28,2.94,3.44-.11,6-2.33,2-4.08,3.21-7.24,3.23-6.4,0-12.81.76-19.21,1.15-1.65.1-3.2.3-4.33,1.69.22,3.27-1.48,6.51-.13,9.79,4.59,3,9.63,1.1,14.46,1.23a67,67,0,0,0,10-.59c2.69-.34,3.5.8,3.71,3.27q2.52,30.18,5.16,60.35c.54,6.3,1,12.61,1.59,18.92.24,2.74.87,5.48,2.89,7.37s2.44,4.16,2.57,6.83c1.69,36.91,3.36,73.81,5.36,110.7C377.52,330.38,376.43,335,372.7,339.66Zm14.37-211a194.66,194.66,0,0,1,19.39,48.62c.62,2.48.27,3.35-2.34,3.46-3.87.16-7.75.5-11.59,1-2.58.36-3.55-.46-3.73-3.07-.79-11-1.7-22-2.61-33-.54-6.56-1.16-13.11-1.8-20.25C386.2,126.41,386.5,127.64,387.06,128.63Zm1.63,184.46q-.79-18.9-1.58-37.81-1.32-30.89-2.71-61.78c-.1-2.14.17-3.72,2-5.22,3.53-2.84,4.39-6.84,3.9-11.29-.64-5.91-.55-5.94,5.39-6.49,3.33-.31,6.71-.27,10-.84,2.68-.46,3.44.42,3.84,3a192.3,192.3,0,0,1-7,89.82A132.78,132.78,0,0,1,388.7,313.09Z"/><path class="cls-2" d="M371.84,213.8c-.12-2.67-.47-4.88-2.57-6.83s-2.65-4.63-2.89-7.37c-.55-6.3-1-12.61-1.59-18.92q-2.59-30.17-5.16-60.35c-.21-2.47-1-3.61-3.71-3.27a67,67,0,0,1-10,.59c-4.83-.13-9.87,1.82-14.46-1.23-20,.53-40,1.88-60,3-6,.34-12,.69-18,1-8,.36-16,.62-24,1a19.49,19.49,0,0,0-3.1.64c-1.11,8.41-2.19,16.82-3.34,25.22q-5.48,40-11,80.08c-2.47,18-4.88,36.05-7.43,54.06-.41,2.91.24,4.06,3.31,4.36,4.52.44,9,1.5,13.46,2.22,1.27.2,2.29.35,2.48,2,.23,1.92-1,2.23-2.34,2.63-.38.12-.79.16-1.18.27q-67.63,18.95-135.24,38c-5.09,1.43-10,2.93-15,0-.23-.13-.69.14-1.15.25,1,1.39,1.9,2.7,2.85,4,36,48.33,84,75.43,143.9,77.91,64.27,2.66,116.61-22.92,157.06-73.31,3.73-4.65,4.83-9.28,4.51-15.16C375.19,287.61,373.53,250.71,371.84,213.8Z"/><path class="cls-2" d="M97.86,307.37c.48,2.7,1.18,3.39,4.07,2.65q45.86-11.75,91.81-23.15c2.07-.52,3.21-1.3,3.43-3.63.4-4.29,1.12-8.54,1.71-12.81,4.2-30.69,8.35-61.39,12.68-92.06.47-3.3.08-4.41-3.57-4.38-21.56.17-43.12.08-64.67.08v.55c-21.83,0-43.65,0-65.48,0-2.73,0-3.73.42-3.1,3.56,1.93,9.63,3.5,19.34,5.23,29Q88.93,257.26,97.86,307.37Z"/><path class="cls-2" d="M87.79,119.1l.32,0q1.6-.16,3.2-.25l1.67-.09c1.11-.05,2.23-.09,3.35-.12,4.47-.12,8.94-.14,13.39-.58,8.87-.89,17.83-1,26.72-1.64,3.13-.24,6,.82,9.1.75,6.65-.14,13.11-1.79,19.81-1.93,13.18-.26,26.34-1.39,39.51-2.14,5.18-.3,10.37-.53,15.56-.79.92-7.47,1.73-15,2.77-22.41q3.75-27,7.72-53.92c.36-2.47-.48-3-2.7-3-6.29.06-12.57,0-18.85.61C149.62,39.22,102.69,67,68.25,116.36c-.81,1.16-2,2.19-1.92,4.16,5.56-.74,11.12-.59,16.67-.73h0C84.59,119.49,86.19,119.27,87.79,119.1Z"/><path class="cls-2" d="M261.16,110.21c5.44,0,10.71-.64,16.07-1,13.44-.93,26.92-1.15,40.37-1.93,4.66-.27,9.3-.85,14-.64,1.13-1.39,2.68-1.59,4.33-1.69,6.4-.39,12.8-1.12,19.21-1.15,3.17,0,4.91-1.26,7.24-3.23,3.05-2.58,2.23-3.74.11-6-32.36-34.94-72.12-55-119.2-60.69-3.63-.43-4.47.79-4.92,4.06-3.36,24.51-6.89,49-10.36,73.5q2.08.06,4.16,0C241.85,111.4,251.5,110.22,261.16,110.21Z"/><path class="cls-2" d="M130.22,126.83c-14.54.77-29.07,1.57-43.61,2.33-1.46.08-2.93-.05-4.4-.09-4.16-.1-8.22.81-12.32,1.24-2.86.3-3.29,1.52-2.79,4.13,1.91,9.91,3.76,19.83,5.33,29.8.39,2.48,1.2,3,3.51,3,8.3-.12,16.6,0,24.9,0q54.23-.21,108.46-.45c2,0,3.82.47,4.2-2.71,1.7-14,3.67-28,5.55-42q-28.4,1.6-56.8,3.18C151.58,125.78,140.9,126.27,130.22,126.83Z"/><path class="cls-2" d="M86.35,310.26C81,281,75.91,251.65,70.46,222.39c-3.15-16.92-5.92-33.9-9.52-50.75-2.19-10.29-3.94-20.79-5.36-31.82-1.87,1.32-2.12,2.85-2.7,4.14a192.31,192.31,0,0,0,10,177.77c1.64,2.77,2.91,3,5.56,1.45A169.94,169.94,0,0,1,84,314.78C86.32,313.69,86.77,312.6,86.35,310.26Z"/><path class="cls-2" d="M409.58,192.62c-.4-2.54-1.15-3.43-3.84-3-3.28.57-6.66.54-10,.84-5.95.55-6,.58-5.39,6.49.48,4.45-.37,8.45-3.9,11.29-1.87,1.5-2.14,3.08-2,5.22q1.42,30.89,2.71,61.78.81,18.9,1.58,37.81a132.78,132.78,0,0,0,13.89-30.66A192.3,192.3,0,0,0,409.58,192.62Z"/><path class="cls-3" d="M253.47,120.39c6-.27,12-.61,18-1,20-1.13,40-2.48,60-3-.14-3.4.35-6.53.13-9.79-4.68-.21-9.32.37-14,.64-13.45.78-26.93,1-40.37,1.93-5.36.37-10.63,1-16.07,1-9.66,0-19.32,1.19-29,1.26q-2.08,0-4.16,0h0c-4.5.13-4.94,0-7.58.86-5.19.26-10.37.5-15.56.79-13.17.75-26.33,1.88-39.51,2.14-6.7.13-12,.26-18.66.4-3.06.06-7.12.53-10.24.77-8.9.69-17.85.75-26.72,1.64-4.45.45-8.92.47-13.39.58-1.12,0-2.23.07-3.35.12l-1.67.09q-1.6.1-3.2.25l-.32,0c-1.6.17-3.2.39-4.8.69h0c-.1,3.11,0,6.23-.78,9.28,1.47,0,2.94.17,4.4.09,14.54-.76,29.07-1.56,43.61-2.33,10.68-.56,21.36-1.05,32-1.64q28.4-1.56,56.8-3.18h7.29a19.49,19.49,0,0,1,3.1-.64C237.45,121,245.46,120.74,253.47,120.39Z"/><path class="cls-2" d="M388.79,178.67c.19,2.61,1.15,3.43,3.73,3.07,3.84-.53,7.72-.87,11.59-1,2.61-.11,3-1,2.34-3.46a194.66,194.66,0,0,0-19.39-48.62c-.56-1-.87-2.23-2.69-3.2.64,7.14,1.26,13.69,1.8,20.25C387.09,156.68,388,167.67,388.79,178.67Z"/><circle class="cls-4" cx="223.5" cy="223.5" r="220"/></g></g></svg>